<svg width="373" height="140" viewBox="0 0 373 140" fill="none" xmlns="http://www.w3.org/2000/svg">
<path fill-rule="evenodd" clip-rule="evenodd" d="M372.466 136.748C372.208 138.645 370.547 140 368.632 140H10.2118L3.99999 140C1.79085 140 0 138.209 0 136V97.2229V89.0448C0 88.9391 0.0856397 88.8535 0.191282 88.8535C0.290427 88.8535 0.373184 88.777 0.382056 88.6782C4.82101 39.2672 47.3912 0.509766 99.2512 0.509766C133.982 0.509766 164.547 17.8927 182.281 44.2171C183.264 45.6761 185.056 46.3739 186.766 45.9641C194.068 44.2155 201.711 43.2868 209.582 43.2868C239.326 43.2868 265.817 56.5494 282.891 77.2039C284.218 78.8086 286.524 79.2154 288.348 78.2115C296.488 73.7314 305.828 71.1848 315.757 71.1848C347.372 71.1848 373 96.9982 373 128.841C373 131.523 372.818 134.163 372.466 136.748Z" fill="white"/>
</svg>
