<svg width="373" height="96" viewBox="0 0 373 96" fill="none" xmlns="http://www.w3.org/2000/svg">
<g clip-path="url(#clip0)">
<path d="M78.0299 77.2772C96.9555 72.256 115.697 74.093 134.256 79.2367C149.016 83.3393 164.328 84.6865 178.722 80.2164C205.181 72.0111 230.844 74.338 256.996 81.0737C267.041 83.6455 277.698 83.3393 288.049 80.8288C297.236 80.4613 305.75 76.9098 314.814 75.3789C333.495 72.256 351.134 77.1547 368.896 80.89C375.327 82.2371 372.081 87.9931 372.265 91.6671C372.449 96.7496 368.529 94.7288 365.834 94.239C357.627 92.8306 349.91 89.7689 341.58 88.483C326.574 86.1561 312.058 88.1156 297.849 92.2795C288.968 94.9125 279.842 94.7901 270.777 95.8311C263.121 94.6676 255.281 95.1575 247.748 92.7694C226.495 85.9112 205.181 86.2173 183.744 92.402C169.657 96.4434 155.141 96.3209 140.748 93.7491C124.272 90.8711 108.164 84.2578 90.9532 88.9116C86.5434 87.9319 82.3173 89.3403 78.2749 90.6262C53.4082 98.5253 28.9703 95.6474 4.47111 88.9729C-2.14366 87.1971 1.10248 82.6658 0.673741 79.3591C0.122509 74.5829 4.04238 75.3789 6.79854 75.7463C10.4734 76.2974 14.2095 77.0323 17.7619 78.1345C37.9737 84.4416 58.0631 83.5843 78.0299 77.2772Z" fill="#6DCDDE"/>
<path d="M301.279 55.0493C293.745 55.1718 286.579 57.5599 279.107 58.2947C260.671 60.0093 243.522 53.8859 225.821 51.1303C212.653 49.1096 200.097 50.8242 187.725 54.2533C168.616 59.5194 149.629 59.7643 130.581 54.3145C109.573 48.3748 88.8095 48.8647 68.2915 56.7026C46.9772 59.948 26.1529 57.5599 5.32859 52.0488C-2.81739 49.9057 0.918733 44.6395 0.73499 40.7818C0.551246 35.2095 5.20609 38.3325 7.28852 38.7611C21.9268 41.9453 36.3813 46.6603 51.6933 45.1907C55.1844 44.8845 58.7368 45.3744 61.9829 43.5986C70.6189 41.9453 79.3773 40.4144 87.9521 38.5162C102.039 35.3932 115.82 37.2302 129.356 41.0267C149.016 46.5378 168.493 46.7827 188.092 41.088C206.344 35.7606 224.657 35.6994 242.848 41.088C265.265 47.7625 287.375 46.0479 309.241 38.6386C329.024 35.3932 348.195 38.5162 367.365 43.2924C375.389 45.2519 372.204 50.6405 372.204 54.5594C372.143 60.7441 367.671 57.07 365.099 56.6414C355.606 55.1105 346.48 51.559 336.802 50.7629C324.675 49.7832 312.732 50.2118 301.279 55.0493Z" fill="#6DCDDE"/>
<path d="M312.61 14.7565C301.891 15.6138 292.03 20.635 281.189 21.0636C266.857 21.6147 252.893 20.3288 239.051 16.2874C221.901 11.2662 204.629 12.2459 187.541 17.2671C168.493 22.9006 149.384 22.6557 130.458 17.2671C112.206 12.001 94.0157 12.001 75.7638 16.7773C70.0677 18.2469 64.3717 19.7165 58.6756 21.2473C40.5462 22.1046 22.9068 19.4103 5.32865 15.0015C-3.00107 12.9195 0.980043 7.4697 0.796299 3.6732C0.551307 -1.89908 5.1449 1.28508 7.28858 1.65248C17.027 3.4895 26.5817 6.55119 36.3814 7.71464C49.2434 9.30672 62.1055 7.89834 74.6613 4.10184C93.1582 -1.47045 111.716 -1.40921 130.274 4.10184C149.323 9.73536 168.493 9.61289 187.48 4.10184C206.344 -1.34798 225.086 -1.22551 243.889 4.22431C262.693 9.73536 281.741 9.91906 300.299 4.10184C323.757 -3.24623 346.541 0.672741 369.264 6.67366C375.45 8.26574 372.143 13.8993 372.326 17.6958C372.571 22.4108 368.896 20.4513 366.569 19.9002C359.281 18.2469 351.992 16.1649 344.642 14.6953C333.985 12.6133 323.267 12.4909 312.61 14.7565Z" fill="#6DCDDE"/>
</g>
<defs>
<clipPath id="clip0">
<rect width="373" height="96" fill="white"/>
</clipPath>
</defs>
</svg>
