<svg width="761" height="252" viewBox="0 0 761 252" fill="none" xmlns="http://www.w3.org/2000/svg">
<g clip-path="url(#clip0)">
<path d="M466.94 216.56H301.25C300.29 216.561 299.339 216.373 298.451 216.006C297.564 215.639 296.757 215.101 296.078 214.422C295.399 213.743 294.861 212.936 294.494 212.049C294.127 211.161 293.939 210.21 293.94 209.25V43.02C293.937 41.083 294.704 39.2241 296.07 37.8517C297.437 36.4792 299.293 35.7053 301.23 35.7H466.94C468.876 35.7079 470.73 36.4827 472.097 37.8546C473.463 39.2265 474.23 41.0838 474.23 43.02V209.25C474.23 211.185 473.463 213.042 472.096 214.412C470.729 215.782 468.875 216.555 466.94 216.56ZM301.25 38.26C299.992 38.2653 298.787 38.7695 297.901 39.6618C297.014 40.5542 296.517 41.762 296.52 43.02V209.25C296.519 209.872 296.64 210.489 296.877 211.065C297.114 211.64 297.462 212.164 297.901 212.605C298.34 213.046 298.862 213.396 299.437 213.635C300.011 213.875 300.628 213.999 301.25 214H466.94C467.562 213.999 468.179 213.875 468.753 213.635C469.328 213.396 469.85 213.046 470.289 212.605C470.728 212.164 471.076 211.64 471.313 211.065C471.55 210.489 471.671 209.872 471.67 209.25V43.02C471.673 42.3967 471.552 41.779 471.316 41.2023C471.079 40.6255 470.732 40.1011 470.292 39.6589C469.853 39.2168 469.331 38.8656 468.755 38.6256C468.18 38.3856 467.563 38.2613 466.94 38.26H301.25Z" fill="#EE3124"/>
<path d="M427.81 243.77C426.818 243.78 425.836 243.575 424.93 243.17L270.75 176.48C268.976 175.707 267.581 174.263 266.867 172.465C266.153 170.667 266.18 168.659 266.94 166.88L333.65 12.68C334.216 11.368 335.154 10.2507 336.348 9.46684C337.543 8.68293 338.941 8.26679 340.37 8.27001C341.364 8.27499 342.346 8.47901 343.26 8.87001L497.43 75.58C499.205 76.3499 500.605 77.7865 501.33 79.58C501.69 80.4739 501.867 81.4307 501.851 82.3941C501.836 83.3575 501.628 84.3081 501.24 85.19L434.53 239.38C433.961 240.688 433.022 241.801 431.828 242.582C430.633 243.362 429.237 243.775 427.81 243.77ZM340.37 10.88C339.443 10.8783 338.536 11.1483 337.761 11.6566C336.986 12.1649 336.378 12.8893 336.01 13.74L269.3 167.88C269.046 168.453 268.909 169.071 268.897 169.698C268.885 170.325 268.998 170.948 269.23 171.53C269.705 172.698 270.616 173.634 271.77 174.14L425.94 240.88C427.099 241.345 428.391 241.347 429.552 240.888C430.713 240.428 431.653 239.542 432.18 238.41L498.94 84.19C499.431 83.0311 499.448 81.7256 498.986 80.5547C498.524 79.3837 497.62 78.4412 496.47 77.93L342.24 11.22C341.645 10.9837 341.01 10.8681 340.37 10.88V10.88Z" fill="#9FA1A4"/>
<path d="M384.12 252.13C383.157 252.136 382.202 251.949 381.312 251.579C380.423 251.21 379.616 250.666 378.94 249.98L260.13 131.25C258.765 129.873 257.999 128.013 257.999 126.075C257.999 124.137 258.765 122.277 260.13 120.9L378.86 2.08001C380.255 0.750335 382.108 0.00857544 384.035 0.00857544C385.962 0.00857544 387.815 0.750335 389.21 2.08001L508.03 120.81C508.714 121.486 509.257 122.291 509.626 123.178C509.995 124.066 510.183 125.019 510.18 125.98C510.181 127.92 509.416 129.782 508.05 131.16L389.3 249.98C388.623 250.665 387.817 251.209 386.927 251.578C386.037 251.947 385.083 252.135 384.12 252.13V252.13ZM384.03 2.49001C383.407 2.48545 382.789 2.60614 382.214 2.84492C381.638 3.0837 381.117 3.4357 380.68 3.88001L261.94 122.73C261.496 123.167 261.143 123.687 260.902 124.261C260.661 124.836 260.537 125.452 260.537 126.075C260.537 126.698 260.661 127.314 260.902 127.889C261.143 128.463 261.496 128.983 261.94 129.42L380.78 248.18C381.689 249.036 382.891 249.513 384.14 249.513C385.389 249.513 386.591 249.036 387.5 248.18L506.23 129.33C506.673 128.892 507.023 128.37 507.26 127.795C507.497 127.219 507.616 126.602 507.61 125.98C507.614 125.355 507.494 124.735 507.257 124.157C507.02 123.578 506.671 123.053 506.23 122.61L387.41 3.88001C386.966 3.43751 386.438 3.08697 385.858 2.84846C385.278 2.60995 384.657 2.48814 384.03 2.49001Z" fill="#9FA1A4"/>
<path d="M340.07 243.65C338.638 243.658 337.234 243.245 336.036 242.46C334.837 241.676 333.896 240.556 333.33 239.24L267.06 84.88C266.681 83.9931 266.481 83.0401 266.47 82.0757C266.46 81.1112 266.641 80.1543 267.001 79.2597C267.362 78.365 267.895 77.5504 268.571 76.8623C269.247 76.1742 270.052 75.6263 270.94 75.25L425.25 8.98001C426.152 8.58634 427.126 8.38212 428.11 8.38C429.543 8.381 430.944 8.80085 432.142 9.58793C433.339 10.375 434.281 11.495 434.85 12.81L501.13 167.2C501.889 168.983 501.911 170.993 501.191 172.792C500.471 174.591 499.069 176.032 497.29 176.8L342.94 243.08C342.032 243.464 341.056 243.658 340.07 243.65V243.65ZM428.07 10.94C427.436 10.9453 426.809 11.0815 426.23 11.34L271.94 77.61C271.359 77.8512 270.831 78.2057 270.388 78.6528C269.945 79.1 269.596 79.6309 269.361 80.2146C269.125 80.7982 269.008 81.423 269.017 82.0523C269.025 82.6816 269.159 83.3029 269.41 83.88L335.68 238.23C336.196 239.377 337.137 240.278 338.306 240.743C339.474 241.208 340.778 241.199 341.94 240.72L496.3 174.45C497.455 173.949 498.365 173.01 498.83 171.84C499.072 171.266 499.197 170.648 499.197 170.025C499.197 169.402 499.072 168.784 498.83 168.21L432.5 13.88C432.138 13.0127 431.529 12.2712 430.748 11.7483C429.967 11.2254 429.05 10.9443 428.11 10.94H428.07Z" fill="#9FA1A4"/>
<path d="M399.02 103.4C389.02 103.4 384.82 110.28 384.82 110.28H384.73V85.97H373.05V151.88H384.18V145.88C385.774 148.116 387.894 149.925 390.353 151.146C392.813 152.367 395.535 152.962 398.28 152.88C410.8 152.88 419.99 143.14 419.99 128.11C419.99 118.11 416.16 110.11 409.65 106.19C406.432 104.296 402.753 103.331 399.02 103.4V103.4ZM396.23 143.02C388.35 143.02 384.45 135.8 384.45 128.45C384.45 117.97 390.2 113.54 396.32 113.54C403.32 113.54 408.1 119.38 408.1 128.36C408.1 137.74 402.72 143.02 396.23 143.02V143.02Z" fill="#EE3124"/>
<path d="M438.07 132.88V113.67H449.57V104.32H438.07V88.81H426.57V104.32H420.18V113.67H426.3V134.5C426.3 150.37 440.3 152.3 446.87 152.3C448.086 152.315 449.3 152.225 450.5 152.03V141.33C450.5 141.33 438.07 143.09 438.07 132.88Z" fill="#EE3124"/>
<path d="M335.39 85.97L312.2 151.88H324.53L329.08 139.08H354.23L358.78 151.88H371.11L347.94 85.97H335.39ZM333.15 127.6L338.83 107.6C340.12 103.91 341.62 97.39 341.62 97.39H341.81C341.81 97.39 343.19 103.91 344.39 107.6L350.58 127.6H333.15Z" fill="#EE3124"/>
</g>
<defs>
<clipPath id="clip0">
<rect width="761" height="252" fill="white"/>
</clipPath>
</defs>
</svg>
