<?xml version="1.0" encoding="utf-8"?>
<!-- Generator: Adobe Illustrator 24.0.3, SVG Export Plug-In . SVG Version: 6.00 Build 0)  -->
<svg version="1.1" id="Layer_1" xmlns="http://www.w3.org/2000/svg" xmlns:xlink="http://www.w3.org/1999/xlink" x="0px" y="0px"
	 viewBox="0 0 336.5 77" style="enable-background:new 0 0 336.5 77;" xml:space="preserve">
<style type="text/css">
	.st0{fill:url(#SVGID_1_);}
	.st1{fill:#D1D3D4;}
	.st2{fill:#FFD200;}
	.st3{fill:#E31933;}
</style>
<g>
	<g>
		<g>
			<path d="M93.8,9.3c-0.6-1.8-2.3-3-4.4-3c-3.2,0-5.3,2.4-5.3,5.6c0,3.5,2.5,6.1,5.5,6.1c1.5,0,3.4-0.5,4.7-2.9h0.4
				c-0.3,0.9-0.8,2.1-1.2,2.8c-1.2-0.2-2.1,0.5-4.4,0.5c-3.9,0-6.8-2.6-6.8-6.2c0-3.8,2.9-6.5,7-6.5c2.4,0,3.5,0.8,4.1,0.8
				c0.2,0,0.3-0.1,0.3-0.1H94l0.2,2.8H93.8z"/>
			<path d="M105.1,18.5c-3.8,0-7-2.4-7-6.1c0-3.9,3-6.6,7.1-6.6c3.7,0,6.8,2.5,6.8,6C112,15.7,108.9,18.5,105.1,18.5z M104.7,6.3
				c-3.4,0-4.8,3.2-4.8,5.5c0,3.6,2.5,6.2,5.6,6.2c3.2,0,4.7-2.8,4.7-5.6C110.2,8.8,107.9,6.3,104.7,6.3z"/>
			<path d="M123.8,18.1h-8.7v-0.4h0.6c0.9,0,1.2-0.3,1.2-1.3V7.9c0-1-0.3-1.5-1.5-1.5h-0.3V6.1h5.7v0.4h-0.7c-1.3,0-1.6,0.1-1.6,1.3
				v9c0,0.5,0.2,0.7,0.8,0.7h2.9c1.1,0,1.5-0.4,2.7-2.1h0.3L123.8,18.1z"/>
			<path d="M136.6,18.1h-8.7v-0.4h0.6c0.9,0,1.2-0.3,1.2-1.3V7.9c0-1-0.3-1.5-1.5-1.5h-0.3V6.1h5.7v0.4h-0.7c-1.3,0-1.6,0.1-1.6,1.3
				v9c0,0.5,0.2,0.7,0.8,0.7h2.9c1.1,0,1.5-0.4,2.7-2.1h0.3L136.6,18.1z"/>
			<path d="M149.4,13.8h-0.4c-0.2-1.4-0.5-1.5-1.3-1.5h-3.3v4.1c0,0.9,0.3,1.1,1,1.1h3c1.4,0,1.8-0.5,2.3-2.2h0.3l-0.3,2.9h-10.3
				v-0.4h0.5c1.6,0,1.8-0.4,1.8-1.6V8c0-1.1-0.3-1.6-1.6-1.6h-0.4V6.1h9.3l0.2,2.7H150c-0.3-1.7-0.7-2-1.4-2h-4.1v4.8h3.5
				c0.7,0,1-0.3,1.1-1.5h0.4V13.8z"/>
			<path d="M166.3,17.2c-1.9,1-4.4,1.2-5.2,1.2c-4.3,0-6.2-3.3-6.2-6.1c0-2.9,2-6.6,6.8-6.6c2.1,0,3.5,0.7,3.9,0.7
				c0.2,0,0.3,0,0.4-0.1h0.3v3.1h-0.4c-0.5-2.4-2.2-3.2-4-3.2c-3.4,0-5.2,2.8-5.2,6c0,4,2.8,5.7,5,5.7c0.9,0,1.9-0.2,3-0.7v-2.4
				c0-1.1-0.4-1.5-1.6-1.5h-0.7V13h5.2v0.3c-1,0.1-1.4,0.4-1.4,1.2V17.2z"/>
			<path d="M178.9,13.8h-0.4c-0.2-1.4-0.5-1.5-1.3-1.5H174v4.1c0,0.9,0.3,1.1,1,1.1h3c1.4,0,1.8-0.5,2.3-2.2h0.3l-0.3,2.9H170v-0.4
				h0.5c1.6,0,1.8-0.4,1.8-1.6V8c0-1.1-0.3-1.6-1.6-1.6h-0.4V6.1h9.3l0.2,2.7h-0.3c-0.3-1.7-0.7-2-1.4-2H174v4.8h3.5
				c0.7,0,1-0.3,1.1-1.5h0.4V13.8z"/>
			<path d="M198.8,18.5c-3.8,0-7-2.4-7-6.1c0-3.9,3-6.6,7.1-6.6c3.7,0,6.8,2.5,6.8,6C205.7,15.7,202.5,18.5,198.8,18.5z M198.4,6.3
				c-3.4,0-4.8,3.2-4.8,5.5c0,3.6,2.5,6.2,5.6,6.2c3.2,0,4.7-2.8,4.7-5.6C203.9,8.8,201.6,6.3,198.4,6.3z"/>
			<path d="M217.6,13.5h-0.3c0-1.1-0.4-1.5-1.4-1.5h-3.6v4.3c0,1.1,0.2,1.5,1.7,1.5v0.4h-4.7v-0.4c1.2-0.1,1.4-0.3,1.4-1.9V8.3
				c0-1.2-0.1-1.8-1.5-1.8V6.1h8.7v2.3h-0.3c0-1.1-0.4-1.6-1.6-1.6h-3.7v4.6h3.8c0.7,0,1.1-0.4,1.1-1.2h0.3V13.5z"/>
			<path d="M84.6,28.6c0-1.7-0.2-2.5-2.2-2.5h-1v-0.6c0.8,0,2.8-0.1,3.7-0.2c1.6-0.1,3.8-0.1,4.4-0.1c2.6,0,4.8,0.4,5.9,1.1
				c1.2,0.8,1.8,1.8,1.8,3.2c0,1.7-1.4,3.2-3.3,3.6v0.1c2.7,0.8,4.3,2.6,4.3,4.9c0,2.3-1.6,5.5-6.3,5.5H81.1v-0.6h0.7
				c2.4,0,2.9-0.6,2.9-2.4V28.6z M87,33.1h3.2c2.8,0,4.2-1.1,4.2-3.4c0-2-1.2-3.9-4.8-3.9c-0.6,0-1.8,0.1-2.6,0.1V33.1z M87,39.8
				c0,2.2,0.9,3,3.3,3c3.8,0,5-2.4,5-4.7c0-2.2-1.7-4.5-5.1-4.5H87V39.8z"/>
			<path d="M113.1,37.1h-0.6c-0.2-2.1-0.8-2.3-2-2.3h-4.9V41c0,1.3,0.5,1.6,1.6,1.6h4.5c2,0,2.7-0.8,3.4-3.3h0.5l-0.5,4.3H99.7v-0.6
				h0.8c2.3,0,2.7-0.6,2.7-2.4V28.4c0-1.6-0.4-2.3-2.3-2.3h-0.6v-0.6h14l0.2,4h-0.5c-0.4-2.5-1.1-3-2.2-3h-6.1v7.2h5.2
				c1,0,1.5-0.5,1.7-2.2h0.6V37.1z"/>
			<path d="M122.7,35v5.5c0,1.9,0.4,2.6,2.3,2.6h0.1v0.6h-7.3v-0.6h0.2c1.7,0,2.3-0.5,2.3-2.1V28.1c0-1.5-0.5-2-2.1-2.1v-0.6h6.9
				v0.6c-2.1,0-2.4,0.6-2.4,2.8v5.1h11.4v-5.7c0-1.5-0.5-2.1-2.3-2.1h-0.6v-0.6h7.5v0.6c-1.7,0.1-2.2,0.6-2.2,2.4v12.1
				c0,2.1,0.6,2.5,2.3,2.5h0.3v0.6h-8.2v-0.6h0.9c1.9,0,2.3-0.7,2.3-2.2V35H122.7z"/>
			<path d="M145.5,35.6l-1.7,4.6c-0.2,0.6-0.6,1.4-0.6,1.8c0,0.8,0.8,1.1,2.4,1.1h0.5v0.6h-6.7v-0.6c1.9,0,2.2-0.3,3.1-2.9l5.3-14.5
				l-0.3-0.6h2.5l6.1,16.2c0.6,1.5,1.2,1.8,2.6,1.8v0.6h-8v-0.6h0.8c1.7,0,2.3-0.2,2.3-1c0-0.5-0.2-0.9-0.3-1.2l-2-5.3H145.5z
				 M148.5,27.5l-2.5,6.8h5L148.5,27.5z"/>
			<path d="M164.1,44.1l-6.3-15.8c-0.7-1.8-1.1-2.3-2.9-2.3v-0.6h8v0.6c-2.7,0.1-3.3,0.7-2.8,2l5.2,13l4.6-12
				c0.3-0.8,0.5-1.4,0.5-1.8c0-0.9-0.7-1.2-2.7-1.2v-0.6h6.8v0.6c-1.5,0-2.3,0.7-3,2.5l-6,15.5H164.1z"/>
			<path d="M183.2,43.6h-7.1v-0.6c1.8-0.1,2.2-0.6,2.2-2.5V28.2c0-1.6-0.6-2-2.2-2.1v-0.6h7.1v0.6c-1.8,0-2.5,0.4-2.5,2.4v12.4
				c0,1.7,0.5,2.3,2.5,2.3V43.6z"/>
			<path d="M195.5,44.1c-5.7,0-10.5-3.7-10.5-9.1c0-5.8,4.5-9.9,10.7-9.9c5.5,0,10.2,3.8,10.2,9C205.8,40,201.1,44.1,195.5,44.1z
				 M194.9,25.8c-5.1,0-7.2,4.8-7.2,8.3c0,5.4,3.7,9.3,8.4,9.3c4.7,0,7-4.2,7-8.3C203.1,29.6,199.7,25.8,194.9,25.8z"/>
			<path d="M224.8,44c-2.2,0-4-0.4-6.6-4.4c-0.4-0.6-2-3.2-2.4-3.6h-3.9v3.9c0,2.5,0.2,3.2,3.1,3.2v0.5h-8.3v-0.5
				c2.8,0,2.8-0.8,2.8-3.3V28.1c0-1.5-0.4-2-2.8-2v-0.5c2.4-0.2,4.9-0.3,7.4-0.3c2.3,0,3.6,0.3,4.9,0.9c1.2,0.6,2.9,1.9,2.9,4.3
				c0,0.8-0.3,3.5-3.8,4.7l3.6,5.4c1.3,2,2.3,2.8,3.2,2.9V44z M211.9,35.5h1.2c1.3,0,2.2,0,3.2-0.3c2-0.6,2.8-2.8,2.8-4.6
				c0-1.2-0.4-3.2-2.3-4.1c-1.4-0.7-3.2-0.6-4.8-0.6V35.5z"/>
			<path d="M230.6,35.6l-1.7,4.6c-0.2,0.6-0.6,1.4-0.6,1.8c0,0.8,0.8,1.1,2.4,1.1h0.5v0.6h-6.7v-0.6c1.9,0,2.2-0.3,3.1-2.9l5.3-14.5
				l-0.3-0.6h2.5l6.1,16.2c0.6,1.5,1.2,1.8,2.7,1.8v0.6h-8v-0.6h0.8c1.7,0,2.3-0.2,2.3-1c0-0.5-0.2-0.9-0.3-1.2l-2-5.3H230.6z
				 M233.6,27.5l-2.5,6.8h5L233.6,27.5z"/>
			<path d="M257.6,43.6h-13v-0.6h1c1.3,0,1.8-0.4,1.8-1.9V28.3c0-1.5-0.5-2.2-2.3-2.2h-0.4v-0.6h8.6v0.6h-1.1c-1.9,0-2.4,0.2-2.4,2
				v13.4c0,0.8,0.3,1.1,1.2,1.1h4.3c1.7,0,2.2-0.7,4.1-3.2h0.5L257.6,43.6z"/>
			<path d="M289,31.5V32c-1.6,0-2.1,0.1-2.5,0.6c-0.6,0.6-2,3.6-4.4,6.3c1.6,2.5,2.1,4.2,3.5,4.2c0.6,0,1.3-0.3,2.3-1l0.3,0.5
				c-1.3,1-2.5,1.5-3.6,1.5c-1.8,0-2.3-0.7-3.9-3.6c-2.2,2.3-4.6,3.6-6.6,3.6c-2.7,0-4.7-2.1-4.7-4.8c0-2.4,1.4-3.9,5.1-5.4
				c-1.3-1.1-2.1-2.5-2.1-3.8c0-2,1.6-3.4,4-3.4c2.2,0,3.7,1.2,3.7,2.8c0,1.3-1.2,2.7-3.3,3.7c1.9,1.3,3.7,3.1,5.1,5.2
				c1.4-1.7,3.6-5,3.6-5.8c0-0.4-0.3-0.6-1.6-0.6v-0.5H289z M275.3,42.6c1.7,0,3.9-1.1,5.1-2.7c-1.3-2.2-3.1-4.1-5.5-5.8
				c-2.2,1.5-3.1,2.9-3.1,4.7C271.8,41.1,273.2,42.6,275.3,42.6z M276.2,27.2c-1.2,0-1.9,0.8-1.9,2.1c0,1.2,0.7,2.4,2.2,3.5
				c1.3-0.8,1.9-1.7,1.9-3.1C278.3,28.2,277.5,27.2,276.2,27.2z"/>
			<path d="M82.9,64.7c0.6,2.6,2.6,4.1,4.9,4.1c2,0,4-1.1,4-3.4c0-4.2-9.3-5.5-9.3-10.6c0-2.4,2.2-4.2,5.2-4.2c2.4,0,2.9,0.7,4,0.7
				c0.2,0,0.3-0.1,0.5-0.3h0.5l0.5,3.7h-0.5c-0.8-2.1-2.7-3.4-4.7-3.4c-1.9,0-3.3,1.1-3.3,2.7c0,4.1,9.4,5.2,9.4,10.6
				c0,2.9-2.5,5-5.9,5c-1.6,0-3.6-0.8-4-0.8c-0.3,0-0.5,0.1-0.6,0.3H83l-0.6-4.4H82.9z"/>
			<path d="M106.4,69.6c-5.7,0-10.5-3.7-10.5-9.1c0-5.8,4.5-9.9,10.7-9.9c5.5,0,10.2,3.8,10.2,9C116.8,65.4,112.1,69.6,106.4,69.6z
				 M105.8,51.3c-5.1,0-7.2,4.8-7.2,8.3c0,5.4,3.7,9.3,8.4,9.3c4.7,0,7-4.2,7-8.3C114.1,55.1,110.6,51.3,105.8,51.3z"/>
			<path d="M136.3,55.8c-1-2.7-3.5-4.5-6.6-4.5c-4.9,0-7.9,3.5-7.9,8.4c0,5.3,3.8,9.1,8.2,9.1c2.3,0,5.1-0.8,7.1-4.3h0.6
				c-0.4,1.3-1.2,3.1-1.9,4.3c-1.9-0.3-3.1,0.8-6.6,0.8c-5.9,0-10.2-3.9-10.2-9.3c0-5.7,4.4-9.7,10.5-9.7c3.7,0,5.2,1.2,6.1,1.2
				c0.3,0,0.5-0.1,0.5-0.2h0.4l0.3,4.2H136.3z"/>
			<path d="M147.1,69.1h-7.1v-0.6c1.8-0.1,2.2-0.6,2.2-2.5V53.7c0-1.6-0.6-2-2.2-2.1V51h7.1v0.6c-1.8,0-2.5,0.4-2.5,2.4v12.4
				c0,1.7,0.5,2.3,2.5,2.3V69.1z"/>
			<path d="M154.7,61.1l-1.7,4.6c-0.2,0.6-0.6,1.4-0.6,1.8c0,0.8,0.8,1.1,2.4,1.1h0.5v0.6h-6.7v-0.6c1.9,0,2.2-0.3,3.1-2.9l5.3-14.5
				l-0.3-0.6h2.5l6.1,16.2c0.6,1.5,1.2,1.8,2.6,1.8v0.6h-8v-0.6h0.8c1.7,0,2.3-0.2,2.3-1c0-0.5-0.2-0.9-0.3-1.2l-2-5.3H154.7z
				 M157.7,53l-2.5,6.8h5L157.7,53z"/>
			<path d="M181.8,69.1h-13v-0.6h1c1.3,0,1.8-0.4,1.8-1.9V53.7c0-1.5-0.5-2.2-2.3-2.2h-0.4V51h8.6v0.6h-1.1c-1.9,0-2.4,0.2-2.4,2V67
				c0,0.8,0.3,1.1,1.2,1.1h4.3c1.7,0,2.2-0.7,4.1-3.2h0.5L181.8,69.1z"/>
			<path d="M194.2,64.7c0.6,2.6,2.6,4.1,4.9,4.1c2,0,4-1.1,4-3.4c0-4.2-9.3-5.5-9.3-10.6c0-2.4,2.2-4.2,5.2-4.2c2.4,0,2.9,0.7,4,0.7
				c0.2,0,0.3-0.1,0.5-0.3h0.5l0.5,3.7h-0.5c-0.8-2.1-2.7-3.4-4.7-3.4c-1.9,0-3.3,1.1-3.3,2.7c0,4.1,9.3,5.2,9.3,10.6
				c0,2.9-2.5,5-5.9,5c-1.6,0-3.6-0.8-4-0.8c-0.3,0-0.5,0.1-0.6,0.3h-0.5l-0.6-4.4H194.2z"/>
			<path d="M224.8,55.8c-1-2.7-3.5-4.5-6.6-4.5c-4.9,0-7.9,3.5-7.9,8.4c0,5.3,3.8,9.1,8.2,9.1c2.3,0,5.1-0.8,7.1-4.3h0.6
				c-0.4,1.3-1.2,3.1-1.9,4.3c-1.9-0.3-3.1,0.8-6.6,0.8c-5.9,0-10.2-3.9-10.2-9.3c0-5.7,4.4-9.7,10.5-9.7c3.7,0,5.2,1.2,6.1,1.2
				c0.3,0,0.5-0.1,0.5-0.2h0.4l0.3,4.2H224.8z"/>
			<path d="M235.6,69.1h-7.1v-0.6c1.8-0.1,2.2-0.6,2.2-2.5V53.7c0-1.6-0.6-2-2.2-2.1V51h7.1v0.6c-1.8,0-2.5,0.4-2.5,2.4v12.4
				c0,1.7,0.5,2.3,2.5,2.3V69.1z"/>
			<path d="M251.3,62.6h-0.6c-0.2-2.1-0.8-2.3-2-2.3h-4.9v6.2c0,1.3,0.5,1.6,1.6,1.6h4.5c2,0,2.7-0.8,3.4-3.3h0.5l-0.5,4.3h-15.5
				v-0.6h0.8c2.3,0,2.7-0.6,2.7-2.4V53.9c0-1.6-0.4-2.3-2.3-2.3h-0.6V51h14l0.2,4h-0.5c-0.4-2.5-1.1-3-2.2-3h-6.1v7.2h5.2
				c1,0,1.5-0.5,1.7-2.2h0.6V62.6z"/>
			<path d="M274.8,69.3l-15.1-15.8V66c0,2.1,0.5,2.5,2.9,2.5v0.6h-6.8v-0.6h0.1c1.8,0,2.4-0.6,2.4-2V52.3c-0.7-0.5-1.4-0.7-2.4-0.7
				V51h4.6l13.7,14.3V53.7c0-1.8-0.5-2.1-2.9-2.2V51h6.8v0.6c-2.2,0-2.7,0.4-2.7,1.5v16.3H274.8z"/>
			<path d="M296.1,55.8c-1-2.7-3.5-4.5-6.6-4.5c-4.9,0-7.9,3.5-7.9,8.4c0,5.3,3.8,9.1,8.2,9.1c2.3,0,5.1-0.8,7.1-4.3h0.6
				c-0.4,1.3-1.2,3.1-1.9,4.3c-1.9-0.3-3.1,0.8-6.6,0.8c-5.9,0-10.2-3.9-10.2-9.3c0-5.7,4.4-9.7,10.5-9.7c3.7,0,5.2,1.2,6.1,1.2
				c0.3,0,0.5-0.1,0.5-0.2h0.4l0.3,4.2H296.1z"/>
			<path d="M312.1,62.6h-0.6c-0.2-2.1-0.8-2.3-2-2.3h-4.9v6.2c0,1.3,0.5,1.6,1.6,1.6h4.5c2,0,2.7-0.8,3.4-3.3h0.5l-0.5,4.3h-15.5
				v-0.6h0.8c2.3,0,2.7-0.6,2.7-2.4V53.9c0-1.6-0.4-2.3-2.3-2.3h-0.6V51h14l0.2,4h-0.5c-0.4-2.5-1.1-3-2.2-3h-6.1v7.2h5.2
				c1,0,1.5-0.5,1.7-2.2h0.6V62.6z"/>
			<path d="M317.7,64.7c0.6,2.6,2.7,4.1,4.9,4.1c2,0,4-1.1,4-3.4c0-4.2-9.4-5.5-9.4-10.6c0-2.4,2.2-4.2,5.2-4.2c2.4,0,2.9,0.7,4,0.7
				c0.2,0,0.3-0.1,0.5-0.3h0.5l0.5,3.7h-0.5c-0.8-2.1-2.7-3.4-4.7-3.4c-1.9,0-3.3,1.1-3.3,2.7c0,4.1,9.3,5.2,9.3,10.6
				c0,2.9-2.5,5-5.9,5c-1.6,0-3.6-0.8-4-0.8c-0.3,0-0.5,0.1-0.6,0.3h-0.5l-0.6-4.4H317.7z"/>
		</g>
	</g>
	<g>
		<g>
			<g>
				<g>
					
						<radialGradient id="SVGID_1_" cx="38.1318" cy="38.4602" r="22.997" gradientTransform="matrix(1 0 0 1 -0.7207 2.601006e-04)" gradientUnits="userSpaceOnUse">
						<stop  offset="0" style="stop-color:#FFFFFF"/>
						<stop  offset="0.5149" style="stop-color:#FCFCFC"/>
						<stop  offset="0.7003" style="stop-color:#F5F5F5"/>
						<stop  offset="0.8325" style="stop-color:#EBEBEC"/>
						<stop  offset="0.9387" style="stop-color:#DDDEDF"/>
						<stop  offset="1" style="stop-color:#D1D3D4"/>
					</radialGradient>
					<path class="st0" d="M37.4,61.5c-12.7,0-23-10.3-23-23c0-12.7,10.3-23,23-23c12.7,0,23,10.3,23,23
						C60.4,51.1,50.1,61.5,37.4,61.5z"/>
				</g>
				<g>
					<path class="st1" d="M37.4,61.5c-12.7,0-23-10.3-23-23c0-12.7,10.3-23,23-23c12.7,0,23,10.3,23,23
						C60.4,51.1,50.1,61.5,37.4,61.5z M37.4,15.8c-12.5,0-22.7,10.2-22.7,22.7c0,12.5,10.2,22.7,22.7,22.7
						c12.5,0,22.7-10.2,22.7-22.7C60.1,25.9,49.9,15.8,37.4,15.8z"/>
				</g>
				<path class="st2" d="M60.3,38c0,0.1-0.4,0.4-0.8,0.7c0,0,0,0,0,0c-0.6,0.3-1.4,0.6-2.5,0.9c-1.1,0.3-2.4,0.5-3.8,0.8
					c-1.4,0.2-3.1,0.4-4.8,0.5c0,0,0,0,0,0c-2.2,0.2-3.6,0.3-5.4,0.4c-1.9,0.1-3.8,0.1-5.8,0.1c0,0.3,0,0.5,0,0.8c0,1.8,0,3.5,0,5.1
					c0,8.8,0.1,8.8,0.3,14.1c12.6,0,22.8-10.2,22.8-22.8C60.3,38.5,60.3,38.1,60.3,38z"/>
				<g>
					<path d="M37.1,42.1c0,1.8,0,3.5,0,5.1c3.7,3.5,3.7,3.5,5.2,5c0.4-2.9,0.6-6.4,0.6-10.2c0-0.3,0-0.5,0-0.8
						c-2.3,0.1-3.8,0.1-5.8,0.1C37.1,41.6,37.1,41.9,37.1,42.1z"/>
					<path d="M45.5,56.1c-0.8-1.3-1.5-2.2-3.2-3.9c-0.8,5.6-2.2,9-3.9,9.1c0.1,0,0.4,0,0.5,0c0.2,0,0.4,0,0.6,0
						C41.9,61,43.9,59.2,45.5,56.1z"/>
					<path d="M48,46.8c0,0-1.3,6.9-2.6,9.3c0.7,1.4,0.7,1.9,0.5,2.8c2.2-1.7,4-4.2,5.3-7.4C50.4,49.9,49.9,49.1,48,46.8z"/>
					<path d="M41.5,60.9c0.5-0.1,0.5-0.1,1.4-0.3l0.5-0.2c1.7-0.5,2-0.8,2.5-1.6c-1.5,1.1-3.1,1.8-4.9,2.1L41.5,60.9z"/>
					<path d="M51.6,55.3c3.3-3.7,5.3-9,5.3-15c0-0.3,0-0.5,0-0.8c-1.1,0.3-2.4,0.5-3.8,0.8c0,0.3,0,0.5,0,0.8
						c0,3.9-0.7,7.5-1.9,10.5C51.9,53.3,51.9,54,51.6,55.3z"/>
					<path d="M48.3,40.9c-2.2,0.2-3.6,0.3-5.4,0.4c3.1,3.3,3.8,4,5.1,5.5c0.2-1.6,0.3-3.3,0.3-5.1C48.3,41.4,48.3,41.1,48.3,40.9z"
						/>
				</g>
				<path d="M32.4,16.8c1.3-0.5,2.5-1,5-1.2l0,0C35.7,15.8,34,16.2,32.4,16.8"/>
				<g>
					<path class="st3" d="M52.7,40.3c-1.2-0.2-2.2-2.2-1.7-4.2c-1.7,1.2-3.6-1.2-3.3-3.4c0.1-1.2,0.9-2.2,2.2-1.7
						c-0.5-1.9-1.2-3.6-2-5.2c-1.2,0.1-2.5,0.3-3.9,0.4c1.2,1.8,0,3.6-1.7,3.3c-1.2-0.2-2.4-1.5-2.1-3c-1,0.7-3.1,0.4-3.2-1.8
						c-0.1,4.6-0.1,10.6-0.1,16.8c6.1,0.1,13.2-0.6,16-1c0,0,0,0,0,0C53,40.3,52.8,40.3,52.7,40.3z"/>
				</g>
				<g>
					<path class="st3" d="M22.7,44.9c1.7-0.7,3.8,2.3,3.1,4.2c-0.3,0.9-1.2,1.2-2.2,0.6c0.5,1.7,1.2,3.3,1.9,4.7
						c1.2,0.2,2.5,0.3,4,0.4c-1.2-1.5-0.2-2.7,1.3-2.6c1.4,0.1,3.2,1.2,2.8,2.7c1.2-0.6,3.3-0.1,3.5,1.5c-0.1-3.4-0.1-8.5-0.1-14.4
						c0-0.3,0-0.5,0-0.8c-1.9,0-3.9-0.1-5.8-0.1c-4.1-0.2-6.9-0.4-10.4-1c0,0,0,0,0,0C22.6,40.8,23.1,43.4,22.7,44.9z"/>
				</g>
				<path class="st3" d="M48.2,23.9L48.2,23.9L48.2,23.9C48.2,23.9,48.2,23.9,48.2,23.9L48.2,23.9L48.2,23.9c0.3,0,0.5-0.1,0.7-0.1
					c1.3-0.2,4.3-1,4.3-1.8c0,0,1.2,1.2,2,2.8c0.1,0.2,0.2,0.3,0.3,0.6c0.1,0.3,0.2,0.6,0.2,0.8c0,0.5-0.4,0.5-0.7,0.4
					c0,0-0.1,0-0.1,0c-1.2-0.5-1.6-1.6-1.8-2c-0.6,0.2-1.6,0.6-2.4,0.8c-0.1,0-0.3,0.1-0.4,0.1c1,1.6,1.9,3.5,2.6,5.3
					c1.2-1.2,3,1,3,3.1c0.1,1.2-0.5,2.4-1.6,2c0.9,1.7,0.6,4.2-1.1,4.7C52.8,34.8,51.9,29.9,48.2,23.9L48.2,23.9L48.2,23.9"/>
				<path class="st3" d="M48.2,23.9L48.2,23.9L48.2,23.9L48.2,23.9L48.2,23.9c-2.9-4.4-5.2-6.1-8.2-7.2c-0.6-0.2-2.6-1-2.7-1l0,0
					l0,0c0.5,0.8,1.6,1.2,1.8,1.3c-0.1,0.3,0,0.8,0.9,1.5c0.1,0.1,0.3,0.2,0.4,0.3c1.5,0.8,1.8,0.2,1.9-0.1c0,0,0,0,0,0
					c0.5,0.3,1.3,1,2.3,2.1c0.6,0.7,1.1,1.3,1.5,1.9c-0.9,0.1-2.1,0.2-3.3,0.3c-0.1-1.5-1.1-2.2-1.8-2.4c-1.4-0.5-1.9,1.2-1.3,2.4
					c-1.1-0.6-2.5-0.1-2.7,1.7C41.7,24.6,44.8,24.4,48.2,23.9L48.2,23.9L48.2,23.9"/>
				<path class="st3" d="M48.5,19.7c0,0,0-0.1,0-0.2c0-0.1,0.1-0.1,0.1-0.1s0-0.1,0.1-0.1c0.2-0.1,0.9-0.2,2.8,1.1
					c-4-3.1-8.2-4.4-11.8-4.8c-0.5-0.1-1.5-0.1-1.5-0.1c1.2,0.1,1.9,0.4,2.1,0.5c0.1,0.1,0.3,0.1,0.3,0.2c0,0,0,0,0,0
					c0.2,0,0.5,0.1,0.8,0.2c0.4,0.1,0.9,0.3,1.5,0.6c0.5,0.2,1.3,0.8,1.3,1.1c-0.1,0.1-0.2,0.1-0.5,0c1.4,1,3.3,2.8,4.4,4.1
					c0.8-0.1,2-0.3,2.5-0.5C50.6,21.8,48.9,20.5,48.5,19.7z"/>
				<path class="st3" d="M25.3,55.7c-2-0.4-3.1-0.6-3.8-1c-0.1-0.1-0.2-0.1-0.2-0.1c0,0-1.1-1.1-2.1-2.4c-0.7-0.9-1.3-1.9-1.4-2
					c0,0,0.2,0,0.3,0c1,0.3,2.6,3.1,2.6,3.2c0.6,0.2,1.5,0.5,2.5,0.7c-0.9-1.4-1.7-3-2.3-4.7c-1.4,0.7-3.2-3-2.7-4.6
					c0.1-0.3,0.5-1,1.5-0.3c-0.7-1.7-0.5-4.2,1.2-4.2C20.9,45.8,21.7,50.6,25.3,55.7"/>
				<path class="st3" d="M37.2,56.8c-0.2,0.8-1.3,1.5-2.9,0.9c0.7,1,0.1,1.8-1.2,1.6c-1-0.2-2.2-1-2.3-1.8c-1.2-0.1-2.4-0.2-3.4-0.4
					c1,1.1,2,2,3.2,2.7c0.1-0.1,0.4,0,1,0.2c0.9,0.3,1.7,0.7,2.6,1c0,0-0.2,0-0.2,0c-0.7-0.1-0.8-0.1-1.2-0.2
					c-1.7-0.3-4.6-1.3-7.6-5.1h0h0l0,0c3.5,0.5,7,0.8,11.9,0.8C37.2,56.6,37.2,56.7,37.2,56.8"/>
				<path class="st2" d="M37.4,15.6c-12.2,0-22.6,10-22.8,22.4l0,0c0,0,0.1,0.3,0.6,0.6v0v0c0.5,0.3,1.2,0.6,2.1,0.9
					c1.2,0.3,2.4,0.5,3.5,0.7l0,0c3.5,0.6,6.3,0.8,10.4,1c1.9,0.1,3.9,0.2,5.8,0.1c0-1.2,0-7.8,0-14.2c0-0.8,0-1.7,0-2.6
					C37.2,20.4,37.3,16.2,37.4,15.6L37.4,15.6z"/>
				<path d="M48.3,58.5C47,59.3,46.8,59.3,45,60c-0.5,0.2-0.9,0.3-1.4,0.5c3.1-0.8,7.3-4.3,8-5.1c-0.4,0.8-0.7,1.4-1.6,2.1
					C49.8,57.7,48.7,58.3,48.3,58.5z"/>
				<path d="M17.3,39.5c-1-0.2-1.6-0.6-2.1-0.9C15.4,30.3,20,23,26.7,19c-1.6,1.4-2.3,2.2-3.1,4.1C19.9,27.4,17.5,33.2,17.3,39.5"/>
				<path d="M26.7,19c1.7-1.2,2.6-2.1,5.3-2.7c1.9-0.4,3.5-0.6,5.3-0.6l0,0C33.5,15.8,29.9,17.1,26.7,19"/>
				<path d="M25.5,40.8c-1.7-0.2-3.2-0.4-4.7-0.6c0.1-4.1,1-8.1,2.5-11.6c0.6,2.3,1.1,3.6,2.7,6.3C25.7,36.8,25.6,38.8,25.5,40.8"/>
				<path d="M37.1,24.6c0,2.5,0,5.1,0,7.1c0,2,0,3.4,0,3.7c-2.2-2.4-3.5-3.7-5.1-5.8c1.1-7.1,3.1-12.7,5.4-14l0,0l0,0
					C37.3,16.3,37.2,20.3,37.1,24.6z"/>
				<g>
					<path d="M29.1,24.3c-1.4,3-2.5,6.7-3.1,10.6c1.4,2.1,2.3,3.3,5,6.3c0-4.1,0.4-8,0.9-11.6C30.3,27.3,29.8,26.2,29.1,24.3z"/>
				</g>
				<path d="M59.4,38.7c0,0.3,0,0.5,0,0.8c0,8.1-3.9,14.8-10.1,18.5l-0.2,0.1c2.9-1.8,6.6-4.8,8.9-9.8c2.5-4.9,2.2-10.3,2.2-10.3
					C60.1,38.2,59.8,38.5,59.4,38.7z"/>
				<g>
					<path d="M32.4,16.8c-3.3,1.3-6.3,3.5-8.8,6.3c-0.7,2.1-0.7,3.2-0.3,5.5c1.5-3.5,3.6-6.5,6-8.7C30.1,18.6,30.5,17.8,32.4,16.8z"
						/>
				</g>
				<path d="M29.1,24.3c-0.4-1.9-0.4-2.8,0.2-4.4c2.4-2.2,5.1-3.8,8.1-4.3C34.2,16.5,31.3,19.8,29.1,24.3"/>
			</g>
			<g>
				<g>
					<path d="M12,23.5l-1.9-0.9c-0.4-0.2-0.5-0.4-0.3-0.9l0-0.1l-0.3-0.1l-0.9,1.8L9,23.4l0-0.1c0.2-0.3,0.3-0.5,0.5-0.5
						c0.1,0,0.3,0.1,0.6,0.2l1.6,0.8c1.2,0.6,1,1.5,0.7,2.2c-0.3,0.7-0.8,1-1.4,1c-0.3,0-0.5-0.1-0.8-0.2l-1.9-1
						c-0.3-0.2-0.4-0.3-0.2-0.7l0.1-0.1l-0.3-0.1L6.9,27l0.3,0.1l0-0.1c0.2-0.3,0.3-0.4,0.4-0.4c0.1,0,0.2,0,0.3,0.1l2,1
						c0.3,0.2,0.6,0.2,0.9,0.2c0.8,0,1.5-0.5,1.9-1.4C13.6,25,12.9,24,12,23.5z"/>
					<path d="M14.4,16.2c0-0.1,0.1-0.3,0.3-0.5l0-0.1l-0.2-0.2l-1.3,1.5l0.2,0.2l0,0c0.2-0.3,0.4-0.4,0.5-0.4c0.1,0,0.2,0.1,0.3,0.2
						l2.2,1.9l-5.1,0.3l-0.8,1l0.2,0.2l0,0c0.2-0.2,0.3-0.3,0.5-0.3l2.9,2.4c0.2,0.2,0.3,0.4,0,0.7l-0.1,0.1l0.2,0.2l1.2-1.5
						l-0.2-0.2l0,0.1C15.1,21.9,15,22,14.9,22l0,0c-0.1,0-0.2-0.1-0.4-0.2l-2.4-2l5.7-0.4l0.2-0.2l-3.4-2.8
						C14.4,16.3,14.4,16.2,14.4,16.2z"/>
					<path d="M20.3,16.7c-0.2,0.2-0.3,0.2-0.4,0.2c-0.1,0-0.2-0.1-0.4-0.3l-2.1-2.5c-0.3-0.4-0.2-0.5,0.1-0.8l0.1,0l-0.2-0.2
						l-1.6,1.3l0.2,0.2l0.1,0c0.2-0.1,0.3-0.2,0.4-0.2c0.1,0,0.2,0.1,0.3,0.2l2.1,2.5c0.3,0.4,0.3,0.5,0,0.8l0,0l0.2,0.2l1.6-1.3
						L20.3,16.7L20.3,16.7z"/>
					<path d="M23.3,9.6L23.3,9.6l-0.1-0.3l-1.7,1l0.1,0.2l0.1,0c0.2-0.1,0.4-0.2,0.5-0.2c0.1,0,0.1,0,0.2,0.1c0,0.1,0.1,0.2,0.1,0.5
						l0.5,3.2l-2.8-2.2c-0.1-0.1-0.2-0.2-0.2-0.2c0-0.1,0.2-0.3,0.5-0.5l0.1,0l-0.1-0.2l-2,1.1l0.1,0.2l0.1,0
						c0.2-0.1,0.3-0.1,0.4-0.1c0.1,0,0.3,0.1,0.5,0.3l3.6,2.8l0.4-0.2L23,10.5C22.9,10,23,9.8,23.3,9.6z"/>
					<path d="M29.7,10.9L29.7,10.9c0,0.8-0.1,0.9-0.5,1.1L28,12.4c-0.1,0-0.2,0-0.2,0c-0.1,0-0.2,0-0.2-0.3L27,10.6l1.2-0.4
						c0.1,0,0.2,0,0.2,0c0.1,0,0.2,0.1,0.4,0.4l0,0.1l0.3-0.1l-0.5-1.5l-0.3,0.1l0,0.1c0.1,0.4,0,0.5-0.2,0.6l-1.2,0.4l-0.6-1.7
						l1.5-0.5c0.1,0,0.1,0,0.2,0c0.1,0,0.3,0.1,0.6,0.6l0,0.1l0.3-0.1l-0.5-1.1l-3.6,1.3L24.8,9L25,8.9c0.1,0,0.2-0.1,0.3-0.1
						c0.2,0,0.3,0.1,0.4,0.4l1.1,3.1c0.1,0.2,0.1,0.4,0,0.5c-0.1,0.1-0.2,0.2-0.5,0.3l-0.3,0.1l0.1,0.3l4-1.4l-0.3-1.3L29.7,10.9z"
						/>
					<path d="M37.1,10.8c-0.5,0-1-0.1-1.6-0.6l-0.7-0.5c-0.3-0.3-0.6-0.5-0.9-0.6c0.6-0.3,0.9-0.8,0.8-1.4c-0.1-0.9-1-1.3-2.3-1.2
						c-0.5,0.1-0.7,0.1-1,0.1c-0.1,0-0.2,0-0.3,0.1c-0.3,0-0.5,0.1-0.6,0.1l-0.1,0l0,0.3l0.2,0c0.1,0,0.1,0,0.2,0
						c0.2,0,0.4,0.1,0.4,0.5l0.4,3.2c0.1,0.5-0.1,0.6-0.5,0.6l-0.2,0l0,0.3l2.3-0.3l0-0.3l-0.2,0c-0.1,0-0.1,0-0.2,0
						c-0.2,0-0.4-0.1-0.4-0.5l-0.1-1.2c0.1,0,0.2,0,0.3,0c0.2,0,0.3,0,0.5-0.1h0c0.1,0.1,0.4,0.2,0.8,0.6l0.6,0.4
						c0.8,0.6,1.2,0.9,2.5,0.6l0.1,0L37.1,10.8L37.1,10.8z M33.9,7.8c0,0.4,0,0.7-0.2,0.9c-0.2,0.2-0.5,0.4-1,0.5l-0.1,0
						c-0.1,0-0.2,0-0.3,0L32,6.8c0.1,0,0.2,0,0.3,0C33.3,6.7,33.8,7,33.9,7.8z"/>
					<path d="M40,8.3c-0.5-0.4-1-0.8-1-1.2c0-0.4,0.4-0.6,0.9-0.6c0.5,0,1,0.4,1.1,1l0,0l0.3,0l-0.1-1.1l-0.2,0l0,0c0,0-0.1,0-0.1,0
						h0c-0.1,0-0.2,0-0.3-0.1c-0.2-0.1-0.4-0.2-0.8-0.2c-0.8-0.1-1.5,0.4-1.5,1.1C38.2,8,38.9,8.5,39.5,9c0.5,0.4,1.1,0.8,1,1.3
						c0,0.6-0.6,0.8-1.1,0.8c-0.6,0-1.1-0.5-1.2-1.1l0-0.1l-0.3,0l0.1,1.3l0.2,0l0,0c0,0,0,0,0.1,0h0c0,0,0.1,0,0.2,0.1
						c0.2,0.1,0.6,0.2,0.8,0.2c0.1,0,0.1,0,0.2,0h0c0.9,0,1.5-0.5,1.6-1.3C41.3,9.3,40.6,8.8,40,8.3z"/>
					<path d="M43.3,7L43.3,7c0.5,0.1,0.5,0.2,0.5,0.6L43,10.8c-0.1,0.4-0.2,0.5-0.4,0.5c-0.1,0-0.1,0-0.2,0l-0.1,0l-0.1,0.3l2,0.4
						l0.1-0.3l-0.1,0c-0.2-0.1-0.4-0.1-0.4-0.2c-0.1-0.1-0.1-0.2,0-0.4l0.7-3.2c0.1-0.4,0.2-0.5,0.4-0.5c0.1,0,0.2,0,0.3,0l0.1,0
						l0.1-0.3l-2-0.4L43.3,7z"/>
					<path d="M51.3,9.2C51.3,9.2,51.3,9.2,51.3,9.2c-0.1,0-0.1,0-0.2,0l-3.5-1.4c0,0-0.1,0-0.1-0.1c0,0,0,0,0-0.1l0-0.1l-0.2-0.1
						l-0.6,1.2l0.3,0.1l0,0c0.3-0.4,0.4-0.6,0.6-0.6c0,0,0.1,0,0.2,0l1.2,0.5l-1.4,3.5c-0.1,0.3-0.2,0.3-0.4,0.3
						c-0.1,0-0.2,0-0.3-0.1l-0.3-0.1l-0.1,0.3l2.4,1l0.1-0.3l-0.3-0.1c-0.2-0.1-0.3-0.2-0.4-0.3c0-0.1,0-0.2,0-0.4L49.6,9l1.2,0.5
						c0.2,0.1,0.3,0.3,0.2,0.9l0,0.1l0.3,0.1l0.4-1.3L51.3,9.2L51.3,9.2z"/>
					<path d="M55.9,12.3L55.9,12.3c0.3,0.2,0.4,0.3,0.4,0.4c0,0.1-0.1,0.2-0.3,0.2l-1.8,0.9l0-2.2c0-0.3,0.1-0.3,0.1-0.3
						c0.1,0,0.2,0.1,0.4,0.2l0.1,0l0.2-0.2l-1.8-1.2l-0.2,0.2l0.1,0c0.4,0.3,0.5,0.4,0.5,1.1L53.4,14l-0.6,0.9
						c-0.2,0.3-0.4,0.3-0.7,0.1l-0.2-0.1l-0.2,0.2l1.9,1.3l0.2-0.2l-0.1-0.1c-0.2-0.1-0.3-0.2-0.3-0.3c0-0.1,0-0.2,0.1-0.4l0.6-1
						l2.3-1.1c0.2-0.1,0.4-0.1,0.5-0.1c0.2,0,0.3,0.1,0.6,0.2l0.1,0l0.2-0.2l-1.6-1L55.9,12.3z"/>
					<path d="M63.4,19c-0.6-0.8-1.4-1.2-2.3-1.2c-0.6,0-1.1,0.2-1.6,0.6c-1.1,0.9-1.2,2.5-0.2,3.8c0.6,0.7,1.4,1.2,2.3,1.2h0
						c0.6,0,1.2-0.2,1.6-0.6C64.2,21.9,64.3,20.2,63.4,19z M63.4,20.5c-0.1,0.6-0.4,1.2-1,1.6c-0.5,0.3-1,0.5-1.5,0.5
						c-0.5,0-1-0.2-1.3-0.7c-0.7-1-0.5-2.3,0.6-3.2c0.4-0.3,1-0.5,1.5-0.5c0.5,0,1,0.2,1.4,0.7C63.3,19.5,63.5,20,63.4,20.5z"/>
					<path d="M66,23.1l-0.3,0.1l0,0.1c0.2,0.4,0.1,0.5-0.4,0.7l-2.7,1.3c-0.2,0.1-0.4,0.2-0.5,0.2c-0.1,0-0.2-0.1-0.3-0.3l0-0.1
						l-0.2,0.1l0.9,1.8l0.3-0.1l0-0.1c-0.1-0.2-0.2-0.4-0.1-0.5c0-0.1,0.1-0.2,0.3-0.3l1.5-0.7l0.6,1.2c0.1,0.3,0.1,0.5-0.3,0.7
						l-0.1,0l0.1,0.2l1.4-0.6l-0.1-0.2l-0.1,0c-0.3,0.1-0.4,0.1-0.6-0.2l-0.6-1.3l1.5-0.7l0.6,1.3c0.2,0.4,0.1,0.6-0.3,0.8l-0.1,0
						l0.1,0.2l0.9-0.5L66,23.1z"/>
				</g>
				<path d="M10.4,57.8l2.8-5.1l0,0l-3.8,2.4c-0.4,0.3-0.3,0.6,0,1l-0.2,0.1L8,54.5l0.2-0.1C8.6,55,8.8,55,9.5,54.5l3.3-2.1
					c0.6-0.4,0.7-0.5,0.4-1l0.1-0.1l0.9,1.2l-2.6,4.9l5.4-1l0.9,1.2l-0.1,0.1c-0.3-0.4-0.4-0.5-0.7-0.3l-3.4,2.9
					c-0.7,0.6-0.7,0.6-0.2,1.2l-0.2,0.1l-1.5-2.1l0.2-0.1c0.3,0.4,0.6,0.7,1,0.3l3.4-2.8l0,0L10.5,58L10.4,57.8z"/>
				<path d="M20.2,63.2l-1.4-1l2-1.4L20.2,63.2z M20.1,63.6l-0.5,1.8c0,0.1-0.1,0.3-0.2,0.4c-0.2,0.2-0.4,0.1-0.8-0.2l-0.2-0.2
					l-0.1,0.2l2.2,1.6l0.1-0.2c-0.4-0.3-0.5-0.5-0.4-1l1.6-5.7L21.1,60l-0.1,0.2l-4.4,2.9c-0.8,0.5-0.9,0.5-1.4,0.2l-0.1,0.2
					l1.8,1.4l0.1-0.2L17,64.5c-0.4-0.3-0.6-0.6-0.4-0.8c0.1-0.1,0.4-0.3,0.5-0.4l1.4-0.9L20.1,63.6z"/>
				<path d="M26.5,63.5c0.2,0,0.3,0.1,0.5,0.1c1.4,0.5,1.6,1.3,1.3,2.2c-0.4,1.1-1.2,1.3-2.3,0.9c-0.2-0.1-0.4-0.1-0.6-0.2
					L26.5,63.5z M25.3,66.7c0.1,0.1,0.3,0.1,0.5,0.2c0.3,0.1,0.4,0.1,0.6,0.2c0.2,0.2,0.4,0.6,0.7,1.2l0.4,0.8
					c0.5,1.1,0.8,1.6,2.5,2.1l0.1-0.2c-0.7-0.3-1.2-0.8-1.5-1.6l-0.5-1c-0.3-0.6-0.5-1-0.7-1.3c0.8,0,1.5-0.4,1.8-1.1
					c0.3-1-0.2-1.9-1.9-2.6c-0.6-0.2-0.8-0.3-1.2-0.4c-0.4-0.1-1-0.3-1.2-0.4L24.8,63L25,63c0.5,0.2,0.6,0.4,0.4,1L24,68
					c-0.2,0.6-0.5,0.7-1,0.5l-0.2-0.1l-0.1,0.2l2.6,0.9l0.1-0.2l-0.2-0.1c-0.5-0.2-0.7-0.4-0.5-1L25.3,66.7z"/>
				<path d="M36.5,66.5c0.4-0.5,0.2-0.7-0.4-0.8l0-0.2l2.2,0.2l0,0.2c-0.7,0-1,0.2-1.3,0.7l-1.9,2.6L35,70.8c0,0.5,0.1,0.7,0.7,0.8
					l0.1,0l0,0.2l-2.7-0.2l0-0.2l0.2,0c0.6,0,0.8-0.2,0.9-0.6l0.1-1.4l-1.5-2.9c-0.4-0.8-0.6-1-1.3-1l0-0.2l2.6,0.2l0,0.2
					c-0.8-0.1-0.8,0.1-0.6,0.6l1.4,2.6L36.5,66.5z"/>
				<path d="M44.8,71l-4.4,0.7l0-0.2l0.3-0.1c0.4-0.1,0.6-0.3,0.5-0.7l-0.7-4.3c-0.1-0.5-0.3-0.7-0.9-0.6l-0.1,0l0-0.2l2.9-0.5
					l0,0.2L42,65.4c-0.6,0.1-0.8,0.2-0.7,0.8l0.8,4.5c0,0.3,0.2,0.3,0.5,0.3l1.4-0.2c0.6-0.1,0.7-0.4,1.2-1.3l0.2,0L44.8,71z"/>
				<path d="M49.5,66l-1.6,0.7l-0.1-2.5L49.5,66z M49.8,66.4l1.3,1.4c0.1,0.1,0.2,0.2,0.3,0.3c0.1,0.3-0.1,0.4-0.6,0.6l-0.2,0.1
					l0.1,0.2l2.5-1l-0.1-0.2C52.6,68,52.4,68,52,67.5l-4-4.3l-0.8,0.3l0.2,0.2l0.2,5.2c0,0.9,0,1.1-0.6,1.3l0.1,0.2l2.1-0.9
					l-0.1-0.2l-0.1,0.1c-0.5,0.2-0.8,0.2-0.9,0C48,69.3,48,69,48,68.8l-0.1-1.7L49.8,66.4z"/>
				<path d="M60.5,62.5l-7.4-0.9l2.7,3.3c0.5,0.5,0.7,0.6,1.3,0l0.1,0.1l-1.8,1.5l-0.1-0.1l0,0c0.5-0.4,0.5-0.7,0.2-1l-3.1-3.8
					c-0.3,0-0.5,0.1-0.8,0.3l-0.1-0.1l1.2-1l6.7,0.8l-2.5-3c-0.4-0.5-0.6-0.4-1.2,0.1l-0.1-0.1l1.8-1.5l0.1,0.1
					c-0.6,0.5-0.6,0.7-0.4,1l3.5,4.3L60.5,62.5z"/>
				<path d="M59.1,54.9c0.1-0.1,0.2-0.3,0.4-0.7c0.8-1.2,1.4-1.6,2.1-1.7c0.8-0.2,1.6,0.1,2.2,0.5c0.9,0.6,1.2,1.4,1.3,1.9
					c0.2,0.8,0,1.4-0.7,2.5c-0.4,0.7-0.6,0.6-0.9,0.4L59.1,54.9z M62.9,58.4c0.5,0.3,0.5,0.6,0.2,1L63,59.6l0.2,0.1l1.7-2.7
					c1.4-2.1,0.5-4.1-0.8-4.9c-1.4-0.9-3.1-0.6-4.5,1.6c-0.3,0.4-0.6,0.9-0.9,1.4c-0.3,0.5-0.5,0.9-0.7,1.2l0.2,0.1l0.1-0.2
					c0.3-0.5,0.5-0.5,1.1-0.2L62.9,58.4z"/>
				<path d="M5.6,36.8V41c0,0.2,0,0.3,0.3,0.3h0.4v0.1H4.5v-0.1h0.4c0.2,0,0.3-0.1,0.3-0.3v-3.7c-0.2,0.2-0.6,0.5-0.9,0.6l-0.1-0.1
					c0.4-0.3,1-0.8,1.2-1.1H5.6z"/>
				<path d="M9.9,40.4c0,0.6-0.4,1-1,1c-0.6,0-1-0.5-1-1.1c0-0.5,0.2-0.8,0.7-1.1C9.5,39.6,9.9,39.9,9.9,40.4z M10.2,37.8
					c0-0.6-0.6-1.1-1.3-1.1c-0.7,0-1.3,0.5-1.3,1.2c0,0.5,0.3,0.9,1,1.2c-0.7,0.3-1.1,0.7-1.1,1.2c0,0.7,0.6,1.2,1.4,1.2
					c0.8,0,1.4-0.6,1.4-1.3c0-0.6-0.3-1-1.1-1.3C9.9,38.6,10.2,38.3,10.2,37.8z M9.7,37.8c0,0.4-0.2,0.8-0.6,1
					C8.2,38.4,8,38.1,8,37.7c0-0.5,0.4-0.8,0.9-0.8C9.4,36.9,9.7,37.3,9.7,37.8z"/>
				<path d="M64.5,37.3h1.7c0.1,0,0.2,0,0.2-0.1h0.1l-0.1,0.6h-1.8l-0.1,1.3c0.2-0.1,0.5-0.2,0.8-0.2c0.8,0,1.5,0.7,1.5,1.5
					c0,0.9-0.7,1.6-1.7,1.6c-0.6,0-1.1-0.2-1.1-0.5c0-0.1,0.1-0.2,0.2-0.2c0.4,0,0.5,0.5,1,0.5c0.5,0,1-0.6,1-1.2
					c0-0.7-0.5-1.2-1.1-1.2c-0.3,0-0.6,0.1-0.8,0.3l-0.1-0.1L64.5,37.3z"/>
				<path d="M70.1,40.6c0,0.8-0.4,1.3-0.9,1.3c-0.5,0-1-0.4-1-1.6c0-0.2,0-0.4,0-0.5c0.4-0.4,0.8-0.4,1-0.4
					C69.8,39.3,70.1,39.8,70.1,40.6z M70.2,37.2c-1.5,0.4-2.5,1.5-2.5,2.9c0,1.1,0.6,1.9,1.5,1.9c0.8,0,1.4-0.7,1.4-1.5
					c0-0.7-0.6-1.3-1.3-1.3c-0.4,0-0.6,0.1-1,0.4c0.2-1.1,0.8-1.8,1.9-2.3L70.2,37.2z"/>
			</g>
		</g>
	</g>
</g>
</svg>
