<svg xmlns="http://www.w3.org/2000/svg" viewBox="0 0 1215.72 360"><defs><style>.cls-1{fill:#1c3360;}</style></defs><title>Asset 22</title><g id="Layer_2" data-name="Layer 2"><g id="Layer_2-2" data-name="Layer 2"><path class="cls-1" d="M155.88,0,0,90V270l155.88,90,155.88-90V90Zm110,112.8L159.44,51.33V10.25L301.59,92.32Zm-96.82,182.1a14.11,14.11,0,0,0-9.64-7.47V261.59l65.44-37.78,26.25,15.11a14.23,14.23,0,0,0-.09,1.55,14,14,0,0,0,1.48,6.25ZM53,243.11l27.71-15.9A14.07,14.07,0,0,0,97.54,230l54.79,31.63v26.15a14.12,14.12,0,0,0-8.7,7.7Zm93.49-72.62L94,140.28l58.32-33.67v60.08A14.09,14.09,0,0,0,146.49,170.49Zm-3.35,6.27a13.69,13.69,0,0,0,0,6.47l-42.29,24.26a14,14,0,0,0-9.9-4.07l-.37,0V146.49ZM104.45,213.6l42-24.08a14.09,14.09,0,0,0,5.9,3.87v60l-49.4-28.52a14,14,0,0,0,1.52-11.27Zm55-19.71a14,14,0,0,0,7.11-3.65l51.21,29.48-58.32,33.67Zm10.87-9.68a14.16,14.16,0,0,0,0-8.38l50.92-29.21v66.89Zm-3.79-14.4a14,14,0,0,0-7.08-3.62V106.61l58.43,33.74Zm-14.18-71.4L86.9,136.19,53.18,116.78l99.15-57.25Zm-68.88,44v63.17A14,14,0,0,0,77.27,221L49.78,236.77V123ZM262,226.74a14.09,14.09,0,0,0-8.27,5.48l-25.4-14.62V142.54L262,123.23Zm-37-90.48L159.44,98.41V59.54l99.33,57.35ZM152.33,51.33,46.07,112.69,10.44,92.18,152.33,10.25ZM42.68,118.93V240.84L7.1,261.25V98.45ZM45.87,247.2,142.52,303a14.1,14.1,0,0,0,9.82,11.68v35.06L10.18,267.67ZM159.44,315a14.09,14.09,0,0,0,11.09-12.73l86.74-50.08a14.06,14.06,0,0,0,16.22-.38l27.83,16-141.9,81.92ZM278,246.2A14.07,14.07,0,0,0,269.09,227V119.16l35.58-20.41v162.8Z"/><path class="cls-1" d="M376,71.44h6.09v49h25.52V126H376Z"/><path class="cls-1" d="M431.28,71.44h6.23L458,126h-6.89l-5.44-15.37H423.09L417.65,126h-6.89Zm3.19,7.68h-.15l-9.21,26h18.56Z"/><path class="cls-1" d="M464.77,71.44h17.55c9.5,0,14.79,6,14.79,12.76,0,6-1.59,11.89-8.84,13.34v.14c5.87.44,10.88,4.5,10.88,13.27,0,8.2-6.6,15-16.32,15H464.77Zm15.16,24.22c6.67,0,10.66-3.55,10.66-9.93,0-7.18-4.2-9.21-10.44-9.21h-9.28V95.66Zm2.32,24.8c7,0,10.8-4.57,10.8-9.93,0-4.28-3.12-9.79-12.18-9.79h-10v19.72Z"/><path class="cls-1" d="M535.16,70.43c16,0,27.7,10.8,27.7,28.28,0,16.46-12,28.28-27.7,28.28-16,0-27.7-10.8-27.7-28.28C507.46,82.25,519.42,70.43,535.16,70.43Zm0,5.51C520,75.94,514,87.69,514,98.71c0,9,5.87,22.77,21.17,22.77s21.17-13.78,21.17-22.77C556.33,87.69,550.31,75.94,535.16,75.94Z"/><path class="cls-1" d="M590.31,102.62H579.66V126h-6.09V71.44h16.89c14.57,0,18.64,7.76,18.64,14.87,0,9.79-6.38,14.28-12.4,15.73L611.2,126h-7.47Zm.22-5.51c7.18,0,12-3.41,12-9.93,0-8.05-6.09-10.22-12.4-10.22H579.66V97.11Z"/><path class="cls-1" d="M632.79,71.44H639L659.55,126h-6.89l-5.44-15.37H624.6L619.16,126h-6.89ZM636,79.13h-.15l-9.21,26h18.56Z"/><path class="cls-1" d="M671.86,77H655.33V71.44h39.15V77H678v49h-6.09Z"/><path class="cls-1" d="M727.32,70.43c16,0,27.7,10.8,27.7,28.28,0,16.46-12,28.28-27.7,28.28-16,0-27.7-10.8-27.7-28.28C699.62,82.25,711.59,70.43,727.32,70.43Zm0,5.51c-15.16,0-21.17,11.75-21.17,22.77,0,9,5.87,22.77,21.17,22.77s21.17-13.78,21.17-22.77C748.49,87.69,742.47,75.94,727.32,75.94Z"/><path class="cls-1" d="M782.47,102.62H771.82V126h-6.09V71.44h16.89c14.57,0,18.64,7.76,18.64,14.87,0,9.79-6.38,14.28-12.4,15.73L803.36,126h-7.47Zm.22-5.51c7.18,0,12-3.41,12-9.93,0-8.05-6.09-10.22-12.4-10.22H771.82V97.11Z"/><path class="cls-1" d="M821.84,103.71,803.06,71.44h7.47l14.36,26.83L839,71.44h7.47l-18.49,32.27V126h-6.09Z"/><path class="cls-1" d="M873.22,71.44H904V77H879.31V95.23h23.93v5.51H879.31V126h-6.09Z"/><path class="cls-1" d="M939.63,70.43c16,0,27.7,10.8,27.7,28.28,0,16.46-12,28.28-27.7,28.28-16,0-27.7-10.8-27.7-28.28C911.93,82.25,923.89,70.43,939.63,70.43Zm0,5.51c-15.16,0-21.17,11.75-21.17,22.77,0,9,5.87,22.77,21.17,22.77S960.8,107.7,960.8,98.71C960.8,87.69,954.78,75.94,939.63,75.94Z"/><path class="cls-1" d="M994.78,102.62H984.13V126H978V71.44h16.89c14.57,0,18.64,7.76,18.64,14.87,0,9.79-6.38,14.28-12.4,15.73l14.5,23.93h-7.47Zm.22-5.51c7.18,0,12-3.41,12-9.93,0-8.05-6.09-10.22-12.4-10.22H984.13V97.11Z"/><path class="cls-1" d="M386.56,161.7H372.2V152h39.59v9.72H397.44v44.81H386.56Z"/><path class="cls-1" d="M420.12,152h34.8v9.72H431v12.4h23.27v9.72H431v13h23.93v9.72h-34.8Z"/><path class="cls-1" d="M464.4,152h10.88v44.38h21v10.15H464.4Z"/><path class="cls-1" d="M504.71,152h34.8v9.72H515.58v12.4h23.27v9.72H515.58v13h23.93v9.72h-34.8Z"/><path class="cls-1" d="M584.74,171.34c-1.6-7-6.38-10.66-12.62-10.66-8.85,0-14.21,8.49-14.21,18.64,0,11.53,5.66,18.49,14.5,18.49,5.22,0,10.3-3.48,12.18-9.64l11.16.8C592,201.15,583.14,207.52,572,207.52c-14.79,0-25.38-10-25.38-28.28C546.6,162.79,557,151,572,151c11.46,0,20.88,5.66,23.71,19.65Z"/><path class="cls-1" d="M629.54,151c17,0,26.54,13.63,26.54,28.28s-9.57,28.28-26.54,28.28S603,193.89,603,179.24,612.57,151,629.54,151Zm0,9.71c-10.15,0-15.23,8.77-15.23,18.56s5.08,18.56,15.23,18.56,15.23-8.77,15.23-18.56S639.69,160.68,629.54,160.68Z"/><path class="cls-1" d="M711.67,170.11h-.15l-14.57,36.4h-6.09l-14.57-35.67h-.15v35.67H665.7V152h12.4l15.81,37.12L709.71,152h12.4v54.53H711.67Z"/><path class="cls-1" d="M780.1,170.11h-.15l-14.57,36.4h-6.09l-14.57-35.67h-.15v35.67H734.12V152h12.4l15.81,37.12L778.14,152h12.4v54.53H780.1Z"/><path class="cls-1" d="M836.56,152h10.88v31.9c0,17-10.8,23.64-22.69,23.64S802,200.93,802,183.89V152h10.88v32c0,9.06,4.06,13.85,11.82,13.85S836.56,193,836.56,184Z"/><path class="cls-1" d="M869.53,169.32h-.15v37.19H858.94V152h11.68l22.11,36.62h.15V152h10.44v54.53H892.08Z"/><path class="cls-1" d="M915.92,152h10.87v54.53H915.92Z"/><path class="cls-1" d="M975.15,171.34c-1.6-7-6.38-10.66-12.62-10.66-8.85,0-14.21,8.49-14.21,18.64,0,11.53,5.66,18.49,14.5,18.49,5.22,0,10.3-3.48,12.18-9.64l11.16.8c-3.77,12.18-12.62,18.56-23.78,18.56-14.79,0-25.38-10-25.38-28.28,0-16.46,10.37-28.28,25.38-28.28,11.46,0,20.88,5.66,23.71,19.65Z"/><path class="cls-1" d="M1025.74,195.12H1005.8l-3.56,11.38H990.5L1010.37,152h11.46l19.58,54.53h-12Zm-9.86-30h-.15l-6.89,21.17h14Z"/><path class="cls-1" d="M1053.43,161.7h-14.36V152h39.59v9.72H1064.3v44.81h-10.87Z"/><path class="cls-1" d="M1087.56,152h10.87v54.53h-10.87Z"/><path class="cls-1" d="M1135.19,151c17,0,26.54,13.63,26.54,28.28s-9.57,28.28-26.54,28.28-26.54-13.63-26.54-28.28S1118.22,151,1135.19,151Zm0,9.71c-10.15,0-15.23,8.77-15.23,18.56s5.08,18.56,15.23,18.56,15.23-8.77,15.23-18.56S1145.34,160.68,1135.19,160.68Z"/><path class="cls-1" d="M1181.94,169.32h-.15v37.19h-10.44V152H1183l22.11,36.62h.15V152h10.44v54.53h-11.24Z"/><path class="cls-1" d="M402.29,246.88c0-3.77-3.63-6.09-8-6.09-5.44,0-8.7,2.39-8.7,6s3.63,5.58,6.31,6.45l10,3.19c7.25,2.32,12.4,6.53,12.4,14.94,0,6.67-4.79,16.68-19.87,16.68-18.93,0-20.67-12.25-20.67-17.11l10.88-.22c0,5.8,4.57,8,9.86,8,3.7,0,8.92-1.81,8.92-6,0-2.9-1.23-4.42-6.6-6.38L385,262.1c-6-2.17-10.22-7.47-10.22-13.63,0-7,4.78-17,18.92-17,16.82,0,19.51,11.16,19.51,15.15Z"/><path class="cls-1" d="M460,251.88c-1.6-7-6.38-10.66-12.62-10.66-8.85,0-14.21,8.49-14.21,18.64,0,11.53,5.66,18.49,14.5,18.49,5.22,0,10.3-3.48,12.18-9.64l11.16.8c-3.77,12.18-12.62,18.56-23.78,18.56-14.79,0-25.38-10-25.38-28.28,0-16.46,10.37-28.28,25.38-28.28,11.46,0,20.88,5.66,23.71,19.65Z"/><path class="cls-1" d="M481.22,232.52h10.87V287H481.22Z"/><path class="cls-1" d="M504.7,232.52h34.8v9.72H515.58v12.4h23.27v9.72H515.58v13H539.5V287H504.7Z"/><path class="cls-1" d="M559.58,249.85h-.15V287H549V232.52h11.68l22.11,36.62h.15V232.52h10.44V287H582.13Z"/><path class="cls-1" d="M641.13,251.88c-1.6-7-6.38-10.66-12.62-10.66-8.84,0-14.21,8.49-14.21,18.64,0,11.53,5.66,18.49,14.51,18.49,5.22,0,10.3-3.48,12.18-9.64l11.17.8c-3.77,12.18-12.62,18.56-23.78,18.56-14.79,0-25.38-10-25.38-28.28,0-16.46,10.37-28.28,25.38-28.28,11.46,0,20.88,5.66,23.71,19.65Z"/><path class="cls-1" d="M661.78,232.52h34.8v9.72H672.66v12.4h23.27v9.72H672.66v13h23.93V287h-34.8Z"/><path class="cls-1" d="M732.46,246.88c0-3.77-3.63-6.09-8-6.09-5.43,0-8.7,2.39-8.7,6s3.63,5.58,6.31,6.45l10,3.19c7.25,2.32,12.4,6.53,12.4,14.94,0,6.67-4.79,16.68-19.87,16.68C705.71,288.06,704,275.81,704,271l10.87-.22c0,5.8,4.57,8,9.86,8,3.7,0,8.92-1.81,8.92-6,0-2.9-1.23-4.42-6.6-6.38l-11.89-4.28c-6-2.17-10.22-7.47-10.22-13.63,0-7,4.79-17,18.92-17,16.82,0,19.51,11.16,19.51,15.15Z"/></g></g></svg>