<?xml version="1.0" encoding="utf-8"?>
<!-- Generator: Adobe Illustrator 23.1.1, SVG Export Plug-In . SVG Version: 6.00 Build 0)  -->
<svg version="1.1" id="Layer_1" xmlns="http://www.w3.org/2000/svg" xmlns:xlink="http://www.w3.org/1999/xlink" x="0px" y="0px"
	 viewBox="0 0 470.3 139.65" style="enable-background:new 0 0 430.3 139.65;" xml:space="preserve">
<style type="text/css">
	.st0{enable-background:new    ;}
	.st1{fill:#696A6D;}
	.st2{fill:#4CB748;}
</style>
<g class="st0">
	<path class="st1" d="M23.06,124.07h0.04l3.57-12.13h2.34l3.55,12.13h0.04l3.35-12.13h2.26l-4.47,15.22h-2.21l-3.7-12.23h-0.04
		l-3.7,12.23h-2.21l-4.47-15.22h2.3L23.06,124.07z"/>
	<path class="st1" d="M57.87,119.53c0,1.18-0.21,2.25-0.61,3.24s-0.97,1.83-1.69,2.54c-0.72,0.71-1.57,1.26-2.56,1.66
		c-0.99,0.39-2.06,0.59-3.22,0.59c-1.16,0-2.23-0.2-3.21-0.59c-0.98-0.39-1.83-0.95-2.55-1.66c-0.72-0.71-1.28-1.56-1.68-2.54
		s-0.6-2.06-0.6-3.24c0-1.19,0.2-2.28,0.6-3.26s0.96-1.82,1.68-2.52s1.57-1.24,2.55-1.62s2.05-0.58,3.21-0.58
		c1.16,0,2.24,0.19,3.22,0.58s1.84,0.93,2.56,1.62s1.28,1.53,1.69,2.52S57.87,118.34,57.87,119.53z M55.57,119.53
		c0-0.83-0.14-1.62-0.41-2.35c-0.27-0.74-0.66-1.39-1.16-1.95c-0.5-0.56-1.11-1-1.82-1.32c-0.71-0.32-1.51-0.48-2.4-0.48
		c-0.88,0-1.67,0.16-2.38,0.48c-0.71,0.32-1.31,0.76-1.81,1.32c-0.49,0.56-0.88,1.21-1.15,1.95c-0.27,0.74-0.41,1.52-0.41,2.35
		c0,0.85,0.14,1.64,0.41,2.39c0.27,0.75,0.66,1.39,1.16,1.95s1.1,0.99,1.81,1.3c0.7,0.32,1.49,0.47,2.37,0.47
		c0.87,0,1.67-0.16,2.39-0.47s1.33-0.75,1.83-1.3c0.5-0.55,0.89-1.2,1.16-1.95C55.43,121.17,55.57,120.38,55.57,119.53z"/>
	<path class="st1" d="M71.14,123.64h0.04l4.49-11.7h3.31v15.22h-2.13v-12.73h-0.04l-5.05,12.73h-1.35l-5.03-12.73h-0.04v12.73h-2.06
		v-15.22h3.31L71.14,123.64z"/>
	<path class="st1" d="M87.3,125.27h7.96v1.89H85.18v-15.22h9.76v1.87H87.3v4.56h7.18v1.83H87.3V125.27z"/>
	<path class="st1" d="M111.32,124.11h0.04v-12.17h2.13v15.22h-2.69l-8.04-12.43h-0.04v12.43h-2.13v-15.22h2.77L111.32,124.11z"/>
	<path class="st1" d="M120.44,117.32h-1.7l1.48-5.38h2L120.44,117.32z"/>
	<path class="st1" d="M135.03,114.76c-0.3-0.42-0.71-0.76-1.23-1.02c-0.52-0.26-1.1-0.4-1.74-0.4c-0.34,0-0.69,0.05-1.04,0.14
		s-0.67,0.24-0.96,0.45c-0.29,0.21-0.52,0.47-0.7,0.77c-0.18,0.31-0.27,0.68-0.27,1.11c0,0.42,0.08,0.76,0.25,1.04
		c0.17,0.28,0.39,0.52,0.67,0.71c0.28,0.19,0.61,0.36,0.99,0.49c0.38,0.14,0.79,0.28,1.21,0.42c0.52,0.16,1.04,0.34,1.57,0.54
		c0.53,0.2,1.01,0.47,1.44,0.8c0.43,0.33,0.78,0.74,1.05,1.24c0.27,0.5,0.41,1.12,0.41,1.88c0,0.79-0.15,1.47-0.44,2.05
		c-0.29,0.58-0.68,1.06-1.17,1.44c-0.49,0.38-1.05,0.66-1.69,0.85c-0.64,0.19-1.29,0.28-1.97,0.28c-0.96,0-1.89-0.19-2.79-0.56
		c-0.9-0.37-1.64-0.92-2.22-1.66l1.66-1.4c0.36,0.53,0.84,0.96,1.44,1.29c0.6,0.33,1.25,0.49,1.96,0.49c0.36,0,0.72-0.05,1.07-0.15
		s0.68-0.26,0.98-0.47c0.29-0.21,0.53-0.48,0.72-0.81c0.19-0.32,0.28-0.71,0.28-1.17s-0.1-0.84-0.29-1.15
		c-0.19-0.31-0.46-0.57-0.79-0.78c-0.33-0.22-0.71-0.4-1.15-0.55s-0.9-0.3-1.39-0.46c-0.49-0.14-0.97-0.32-1.44-0.53
		c-0.47-0.21-0.9-0.47-1.27-0.79s-0.67-0.72-0.9-1.19c-0.23-0.47-0.34-1.06-0.34-1.76c0-0.76,0.15-1.41,0.46-1.96
		c0.31-0.54,0.71-1,1.2-1.35c0.5-0.36,1.05-0.62,1.68-0.78c0.62-0.17,1.25-0.25,1.88-0.25c0.89,0,1.72,0.16,2.49,0.47
		s1.4,0.74,1.87,1.27L135.03,114.76z"/>
	<path class="st1" d="M152.19,127.16h-2.13v-15.22h2.13V127.16z"/>
	<path class="st1" d="M169.11,124.11h0.04v-12.17h2.13v15.22h-2.69l-8.04-12.43h-0.04v12.43h-2.13v-15.22h2.77L169.11,124.11z"/>
	<path class="st1" d="M179.6,127.16h-2.13v-15.22h2.13V127.16z"/>
	<path class="st1" d="M191.13,127.16H189v-13.35h-4.88v-1.87h11.89v1.87h-4.88V127.16z"/>
	<path class="st1" d="M202.65,127.16h-2.13v-15.22h2.13V127.16z"/>
	<path class="st1" d="M209.47,127.16h-2.37l6.6-15.22h1.93l6.54,15.22h-2.41l-1.55-3.74h-7.22L209.47,127.16z M211.75,121.55h5.7
		l-2.84-7.14L211.75,121.55z"/>
	<path class="st1" d="M230.67,127.16h-2.13v-13.35h-4.88v-1.87h11.89v1.87h-4.88V127.16z"/>
	<path class="st1" d="M242.19,127.16h-2.13v-15.22h2.13V127.16z"/>
	<path class="st1" d="M253.43,124.41h0.06l4.58-12.47h2.3l-5.98,15.22h-1.98l-5.93-15.22h2.36L253.43,124.41z"/>
	<path class="st1" d="M266.81,125.27h7.96v1.89h-10.08v-15.22h9.76v1.87h-7.63v4.56h7.18v1.83h-7.18V125.27z"/>
	<path class="st1" d="M298.69,124.11h0.04v-12.17h2.13v15.22h-2.69l-8.04-12.43h-0.04v12.43h-2.13v-15.22h2.77L298.69,124.11z"/>
	<path class="st1" d="M309.18,125.27h7.96v1.89h-10.08v-15.22h9.76v1.87h-7.63v4.56h7.18v1.83h-7.18V125.27z"/>
	<path class="st1" d="M327.8,127.16h-2.13v-13.35h-4.88v-1.87h11.89v1.87h-4.88V127.16z"/>
	<path class="st1" d="M341.22,124.07h0.04l3.57-12.13h2.34l3.55,12.13h0.04l3.35-12.13h2.26l-4.47,15.22h-2.21l-3.7-12.23h-0.04
		l-3.7,12.23h-2.21l-4.47-15.22h2.3L341.22,124.07z"/>
	<path class="st1" d="M376.03,119.53c0,1.18-0.2,2.25-0.61,3.24c-0.41,0.98-0.97,1.83-1.69,2.54c-0.72,0.71-1.57,1.26-2.56,1.66
		c-0.99,0.39-2.06,0.59-3.22,0.59s-2.23-0.2-3.21-0.59c-0.98-0.39-1.83-0.95-2.55-1.66c-0.72-0.71-1.28-1.56-1.68-2.54
		s-0.6-2.06-0.6-3.24c0-1.19,0.2-2.28,0.6-3.26s0.96-1.82,1.68-2.52c0.72-0.7,1.57-1.24,2.55-1.62c0.98-0.39,2.05-0.58,3.21-0.58
		s2.24,0.19,3.22,0.58c0.99,0.39,1.84,0.93,2.56,1.62s1.28,1.53,1.69,2.52C375.82,117.26,376.03,118.34,376.03,119.53z
		 M373.72,119.53c0-0.83-0.14-1.62-0.41-2.35s-0.66-1.39-1.16-1.95c-0.5-0.56-1.11-1-1.82-1.32c-0.71-0.32-1.51-0.48-2.4-0.48
		c-0.87,0-1.67,0.16-2.38,0.48c-0.71,0.32-1.31,0.76-1.81,1.32c-0.49,0.56-0.88,1.21-1.15,1.95s-0.41,1.52-0.41,2.35
		c0,0.85,0.14,1.64,0.41,2.39s0.66,1.39,1.16,1.95s1.1,0.99,1.81,1.3s1.49,0.47,2.37,0.47s1.67-0.16,2.39-0.47s1.33-0.75,1.83-1.3
		s0.89-1.2,1.16-1.95S373.72,120.38,373.72,119.53z"/>
	<path class="st1" d="M383.55,127.16h-2.13v-15.22h4.88c0.73,0,1.43,0.08,2.08,0.23s1.24,0.39,1.73,0.72
		c0.49,0.33,0.88,0.76,1.17,1.3c0.29,0.54,0.43,1.19,0.43,1.97c0,1.12-0.34,2.02-1.03,2.71c-0.69,0.69-1.58,1.12-2.67,1.31
		l4.26,6.99h-2.58l-3.87-6.77h-2.28V127.16z M383.55,118.61H386c0.5,0,0.97-0.04,1.4-0.13c0.43-0.09,0.81-0.23,1.13-0.42
		c0.32-0.19,0.58-0.44,0.76-0.75c0.19-0.31,0.28-0.69,0.28-1.15s-0.09-0.84-0.28-1.15c-0.19-0.31-0.43-0.56-0.74-0.74
		c-0.31-0.19-0.67-0.32-1.08-0.4c-0.42-0.08-0.85-0.12-1.31-0.12h-2.6V118.61z"/>
	<path class="st1" d="M399.25,118.65h0.04l6.79-6.71h2.95l-7.4,6.97l7.85,8.26h-3.05l-7.14-7.87h-0.04v7.87h-2.13v-15.22h2.13
		V118.65z"/>
</g>
<g>
	<path class="st2" d="M256.09,70.27l2.2,11.52l2.69-11.01l15.48-54.67h5.44l15.28,54.67l2.64,11.11l2.35-11.62l12.88-54.16h6.17
		L302.97,90.3h-5.78l-16.17-58.03l-1.81-7.34l-1.76,7.34L260.89,90.3h-5.78l-18.22-74.19h6.17L256.09,70.27z"/>
	<path class="st2" d="M338.19,90.3h-6.03V16.11h6.03V90.3z"/>
	<path class="st2" d="M408.63,90.3h-6.03l-41-63.49V90.3h-6.07V16.11h6.07l41.05,63.54V16.11h5.98V90.3z"/>
</g>
<g>
	<g>
		<path d="M32.76,16.11H17.27v62.2l17.06-5.67l0.19-0.06L34.2,44.3v-0.22l5.22,7.08L51.1,67.02l0.29-0.1l17.03-5.75L32.76,16.11z
			 M17.27,90.3h17.16v-0.31l-17.16-5.36V90.3z M61.83,80.64l7.34,9.66h16.56V16.11H69.17v44.82l8.93-3.01L61.83,80.64z
			 M209.46,37.65c0-15.75-13.16-22.69-25.28-22.69c-13.01,0-20.35,7.27-23.75,11.99l11.8,11.8c1.41-2.2,4.96-6.7,10.29-6.7
			c3.83,0,7.98,2.18,7.98,7.36c0,10.67-32.02,15.54-32.02,42.9c0,2.49,0.31,5.08,0.83,7.98h13.39h6.4h14.64l15.54-15.55H179.1
			C179.61,65.22,209.46,60.76,209.46,37.65 M145.99,54c3.89,3.47,5.84,8.53,5.84,15.18s-2.49,12.05-7.48,16.19
			c-4.99,4.14-11.55,6.21-19.69,6.21c-11.74,0-22.32-4.35-31.73-13.05l9.87-12.1c8,7.01,15.39,10.51,22.18,10.51
			c3.04,0,5.43-0.65,7.16-1.96c1.73-1.31,2.6-3.08,2.6-5.31c0-2.23-0.92-4-2.76-5.31c-1.84-1.31-5.48-2.64-10.93-3.98
			c-8.63-2.05-14.95-4.72-18.94-8.01c-4-3.29-6-8.45-6-15.5c0-7.04,2.53-12.47,7.59-16.29c5.06-3.82,11.37-5.73,18.94-5.73
			c4.95,0,9.91,0.85,14.86,2.55c4.95,1.7,9.27,4.1,12.95,7.22l-8.38,12.1c-6.44-4.88-13.09-7.32-19.95-7.32
			c-2.76,0-4.94,0.65-6.53,1.96c-1.59,1.31-2.39,3.04-2.39,5.2s0.97,3.87,2.92,5.15c1.95,1.27,6.44,2.78,13.48,4.51
			C136.64,47.93,142.1,50.53,145.99,54"/>
		<path d="M213.64,87.94v-1.07h0.71c0.36,0,0.75,0.08,0.75,0.5c0,0.54-0.39,0.57-0.83,0.57H213.64z M213.64,88.39h0.6l0.9,1.49h0.59
			l-0.99-1.52c0.51-0.06,0.9-0.33,0.9-0.95c0-0.68-0.4-0.98-1.22-0.98h-1.32v3.45h0.52v-1.49H213.64z M214.28,91.15
			c1.63,0,3.02-1.27,3.02-3c0-1.72-1.39-2.99-3.02-2.99c-1.65,0-3.04,1.27-3.04,2.99C211.24,89.88,212.63,91.15,214.28,91.15
			 M211.84,88.15c0-1.42,1.07-2.5,2.44-2.5c1.36,0,2.42,1.08,2.42,2.5c0,1.44-1.07,2.51-2.42,2.51
			C212.91,90.66,211.84,89.59,211.84,88.15"/>
	</g>
</g>
</svg>
