<svg width="472" height="256" viewBox="0 0 472 256" fill="none" xmlns="http://www.w3.org/2000/svg">
<path d="M125.4 226.5V243.7C125.4 244.5 124.8 245.1 124 245.1H121.4C120.6 245.1 120 244.5 120 243.7V200.1C120 199.4 120.6 198.8 121.3 198.8H128.4C136.8 198.8 139.1 202.5 139.1 209.1V216.2C139.1 222.9 136.8 226.6 128.4 226.6H125.4V226.5ZM128.4 222.1C132.7 222.1 133.7 219.9 133.7 216.2V209C133.7 205.4 132.7 203.2 128.4 203.2H125.4V222.1H128.4Z" fill="#C59C60"/>
<path d="M155.7 245.1H153.1C152.3 245.1 151.7 244.5 151.7 243.7V200.1C151.7 199.4 152.3 198.8 153 198.8H155.7C156.5 198.8 157.1 199.4 157.1 200.2V243.7C157.1 244.4 156.5 245.1 155.7 245.1Z" fill="#C59C60"/>
<path d="M185.9 200.1C185.9 199.4 186.5 198.8 187.2 198.8H189.6C190.3 198.8 190.9 199.4 190.9 200.1V243.7C190.9 244.5 190.3 245.1 189.5 245.1H186.2C185.3 245.1 185 244.7 184.7 243.9L178.3 219.9L176.1 210.5L175.8 210.6L176.3 220.3V243.7C176.3 244.5 175.7 245.1 174.9 245.1H172.6C171.8 245.1 171.2 244.5 171.2 243.7V200.1C171.2 199.4 171.8 198.8 172.5 198.8H175.9C176.8 198.8 177.2 199.2 177.4 200L183.8 224L186 233.4L186.3 233.3L185.8 223.6V200.1H185.9Z" fill="#C59C60"/>
<path d="M220.4 200.1C220.4 199.4 221 198.8 221.7 198.8H224.1C224.8 198.8 225.4 199.4 225.4 200.1V243.7C225.4 244.5 224.8 245.1 224 245.1H220.7C219.8 245.1 219.5 244.7 219.2 243.9L212.8 219.9L210.6 210.5L210.3 210.6L210.8 220.3V243.7C210.8 244.5 210.2 245.1 209.4 245.1H207.1C206.3 245.1 205.7 244.5 205.7 243.7V200.2C205.7 199.4 206.3 198.8 207.1 198.8H210.4C211.3 198.8 211.7 199.2 211.9 200L218.3 224L220.5 233.4L220.8 233.3L220.3 223.6V200.1H220.4Z" fill="#C59C60"/>
<path d="M249.5 203.2L243.9 243.8C243.8 244.6 243.3 245.1 242.5 245.1H239.8C238.9 245.1 238.5 244.4 238.6 243.5L245.3 200.1C245.4 199.1 245.9 198.7 246.8 198.7H252.6C253.5 198.7 253.9 199.1 254.1 200.1L260.8 243.5C260.9 244.5 260.5 245.1 259.6 245.1H256.9C256.2 245.1 255.6 244.7 255.6 243.8L250 203.2H249.5ZM249.8 203.2H249.5Z" fill="#C59C60"/>
<path d="M292.4 215.2C292.4 216 291.8 216.6 291 216.6H288.4C287.6 216.6 287 216 287 215.2V207.6C287 204.5 286.2 202.6 282.5 202.6C278.9 202.6 278 204.5 278 207.6V236.3C278 239.4 278.8 241.3 282.5 241.3C286.1 241.3 287 239.4 287 236.3V228.6C287 227.9 287.6 227.3 288.3 227.3H291C291.8 227.3 292.4 227.9 292.4 228.7V236.3C292.4 242.5 290.2 245.9 282.5 245.9C274.8 245.9 272.6 242.5 272.6 236.3V207.6C272.6 201.4 274.8 198 282.5 198C290.2 198 292.4 201.4 292.4 207.6V215.2Z" fill="#C59C60"/>
<path d="M311.6 240.6H322C322.8 240.6 323.4 241.2 323.4 242V243.7C323.4 244.5 322.8 245.1 322 245.1H307.6C306.8 245.1 306.2 244.5 306.2 243.7V200.1C306.2 199.4 306.8 198.8 307.5 198.8H310.2C311 198.8 311.6 199.4 311.6 200.2V240.6Z" fill="#C59C60"/>
<path d="M350.2 198.7C351 198.7 351.6 199.3 351.6 200.1V201.8C351.6 202.6 351 203.2 350.2 203.2H339.8V219.5H348C348.8 219.5 349.4 220.1 349.4 220.9V222.6C349.4 223.4 348.8 224 348 224H339.8V240.6H350.2C351 240.6 351.6 241.2 351.6 242V243.7C351.6 244.5 351 245.1 350.2 245.1H335.8C335 245.1 334.4 244.5 334.4 243.7V200.1C334.4 199.4 335 198.8 335.7 198.8H350.2V198.7Z" fill="#C59C60"/>
<path d="M222.9 140C225 142.1 227.7 143.1 230.5 143.1C233.2 143.1 236 142.1 238.1 140C242.3 135.8 242.3 129 238.1 124.8L222.9 140Z" stroke="#C69D5F" stroke-width="2" stroke-miterlimit="10"/>
<path d="M238.1 124.9L230.5 117.3L207.7 140.1" stroke="#C69D5F" stroke-width="2" stroke-miterlimit="10"/>
<path d="M230 154.2C243.586 154.2 254.6 143.186 254.6 129.6C254.6 116.014 243.586 105 230 105C216.414 105 205.4 116.014 205.4 129.6C205.4 143.186 216.414 154.2 230 154.2Z" stroke="#C69D5F" stroke-width="2" stroke-miterlimit="10"/>
</svg>
