<svg id="Layer_2" data-name="Layer 2" xmlns="http://www.w3.org/2000/svg" viewBox="0 0 348.7 29.49"><defs><style>.cls-1{fill:#688bb0;}</style></defs><title>birds</title><path class="cls-1" d="M8.78,191.29a12.64,12.64,0,0,1,11.25,3,12.11,12.11,0,0,1,2.39,2.57c.85,1.28,1.44,1.06,2.41.06a14.87,14.87,0,0,1,8.54-4.17c4.5-.78,8.12.87,11.47,3.4a8.75,8.75,0,0,1,.68,1c-.38,0-.93.15-1.15.16a31.93,31.93,0,0,0-22.19,8.62c-1,.88-1.33.79-1.74-.35A26.56,26.56,0,0,0,19,202.21c-2.44-4.69-6.51-7.34-11.7-8.58-.55-.13-1.07-.36-1.6-.54a8.06,8.06,0,0,1,1.5-1.2A9.58,9.58,0,0,1,8.78,191.29Z" transform="translate(-5.65 -177.03)"/><path class="cls-1" d="M30.32,179.05c4.89-1.12,8.72.27,12.12,2.72,1.42,1,2.06.83,3.25-.31,4-3.85,8.78-4.29,13.87-2.8.39.12.69.51,1,.77a5.12,5.12,0,0,1-1,.6c-5.33,1.83-9.85,4.66-12.62,9.65-.64,1.16-1.38.95-2.28.32-2.66-1.82-5.36-3.6-8-5.41-2.49-1.68-5.09-3.07-8.28-3a4,4,0,0,1-.77-.14c.11-.29.14-.68.35-.83C28.87,180,29.78,179.4,30.32,179.05Z" transform="translate(-5.65 -177.03)"/><path class="cls-1" d="M315.73,177.58a14.8,14.8,0,0,1,2.38.8c3.48,1.47,6.34,3.93,9.34,6.16a6.76,6.76,0,0,0,7.31.68c2.39-1.34,4.73-2.92,7.44-3.51,2.89-.61,5.88,0,8.76.6.73.16,3.33.69,3.39,1.75,0,.9-3.15,1-3.85,1.14a33.42,33.42,0,0,0-17.81,8.57c-1.29,1.21-3.92,4.25-5.8,2.3a3.73,3.73,0,0,1-.69-1.17c-.93-2.33-1.37-4.65-2.69-6.82a16.08,16.08,0,0,0-5.26-5.31,21.61,21.61,0,0,0-9-2.91c-1.93-.21-4,0-5.8-.94.92-1.39,3.14-1.61,4.66-1.75A22.81,22.81,0,0,1,315.73,177.58Z" transform="translate(-5.65 -177.03)"/></svg>