<svg id="Layer_2" data-name="Layer 2" xmlns="http://www.w3.org/2000/svg" xmlns:xlink="http://www.w3.org/1999/xlink" viewBox="0 0 133.72 45.76"><defs><style>.cls-1{fill:#f2bcbb;}.cls-2{clip-path:url(#clip-path);}.cls-3{fill:#f9f7ca;}</style><clipPath id="clip-path" transform="translate(-168.05 -137.11)"><path class="cls-1" d="M236.42,137.11c-17.16-.12-32,4.85-38.86,12.1H197c-15,0-26.92,2.85-28.9,7.77a1.19,1.19,0,0,0,1.07,1.59c3.7.28,14.57,1,27.83,1,6.92,0,13.64-.15,19.09-.32h.08c6,.18,12.81.34,20.06.39,20.09.13,36.95-.57,41.55-.79a1.21,1.21,0,0,0,1.17-1.33C277.75,146.29,259.19,137.26,236.42,137.11Z"/></clipPath></defs><title>8</title><path class="cls-1" d="M236.42,137.11c-17.16-.12-32,4.85-38.86,12.1H197c-15,0-26.92,2.85-28.9,7.77a1.19,1.19,0,0,0,1.07,1.59c3.7.28,14.57,1,27.83,1,6.92,0,13.64-.15,19.09-.32h.08c6,.18,12.81.34,20.06.39,20.09.13,36.95-.57,41.55-.79a1.21,1.21,0,0,0,1.17-1.33C277.75,146.29,259.19,137.26,236.42,137.11Z" transform="translate(-168.05 -137.11)"/><g class="cls-2"><ellipse class="cls-3" cx="86.49" cy="29.29" rx="47.23" ry="16.47"/></g></svg>