<svg id="Layer_2" data-name="Layer 2" xmlns="http://www.w3.org/2000/svg" xmlns:xlink="http://www.w3.org/1999/xlink" viewBox="0 0 350 170"><defs><style>.cls-1{fill:#f1bcba;}.cls-2{clip-path:url(#clip-path);}.cls-3{fill:#f9f7ca;}</style><clipPath id="clip-path" transform="translate(-96.62 -106.54)"><path class="cls-1" d="M331.6,154.09c0-9.33-21-16.89-46.9-16.89-3.86,0-7,.16-8.05.09a.42.42,0,0,1-.39-.41c-.34-16.78-27.9-30.34-54.79-30.34-23.07,0-42.42,10-47.62,23.42a2.72,2.72,0,0,1-3.51,1.48,55.84,55.84,0,0,0-19.8-3.49c-21.91,0-39.67,11.69-39.67,26.11,0,8.23,5.79,16.37,14.82,21.15,17,10.36,47.86,17.63,82.73,17.63,40.63,0,75.35-9.54,89.25-21.64a5.13,5.13,0,0,1,2.71-1.19C318.57,167.69,331.6,161.43,331.6,154.09Z"/></clipPath></defs><title>3</title><path class="cls-1" d="M331.6,154.09c0-9.33-21-16.89-46.9-16.89-3.86,0-7,.16-8.05.09a.42.42,0,0,1-.39-.41c-.34-16.78-27.9-30.34-54.79-30.34-23.07,0-42.42,10-47.62,23.42a2.72,2.72,0,0,1-3.51,1.48,55.84,55.84,0,0,0-19.8-3.49c-21.91,0-39.67,11.69-39.67,26.11,0,8.23,5.79,16.37,14.82,21.15,17,10.36,47.86,17.63,82.73,17.63,40.63,0,75.35-9.54,89.25-21.64a5.13,5.13,0,0,1,2.71-1.19C318.57,167.69,331.6,161.43,331.6,154.09Z" transform="translate(-96.62 -106.54)"/><g class="cls-2"><ellipse class="cls-3" cx="153.84" cy="72.04" rx="122.52" ry="34.73"/><ellipse class="cls-3" cx="47.32" cy="62.53" rx="47.32" ry="19.38"/></g></svg>
