<svg id="Layer_1" data-name="Layer 1" xmlns="http://www.w3.org/2000/svg" xmlns:xlink="http://www.w3.org/1999/xlink" viewBox="0 0 286.17 108.08"><defs><style>.cls-1{fill:#c2b0b8;}.cls-2{clip-path:url(#clip-path);}.cls-3{fill:#efbaba;}</style><clipPath id="clip-path" transform="translate(-37.3 -126.34)"><path class="cls-1" d="M52,196.54c0,9.54,56,17.28,125.05,17.28s125-7.74,125-17.28a2.62,2.62,0,0,0-.28-1.14c-.67-33.08-27.7-69.06-62.21-69.06-23.85,0-44.61,15.83-55.39,36.5-14-7-32.68-11.33-53.14-11.33C87.38,151.51,52,171.07,52,195.2"/></clipPath></defs><title>1</title><path class="cls-1" d="M52,196.54c0,9.54,56,17.28,125.05,17.28s125-7.74,125-17.28a2.62,2.62,0,0,0-.28-1.14c-.67-33.08-27.7-69.06-62.21-69.06-23.85,0-44.61,15.83-55.39,36.5-14-7-32.68-11.33-53.14-11.33C87.38,151.51,52,171.07,52,195.2" transform="translate(-37.3 -126.34)"/><g class="cls-2"><ellipse class="cls-3" cx="143.09" cy="82.2" rx="143.09" ry="25.88"/></g></svg>
