<svg id="Layer_2" data-name="Layer 2" xmlns="http://www.w3.org/2000/svg" xmlns:xlink="http://www.w3.org/1999/xlink" viewBox="0 0 63.44 33.27"><defs><style>.cls-1{fill:#c2b0b8;}.cls-2{clip-path:url(#clip-path);}.cls-3{fill:#efbaba;}</style><clipPath id="clip-path" transform="translate(-202.71 -143.29)"><path class="cls-1" d="M263,157.53c0-6.72-10.33-14.24-23.08-14.24-12.17,0-22.13,5-23,11.27a.06.06,0,0,1-.06.05h-3.69c-4.08,0-7.76,2.83-8.27,6.77a7.86,7.86,0,0,0,7.92,8.75h31.44a11.6,11.6,0,0,0,8.56-3.6,5.82,5.82,0,0,0,1.73-5.3.05.05,0,0,1,.05-.07C259.73,160.69,263,159.49,263,157.53Z"/></clipPath></defs><title>7</title><path class="cls-1" d="M263,157.53c0-6.72-10.33-14.24-23.08-14.24-12.17,0-22.13,5-23,11.27a.06.06,0,0,1-.06.05h-3.69c-4.08,0-7.76,2.83-8.27,6.77a7.86,7.86,0,0,0,7.92,8.75h31.44a11.6,11.6,0,0,0,8.56-3.6,5.82,5.82,0,0,0,1.73-5.3.05.05,0,0,1,.05-.07C259.73,160.69,263,159.49,263,157.53Z" transform="translate(-202.71 -143.29)"/><g class="cls-2"><path class="cls-3" d="M231.79,154.39h-18a11,11,0,0,0-11.11,10.81v.55a11,11,0,0,0,11.11,10.81h18a11,11,0,0,0,11.11-10.81v-.55C242.9,159.26,254,154.39,231.79,154.39Z" transform="translate(-202.71 -143.29)"/><path class="cls-3" d="M266.14,161.7c0-7.89.76-14.28-14.67-14.28-8.1,0-17.86,6.39-17.86,14.28S243.37,176,251.47,176A14.48,14.48,0,0,0,266.14,161.7Z" transform="translate(-202.71 -143.29)"/></g></svg>