<svg id="Layer_2" data-name="Layer 2" xmlns="http://www.w3.org/2000/svg" xmlns:xlink="http://www.w3.org/1999/xlink" viewBox="0 0 243.09 96.29"><defs><style>.cls-1{fill:#c2b0b8;}.cls-2{clip-path:url(#clip-path);}.cls-3{fill:#f2bcbb;}</style><clipPath id="clip-path" transform="translate(-113.26 -111.44)"><path class="cls-1" d="M287.67,140.08a1.59,1.59,0,0,1-1.52-1.5l0-1.1c-.64-15.12-16.42-26.76-35.23-26A38.39,38.39,0,0,0,227,120.6c-4.73-4.69-13.26-7.62-22.86-7.23-13.71.55-24.65,7.66-25.36,16.16-25.54,3.47-44,12-43.58,21.21.48,11.16,28.43,19.1,62.44,17.73,3.5-.14,6.92-.38,10.25-.7,12.82,2.64,31.27,3.88,51.71,3,29.13-1.17,50.86-3.24,61.8-7a6.44,6.44,0,0,0,2.46-10.8C317.43,147,304.85,141.05,287.67,140.08Z"/></clipPath></defs><title>7</title><path class="cls-1" d="M287.67,140.08a1.59,1.59,0,0,1-1.52-1.5l0-1.1c-.64-15.12-16.42-26.76-35.23-26A38.39,38.39,0,0,0,227,120.6c-4.73-4.69-13.26-7.62-22.86-7.23-13.71.55-24.65,7.66-25.36,16.16-25.54,3.47-44,12-43.58,21.21.48,11.16,28.43,19.1,62.44,17.73,3.5-.14,6.92-.38,10.25-.7,12.82,2.64,31.27,3.88,51.71,3,29.13-1.17,50.86-3.24,61.8-7a6.44,6.44,0,0,0,2.46-10.8C317.43,147,304.85,141.05,287.67,140.08Z" transform="translate(-113.26 -111.44)"/><g class="cls-2"><ellipse class="cls-3" cx="234.8" cy="172.46" rx="121.57" ry="35.18" transform="translate(-117.05 -106.16) rotate(-1.28)"/></g></svg>