<svg id="Layer_2" data-name="Layer 2" xmlns="http://www.w3.org/2000/svg" xmlns:xlink="http://www.w3.org/1999/xlink" viewBox="0 0 159.12 96.05"><defs><style>.cls-1{fill:#f1bcba;}.cls-2{clip-path:url(#clip-path);}.cls-3{fill:#f7dcaa;}</style><clipPath id="clip-path" transform="translate(-155.24 -111.91)"><path class="cls-1" d="M287.42,156.8c0-22-24.09-44.89-53.81-44.89-26.58,0-48.64,14.22-53,32.92-15.43,3-25.36,7.59-25.36,12.79,0,9,29.59,16.23,66.09,16.23q6.3,0,12.28-.28a83.92,83.92,0,0,0,11.24-.78c24.88-2.33,42.57-8.24,42.57-15.17a3.94,3.94,0,0,0-.08-.77Z"/></clipPath></defs><title>5</title><path class="cls-1" d="M287.42,156.8c0-22-24.09-44.89-53.81-44.89-26.58,0-48.64,14.22-53,32.92-15.43,3-25.36,7.59-25.36,12.79,0,9,29.59,16.23,66.09,16.23q6.3,0,12.28-.28a83.92,83.92,0,0,0,11.24-.78c24.88-2.33,42.57-8.24,42.57-15.17a3.94,3.94,0,0,0-.08-.77Z" transform="translate(-155.24 -111.91)"/><g class="cls-2"><ellipse class="cls-3" cx="81.24" cy="64.03" rx="77.89" ry="32.02"/></g></svg>