<svg id="Layer_1" data-name="Layer 1" xmlns="http://www.w3.org/2000/svg" viewBox="0 0 355 110"><defs><style>.cls-1,.cls-2{fill:#fff;}.cls-2{font-size:96.73px;stroke:#fff;stroke-miterlimit:10;stroke-width:0.7px;font-family:Madgue-Script, Madgue;}</style></defs><title>expand_horizon</title><path class="cls-1" d="M92.37,139.12l-6.73-18.07c5.31-2,8-2.9,13.36-4.61.41,1.28.61,1.92,1,3.2-3.73,1.19-5.59,1.82-9.3,3.13.61,1.71.91,2.56,1.51,4.27,3.11-1.11,4.67-1.64,7.8-2.65.41,1.28.61,1.92,1,3.2-3.09,1-4.63,1.52-7.7,2.61l1.57,4.41c3.54-1.26,5.32-1.86,8.89-3,.4,1.28.61,1.92,1,3.2C99.81,136.41,97.32,137.27,92.37,139.12Z" transform="translate(-22.14 -103.15)"/><path class="cls-1" d="M120.07,130.48c-2.15-2.23-3.25-3.33-5.47-5.51-.82,3-1.21,4.5-1.95,7.5-1.71.49-2.56.74-4.27,1.25,1.23-4.5,1.89-6.75,3.31-11.24-3.32-3-5-4.46-8.47-7.34,1.82-.55,2.73-.81,4.55-1.33,2.11,2,3.15,3,5.19,5,.77-2.78,1.18-4.18,2-7,1.82-.46,2.73-.69,4.56-1.12-1.55,4.23-2.28,6.35-3.66,10.59,3.48,3.18,5.18,4.8,8.49,8.08Z" transform="translate(-22.14 -103.15)"/><path class="cls-1" d="M135,119.78l-3.84.74c.57,2.85.86,4.27,1.43,7.12-1.51.31-2.27.46-3.78.79-1.63-7.54-2.45-11.3-4.08-18.84,3.22-.7,4.84-1,8.07-1.63,4.31-.81,7.33,1.5,7.85,4.73S139.12,119,135,119.78Zm-1.79-8.48c-1.5.28-2.25.43-3.76.73.42,2.07.63,3.11,1,5.18,1.48-.3,2.22-.44,3.69-.72,1.79-.34,2.75-1.58,2.48-3.12S135,111,133.2,111.3Z" transform="translate(-22.14 -103.15)"/><path class="cls-1" d="M157.78,123.81c-.6-1.31-.91-2-1.52-3.27-2.82.3-4.23.47-7,.85-.3,1.42-.44,2.13-.73,3.54-1.59.22-2.39.34-4,.59,1.67-8.06,2.61-12.09,4.7-20.13,1.28-.17,1.93-.24,3.21-.39,4,7.31,5.82,11,9.36,18.43C160.17,123.57,159.38,123.64,157.78,123.81Zm-6.2-13c-.7,2.91-1,4.37-1.69,7.28,2-.26,3-.38,5-.6C153.58,114.82,152.93,113.49,151.58,110.82Z" transform="translate(-22.14 -103.15)"/><path class="cls-1" d="M177.89,122.5c-3.24-4.65-4.93-7-8.45-11.49.27,4.73.4,7.09.67,11.82-1.54.08-2.31.13-3.84.24-.54-7.69-.82-11.54-1.35-19.23,1.47-.11,2.2-.16,3.67-.24,3.61,4.52,5.34,6.81,8.68,11.44-.13-4.72-.2-7.08-.33-11.8,1.65,0,2.47-.06,4.12-.09.1,7.72.15,11.57.26,19.28Z" transform="translate(-22.14 -103.15)"/><path class="cls-1" d="M200.37,121a7.47,7.47,0,0,1-5.3,1.59c-2.84-.11-4.25-.14-7.09-.17.08-7.72.13-11.57.22-19.28,3.05,0,4.57.07,7.62.18a7.87,7.87,0,0,1,5.45,2.11c2.23,2.3,1.8,4.94,1.61,7.83S202.71,119,200.37,121Zm-2.08-13a3.74,3.74,0,0,0-3-1.32l-3.08-.09c-.13,5-.2,7.53-.33,12.56l2.94.09a3.54,3.54,0,0,0,3-1.07c.77-.82,1-2.2,1.11-5.12S199,108.89,198.29,108Z" transform="translate(-22.14 -103.15)"/><path class="cls-1" d="M225.29,117.49c-.47,3.13-.71,4.7-1.17,7.82-1.52-.22-2.27-.33-3.78-.53l1-7.84c-1.8-4.83-2.76-7.24-4.77-12,1.78.2,2.67.31,4.45.54,1.16,3.28,1.73,4.92,2.81,8.22,1.93-2.87,2.92-4.29,4.94-7.12,1.77.27,2.66.42,4.43.72C230,111.31,228.37,113.35,225.29,117.49Z" transform="translate(-22.14 -103.15)"/><path class="cls-1" d="M246.21,127.58a8.06,8.06,0,0,1-10.51-2.26c-1.6-2.29-1.12-4.65-.51-7.92s1-5.67,3.44-7.18a7.85,7.85,0,0,1,6-.92,7.77,7.77,0,0,1,5.09,3.31c1.62,2.38,1,4.72.22,8S248.62,126.14,246.21,127.58Zm.07-13.44a3.54,3.54,0,0,0-2.33-1.56,3.64,3.64,0,0,0-2.8.46c-.92.64-1.31,1.48-2,5.11s-.7,4.56-.13,5.51a3.44,3.44,0,0,0,2.26,1.52,3.4,3.4,0,0,0,2.67-.47c.9-.63,1.34-1.44,2.17-5.06S246.86,115.11,246.28,114.14Z" transform="translate(-22.14 -103.15)"/><path class="cls-1" d="M260.19,133.48c-3.89-1.15-6.32-4.56-5.26-8.51l3.27-12.25c1.6.43,2.4.65,4,1.1-1.37,4.83-2.05,7.24-3.41,12.06a3.27,3.27,0,0,0,2.36,4.38,3.31,3.31,0,0,0,4.4-2.37c1.48-4.79,2.23-7.18,3.72-12,1.58.49,2.36.74,3.93,1.25-1.57,4.82-2.36,7.23-3.94,12C268,133.1,264.09,134.63,260.19,133.48Z" transform="translate(-22.14 -103.15)"/><path class="cls-1" d="M283.18,141.29c-.3-3.44-.48-5.16-.87-8.6l-2.7-1-2.67,7.22c-1.46-.54-2.19-.81-3.65-1.33,2.57-7.27,3.86-10.9,6.44-18.17,3.15,1.11,4.72,1.7,7.85,2.91,4.06,1.57,5.41,5.06,4.17,8a5.31,5.31,0,0,1-5.43,3.26c.48,3.77.68,5.65,1,9.41C285.7,142.3,284.86,142,283.18,141.29Zm2.93-16c-1.45-.56-2.18-.83-3.63-1.37l-1.78,4.77c1.44.53,2.15.8,3.57,1.35,1.66.64,3.14.09,3.69-1.29S287.8,126,286.11,125.33Z" transform="translate(-22.14 -103.15)"/><text class="cls-2" transform="translate(0.71 108.07)">Horizons</text></svg>
