<svg id="Layer_1" data-name="Layer 1" xmlns="http://www.w3.org/2000/svg" viewBox="0 0 317.09 131.93"><defs><style>.cls-1,.cls-2{fill:#fff;}.cls-2{stroke:#fff;stroke-miterlimit:10;stroke-width:0.7px;}</style></defs><title>logo</title><path class="cls-1" d="M94.91,139.12c-2.69-7.23-4-10.84-6.72-18.07,5.3-2,8-2.9,13.35-4.61l1,3.2c-3.74,1.19-5.6,1.81-9.31,3.13L94.77,127c3.1-1.11,4.66-1.64,7.79-2.65.41,1.28.61,1.92,1,3.2-3.09,1-4.63,1.52-7.7,2.61l1.57,4.41c3.54-1.26,5.32-1.86,8.89-3,.41,1.28.61,1.92,1,3.2C102.35,136.41,99.86,137.27,94.91,139.12Z" transform="translate(-21.19 -103.14)"/><path class="cls-1" d="M122.61,130.48c-2.15-2.23-3.25-3.33-5.47-5.51-.82,3-1.21,4.5-2,7.5-1.71.49-2.56.74-4.27,1.25,1.23-4.5,1.89-6.75,3.31-11.24-3.32-3-5-4.46-8.47-7.34,1.82-.55,2.73-.81,4.55-1.33,2.11,2,3.15,3,5.19,5,.78-2.78,1.18-4.18,2-7,1.82-.46,2.73-.69,4.56-1.12-1.55,4.23-2.28,6.35-3.66,10.59,3.48,3.18,5.18,4.8,8.49,8.08Z" transform="translate(-21.19 -103.14)"/><path class="cls-1" d="M137.53,119.78c-1.53.29-2.3.43-3.84.74.58,2.85.86,4.27,1.44,7.12-1.52.3-2.28.46-3.79.79-1.63-7.54-2.45-11.31-4.08-18.84,3.22-.7,4.84-1,8.07-1.63,4.31-.81,7.33,1.5,7.85,4.73S141.66,119,137.53,119.78Zm-1.78-8.48c-1.51.28-2.26.43-3.77.73l1.05,5.18c1.47-.3,2.21-.45,3.69-.72,1.79-.34,2.74-1.58,2.47-3.12S137.57,111,135.75,111.3Z" transform="translate(-21.19 -103.14)"/><path class="cls-1" d="M160.32,123.81c-.6-1.31-.91-2-1.52-3.27-2.82.3-4.23.47-7.05.85-.3,1.42-.44,2.13-.73,3.54-1.59.22-2.38.34-4,.59,1.66-8.06,2.6-12.09,4.69-20.13,1.28-.17,1.93-.24,3.21-.39,4,7.31,5.82,11,9.36,18.43C162.72,123.57,161.92,123.64,160.32,123.81Zm-6.19-13c-.71,2.91-1,4.37-1.7,7.28,2-.26,3-.38,5-.6C156.12,114.82,155.47,113.49,154.13,110.82Z" transform="translate(-21.19 -103.14)"/><path class="cls-1" d="M180.43,122.5c-3.24-4.65-4.93-7-8.44-11.49.26,4.73.39,7.09.66,11.82-1.54.08-2.31.13-3.84.24l-1.35-19.24c1.47-.1,2.2-.15,3.67-.23,3.61,4.52,5.35,6.81,8.68,11.44-.13-4.72-.2-7.08-.33-11.8,1.65,0,2.48-.06,4.12-.09.1,7.72.15,11.57.26,19.28Z" transform="translate(-21.19 -103.14)"/><path class="cls-1" d="M202.91,121a7.45,7.45,0,0,1-5.3,1.59c-2.83-.11-4.25-.14-7.09-.18.08-7.71.13-11.56.22-19.28,3,0,4.57.08,7.62.19a7.87,7.87,0,0,1,5.45,2.11c2.23,2.3,1.8,4.94,1.61,7.83S205.25,119,202.91,121Zm-2.08-13a3.74,3.74,0,0,0-3-1.32l-3.08-.09c-.13,5-.2,7.53-.33,12.56l2.94.09a3.54,3.54,0,0,0,3-1.07c.77-.82,1-2.2,1.11-5.12S201.55,108.89,200.83,108Z" transform="translate(-21.19 -103.14)"/><path class="cls-1" d="M227.83,117.49c-.47,3.13-.71,4.7-1.17,7.82-1.51-.22-2.27-.33-3.78-.53l1.05-7.84c-1.8-4.83-2.76-7.24-4.77-12,1.78.2,2.67.31,4.45.54,1.17,3.28,1.73,4.92,2.81,8.22,1.94-2.87,2.92-4.29,4.94-7.12,1.77.27,2.66.42,4.43.72C232.51,111.31,230.91,113.35,227.83,117.49Z" transform="translate(-21.19 -103.14)"/><path class="cls-1" d="M248.75,127.58a8.06,8.06,0,0,1-10.51-2.26c-1.6-2.29-1.12-4.65-.51-7.92s1-5.67,3.44-7.18a7.85,7.85,0,0,1,6-.92,7.77,7.77,0,0,1,5.09,3.31c1.62,2.38,1,4.72.22,8S251.16,126.14,248.75,127.58Zm.07-13.44a3.49,3.49,0,0,0-2.33-1.56,3.6,3.6,0,0,0-2.8.46c-.92.64-1.31,1.48-2,5.11s-.7,4.56-.13,5.5a3.62,3.62,0,0,0,4.93,1.06c.91-.63,1.34-1.44,2.17-5.06S249.4,115.11,248.82,114.14Z" transform="translate(-21.19 -103.14)"/><path class="cls-1" d="M262.73,133.48c-3.89-1.15-6.31-4.56-5.26-8.51l3.27-12.25c1.61.43,2.4.65,4,1.1-1.37,4.82-2.05,7.24-3.41,12.06a3.27,3.27,0,0,0,2.36,4.38,3.31,3.31,0,0,0,4.4-2.37c1.49-4.79,2.23-7.19,3.72-12,1.58.49,2.37.74,3.94,1.25l-3.95,12C270.53,133.1,266.63,134.63,262.73,133.48Z" transform="translate(-21.19 -103.14)"/><path class="cls-1" d="M285.72,141.29c-.3-3.44-.48-5.16-.87-8.6l-2.7-1-2.67,7.21c-1.46-.54-2.19-.8-3.65-1.32,2.57-7.27,3.86-10.9,6.44-18.17,3.15,1.11,4.72,1.7,7.85,2.91,4.06,1.57,5.41,5.06,4.17,8a5.31,5.31,0,0,1-5.43,3.26c.48,3.77.68,5.65,1,9.41C288.24,142.3,287.4,142,285.72,141.29Zm2.93-16c-1.45-.56-2.18-.83-3.63-1.37-.71,1.9-1.07,2.86-1.77,4.77,1.43.53,2.14.8,3.57,1.35,1.65.64,3.13.09,3.68-1.29S290.34,126,288.65,125.33Z" transform="translate(-21.19 -103.14)"/><path class="cls-2" d="M100.38,187l4.55,2.52-2.22,3.87c-7.16,11.22-14.9,11-22.74,7.64L70.4,217.79l-4.55-2.61,9.48-16.44-5-3a109.34,109.34,0,0,0-11.9-6.48l-8.6,14.89c-.29.49-7.84,15-18.28,15-.39,0-.78-.1-1.17-.1-5.32-.68-8.51-4.45-8.8-10.54-.29-9.58,7.26-23.8,22.44-26.6A30.78,30.78,0,0,1,56,183L73.2,153.08l4.55,2.61L61,184.71a95.78,95.78,0,0,1,12,6.58l4.93,2.9,19.25-33.37c2.42-4.26,9.09-11.61,19.35-9l-1.36,5c-8.7-2.41-13.15,6.2-13.44,6.49L82.59,196.51c6.28,2.81,10.83,1.94,15.67-5.8Zm-47.1.58a20.9,20.9,0,0,0-5.61-.67,28,28,0,0,0-2.9.19c-12,2-18.28,13.83-18,21.18.09,2.32.87,5.23,4.06,5.52,6.38.77,12.48-8.52,14.31-12.19Z" transform="translate(-21.19 -103.14)"/><path class="cls-2" d="M130.28,202.9a10.4,10.4,0,0,1-4.84-1.36c-2.42,4.16-5.51,7.84-9.67,9.67a12.81,12.81,0,0,1-5.32,1.17,13.86,13.86,0,0,1-5.9-1.36,11.69,11.69,0,0,1-6.87-7.35c-1.74-5.22-.1-12.19,4.93-20.79,5.13-9,9.09-11.52,14.12-12.48,3.39-.78,8.81-.1,12.19,3.48,2.32,2.32,4.35,7.06,1.84,15.19a67.18,67.18,0,0,1-2.9,7.73,5,5,0,0,0,2.71.87c1.25,0,3.67-.29,5.51-3.48l.48-.87c3-4.93,3.58-6.29,3.68-6.29l4.54,2.42a73.62,73.62,0,0,1-3.67,6.58l-.49.87c-2.32,3.87-5.9,6-9.86,6Zm-16.64,3.58c3.09-1.46,5.8-4.65,8-8.81l-.29-.58a9.88,9.88,0,0,1,4.25-12.67l1-.48c.29-2.42,0-4.84-1.45-6.48a7.49,7.49,0,0,0-5.51-2.13,12.76,12.76,0,0,0-1.84.19c-2.52.49-5.61,1.26-10.74,10-4.16,7.25-5.61,12.86-4.45,16.63a6.89,6.89,0,0,0,4.06,4.16A8.38,8.38,0,0,0,113.64,206.48Z" transform="translate(-21.19 -103.14)"/><path class="cls-2" d="M170.9,190.52c.68-1.26,1.36-2.42,2-3.49l4.55,2.52c-.68,1.06-1.36,2.22-2,3.48l-4.84,8.51c-3.87,6.58-7.93,8.8-10.93,9.48a15.32,15.32,0,0,1-2.13.19,8.82,8.82,0,0,1-4.64-1.25c-6.48-3.87-3.68-13.74-1-18.67l4.74-8.32a11.53,11.53,0,0,1-3.58-3.29c-.48-.77-1-1.55-1.35-2.32L144,190.9,140.24,187,153.3,164.3l4.54,2.61c-4.16,8.61,2.23,11.71,6.1,14l-7.45,12.86c-1,1.94-4.16,9.58-.77,11.71a3.35,3.35,0,0,0,2.7.39c1.55-.29,4.55-1.84,7.64-7Z" transform="translate(-21.19 -103.14)"/><path class="cls-2" d="M192.38,201.54q-4.8,8-11,9.29a9.7,9.7,0,0,1-2.32.29,12.46,12.46,0,0,1-7.16-2.23c-6.09-4.35-3.77-13.15-1.45-17.6l11.12-19.15,4.55,2.61-11,19.05a18.38,18.38,0,0,0-1.55,4.36c-.48,2.32-.58,4.93,1.46,6.38a7.11,7.11,0,0,0,5.32,1.26c2.7-.58,5.22-2.9,7.54-6.87a21.27,21.27,0,0,0,1.64-2.9l.39-.58c1.45-2.42,2.52-4.64,3.39-6.09L194.6,187l4.55,2.52L197.79,192c-.87,1.54-2,3.67-3.48,6.09l-.29.58Zm-1-35a3.63,3.63,0,0,1-7.26,0,3.63,3.63,0,1,1,7.26,0Z" transform="translate(-21.19 -103.14)"/><path class="cls-2" d="M237.74,189.45a62.71,62.71,0,0,1-3.48,6.1l-.48.87c-8.42,14.31-17.12,16.92-25.35,19.54a3.91,3.91,0,0,1-1.35.38c-1.26,5.9-7.93,18.38-15.48,18.38h-.77a6.22,6.22,0,0,1-5.22-4.55c-1.07-3.77.77-7.83,4.93-11.22a40.25,40.25,0,0,1,11.8-6.48,16.54,16.54,0,0,0-2.51-10l.09-1.06c7.35-2.91,15.38-11.8,16.74-18.38.38-2.32-.1-4.06-1.55-5.32-1.84-1.55-3.49-2.13-5-1.84-3.29.58-5.81,4.64-6.58,6.19l-5,8.8L194.6,187l4.26-7.44c.19-.68,4-7.55,10.15-8.81,2.23-.38,5.71-.29,9.48,3.1,3,2.61,4.07,5.9,3.29,10.06-1.26,7.45-8.41,15.38-15.47,20.12a21.59,21.59,0,0,1,1.25,6.67c7.84-2.32,14.51-4.93,21.67-16.93l.48-.87,2.81-4.83.58-1.07Zm-36.85,29.21a29.07,29.07,0,0,0-7.06,4.36c-2.71,2.22-3.58,4.44-3.19,5.7.29.68.58.78.87.78C194.79,230,199.63,221.18,200.89,218.66Z" transform="translate(-21.19 -103.14)"/><path class="cls-2" d="M263,202.9a10.43,10.43,0,0,1-4.84-1.36c-2.42,4.16-5.51,7.84-9.67,9.67a12.77,12.77,0,0,1-5.32,1.17,13.89,13.89,0,0,1-5.9-1.36,11.74,11.74,0,0,1-6.87-7.35c-1.74-5.22-.1-12.19,4.93-20.79,5.13-9,9.1-11.52,14.13-12.48,3.38-.78,8.8-.1,12.18,3.48,2.33,2.32,4.36,7.06,1.84,15.19a67.18,67.18,0,0,1-2.9,7.73,5,5,0,0,0,2.71.87c1.26,0,3.67-.29,5.51-3.48l.49-.87c3-4.93,3.57-6.29,3.67-6.29l4.55,2.42c0,.1-.68,1.45-3.68,6.58l-.48.87c-2.32,3.87-5.9,6-9.87,6Zm-16.64,3.58c3.1-1.46,5.8-4.65,8-8.81l-.29-.58a9.88,9.88,0,0,1,4.25-12.67l1-.48c.29-2.42,0-4.84-1.45-6.48a7.49,7.49,0,0,0-5.51-2.13,12.76,12.76,0,0,0-1.84.19c-2.51.49-5.61,1.26-10.74,10-4.16,7.25-5.61,12.86-4.45,16.63a6.88,6.88,0,0,0,4.07,4.16A8.36,8.36,0,0,0,246.35,206.48Z" transform="translate(-21.19 -103.14)"/><path class="cls-2" d="M318.51,189.55l-.77,1.35c-.68,1.07-1.45,2.52-2.91,5.13l-.48.87c-.77,1.45-8.22,14.31-16.25,14.31-4.55,0-6.67-2.41-7.45-3.86-2.32-4.16-.77-10.16,1.84-14.32,4.26-7.25,6-12.19,5.13-14.8-.29-.68-.68-1.26-2.23-1.93-6.67-2.32-15.28,8.7-17.89,13.35L265.79,210l-4.54-2.61L281.66,172l3.09,1.84c3.78-2.61,8-4.06,12.38-2.52a8.6,8.6,0,0,1,5.32,5.13c1.55,4.26-.09,10.25-5.51,19.25-2,3.38-2.81,7.16-1.74,9,.29.39.68,1.26,2.9,1.26,3.87,0,9.58-7.83,11.7-11.7l.49-.87c1.45-2.42,2.22-4,2.9-5l.68-1.36Z" transform="translate(-21.19 -103.14)"/><path class="cls-2" d="M332.44,189.74c3.09,4.16,6.67,8.71,5.13,14.61a11.66,11.66,0,0,1-8.61,8.22,20.09,20.09,0,0,1-3.78.48,11.13,11.13,0,0,1-8-3c-2.23-2.41-2.91-5.41-1.94-9l5,1.45a3.9,3.9,0,0,0,.68,3.87c1.45,1.45,4.06,1.84,6.67,1.06a6.29,6.29,0,0,0,4.84-4.45c1.06-3.38-1.45-6.48-4.16-10.06-2.42-3.19-5-6.77-5.32-11.12a12.37,12.37,0,0,0-1.26,2l-4,7.06L313.87,187l3.29-5.8c2.51-4.84,9.28-12.57,17.21-10a.62.62,0,0,0,.39.09c0,.1,0,.1.1.1l-.78,2.13-.87,2.8a4.59,4.59,0,0,0-1.06-.09,3.58,3.58,0,0,0-1.94.48c-1,.58-1.64,1.84-1.93,3.87C327.8,183.65,330,186.65,332.44,189.74Z" transform="translate(-21.19 -103.14)"/></svg>