<svg id="Layer_1" data-name="Layer 1" xmlns="http://www.w3.org/2000/svg" xmlns:xlink="http://www.w3.org/1999/xlink" viewBox="0 0 582.72 707.5"><defs><style>.cls-1{fill:url(#linear-gradient);}.cls-2{fill:#cda7c2;}.cls-3{fill:#fefdfd;}.cls-4{fill:#c2dde3;}.cls-5{fill:#628cb2;}.cls-6{fill:url(#linear-gradient-2);}.cls-7{fill:#fbfcca;}.cls-8{fill:#fe767d;}.cls-9{fill:#f6bebd;}.cls-10{fill:#fbe0ad;}</style><linearGradient id="linear-gradient" x1="292.09" y1="524.54" x2="288.88" y2="-109.49" gradientUnits="userSpaceOnUse"><stop offset="0.41" stop-color="#eda29f"/><stop offset="0.52" stop-color="#dda2ae"/><stop offset="0.61" stop-color="#cda1be"/><stop offset="0.65" stop-color="#c4a3be"/><stop offset="0.7" stop-color="#aaa8bd"/><stop offset="0.77" stop-color="#81b1bc"/><stop offset="0.85" stop-color="#47bcbb"/><stop offset="0.87" stop-color="#3fbebb"/></linearGradient><linearGradient id="linear-gradient-2" x1="159.23" y1="705" x2="159.23" y2="598.41" gradientUnits="userSpaceOnUse"><stop offset="0" stop-color="#9f9bbb"/><stop offset="1" stop-color="#628cb2"/></linearGradient></defs><title>background</title><rect class="cls-1" x="0.2" width="582.06" height="707.43"/><rect class="cls-2" x="0.18" y="324.14" width="341.27" height="204.79"/><polygon class="cls-2" points="312.13 279.79 550.72 279.79 582.26 299.88 582.26 524.93 312.13 528.93 312.13 279.79"/><path class="cls-3" d="M523.22,297.94a44.61,44.61,0,1,1,1.21-89.21c24.16.36,43.82,20.49,43.74,44.79A44.68,44.68,0,0,1,523.22,297.94Z" transform="translate(-106.55 -6.32)"/><rect class="cls-4" x="0.33" y="527.23" width="581.92" height="180.19"/><path class="cls-4" d="M477.92,330c-5.38,1.1-10.7,2.53-16.13,3.25-28.24,3.72-56.51,9.3-84.77,12.86-19.86,2.5-39.76,5.7-59.58,8.41-13.12,1.79-26.12,1.36-39.21,3.36-3.55.55-7.24.29-10.86.39-22.94-2.88-45.87-5.92-68.84-8.54a102.47,102.47,0,0,0-21.15-.4c-23.58,2.24-47.1,5-70.64,7.58V316.61c1.08.37,2.2.66,3.25,1.12,17,7.37,34.08,13.42,53.29,12.67,12.54-.49,24.34-3.24,36.05-7,9.3-3,18.48-6.35,28.6-4.62,6.42,1.1,12.85,2.17,19.31,3.07,11.41,1.59,22.65,4,34.44,3,12.62-1.07,25.37-.82,38.06-1.06,3,0,6.08.26,9.12.4,46.57,5.26,93.3,5.76,140.09,4.67Z" transform="translate(-106.55 -6.32)"/><path class="cls-4" d="M106.74,264c12.39-.24,24.79-.61,37.18-.69q162.49-1,325-1.88c6.39,0,12.78-.14,19.17-.21l.25,1.52c-8.51.22-17.39-1-24.26,5.68-17.95.45-36,.13-53.85,1.5-32.82,2.51-64.95,9.34-97.16,15.63-17.8,3.48-35.8,6-53.74,8.73-8.55,1.31-17.19,2.09-25.79,3.11-4.5-.64-9-1.58-13.48-1.89-19.59-1.35-39.17-2.81-58.78-3.62-11.52-.47-23.06-.23-33.94-4.53-6.94-2.75-13.72-5.86-20.57-8.81Z" transform="translate(-106.55 -6.32)"/><path class="cls-5" d="M106.74,278.56c6.85,2.95,13.63,6.06,20.57,8.81,10.88,4.3,22.42,4.06,33.94,4.53,19.61.81,39.19,2.27,58.78,3.62,4.51.31,9,1.25,13.48,1.89,3.35.8,6.67,1.9,10.08,2.36,17.19,2.28,34.47,4,51.59,6.74,9.06,1.43,17.75,5,26.81,6.57,14.22,2.42,28.62,3.92,42.92,5.87a13,13,0,0,1,3.06,1.27,13.82,13.82,0,0,1-2.83.89c-3.64.35-7.3.52-10.95.83-8.44.74-16.88,1.53-25.33,2.3-3-.14-6.08-.45-9.12-.4-12.69.24-25.44,0-38.06,1.06-11.79,1-23-1.43-34.44-3-6.46-.9-12.89-2-19.31-3.07-10.12-1.73-19.3,1.66-28.6,4.62-11.71,3.73-23.51,6.48-36.05,7-19.21.75-36.34-5.3-53.29-12.67-1-.46-2.17-.75-3.25-1.12Z" transform="translate(-106.55 -6.32)"/><path class="cls-2" d="M106.74,356.89c23.54-2.57,47.06-5.34,70.64-7.58a102.47,102.47,0,0,1,21.15.4c69.81,8.33,154.57,1.61,68.29,11.43-15.09,2.81-29.58,3.06-44.75,5.45-17.54,2.77-35.13,5.54-52.82,7.08-20.77,1.81-41.67,2.3-62.51,3.36Z" transform="translate(-106.55 -6.32)"/><path class="cls-6" d="M106.74,668.25c15.58,0,31.19-2.12,46.73.51,20.06,3.39,40,17.81,58.43,45.06-33.57,0-67.61-.64-101.18,0-1.2,0-4.12,0-4.12,0s-.14-6.58.07-13.73C107,689.56,106.74,678.87,106.74,668.25Z" transform="translate(-106.55 -6.32)"/><path class="cls-2" d="M488.31,262.76l-.25-1.52c1.15-.13,87.35-.55,129.31-.63,2.69,3.33,20.83,4.22,24.19,6.72,13,9.6,15.67,8.63,30.86,14.4,3.1,1.18,5.29,15.52,8.22,17.13-13.22,2.57-30.26,5.06-43.51,7.45-22.5,4.06-44.82,7-67.36,10.81-12.3,2.1-24.66,3.91-37,5.8-.47.07-1-.41-1.54-.63q2.89-5.07,5.78-10.16c3.2-1.12,6.32-2.89,9.61-3.25,7-.77,14.15-.77,21.22-1.21,2.18-.13,4.34-.64,6.51-1l-5.89-2.34,2.83-1.67c-1-.21-2-.45-3-.62-1.69-.29-3.39-.56-5.1-.8-2.78-.39-2.87-1-1.16-3.36,4.08-5.55,7.66-11.45,11.32-17.28.81-1.28,3.3-2.89-.18-4.24-6.18-2.39-10.48-1.29-14.92,3.8-.67.77-1.89,1.1-2.85,1.63a17.75,17.75,0,0,0-11.17-8.77c-3.5-.89-7.06-1.6-10.59-2.4a16,16,0,0,1,3.21-1c10.16-.85,20.32-1.62,30.48-2.42A16.5,16.5,0,0,0,569,267c-.22-.19-.4-.5-.65-.57-4.14-1.13-8.26-3.07-12.44-3.19-14.78-.44-29.58-.25-44.38-.31C503.76,262.87,496,262.81,488.31,262.76Zm97.11,30.34.15.84c6.79-1.05,13.69-1.71,20.29-3.42,1.89-.49,2.92-4,4.35-6.18-1.68-.81-3.31-2.14-5.05-2.31a50.92,50.92,0,0,0-11,0c-7.36.91-15.69-.23-20.27,7.63-.52.9-1,1.82-1.54,2.72a17.46,17.46,0,0,0,3.22.69C578.87,293.16,582.15,293.1,585.42,293.1Zm16.05,12.37c6.67-1.29,12.32-2.37,17.95-3.56a2.07,2.07,0,0,0,.13-1.74c-2.48-2.6-5-5.18-7.71-7.55a3.1,3.1,0,0,0-2.89,0,82.44,82.44,0,0,0-9,6.92c-1.1,1-2.13,3.06-1.76,4.21S600.83,305.16,601.47,305.47Zm40.09-6.1c-2.65-.84-4.2-1.83-5.48-1.58s-2.27,1.75-3.39,2.71c1.26,1.05,2.65,3.05,3.75,2.92C637.91,303.23,639.16,301.39,641.56,299.37Z" transform="translate(-106.55 -6.32)"/><path class="cls-4" d="M617.37,260.61l71.91-1c0,12.32-.1,34.55-.09,46.86l-10.87-7.19" transform="translate(-106.55 -6.32)"/><path class="cls-7" d="M537,312.13q-2.89,5.08-5.78,10.16c-10.16,1.84-20.29,3.81-30.47,5.45-4.15.67-8.42.63-12.64.91l-4.59,1c-.37.09-.74.16-1.12.22a2,2,0,0,0-1.09,0l-1.24,0a1.63,1.63,0,0,0-1,0l-1.16.07-9-1.07c-3.2-.41-6.4-.86-9.62-1.21-4.37-.47-8.87-.41-13.07-1.47-1.84-.46-3.93-3-4.26-4.85-.2-1.08,2.66-3.61,4.45-3.93,4.49-.8,9.16-.72,13.75-1,11.91,2.5,23.34,1.43,34.15-4.26,5,.33,10,1,14.95.91C518.54,313,527.78,312.48,537,312.13Z" transform="translate(-106.55 -6.32)"/><path class="cls-4" d="M483.53,329.69l4.59-1Z" transform="translate(-106.55 -6.32)"/><path class="cls-4" d="M479.08,329.91a1.63,1.63,0,0,1,1,0Z" transform="translate(-106.55 -6.32)"/><path class="cls-4" d="M481.32,330a2,2,0,0,1,1.09,0Z" transform="translate(-106.55 -6.32)"/><path class="cls-8" d="M279.27,259.41l-.8.21.33-.66Z" transform="translate(-106.55 -6.32)"/><path class="cls-2" d="M490.38,261.24s-12.14,10.25-6.75,10.65c-3.72,2.87-6.72,6-4.24,11.07a65.46,65.46,0,0,1-8.52,1.14c-15.42.12-30.85.24-46.28,0-5.46-.1-9.8,1.37-13.41,5.17-.59.63-1.12,1.31-1.68,2a11.13,11.13,0,0,0,2.56.75c18.09.78,36.18,1.6,54.27,2.23,7.52.27,8.95,1.47,9.1,8.91-6.07.42-12.15.77-18.21,1.35-1,.1-2,1.22-2.93,1.86a10.43,10.43,0,0,0,2.82,1.28c3.76.51,7.55.84,11.34,1.24-2.77,1.06-5.51,2.19-8.3,3.17-4.49,1.58-2.19,3,.05,4.46-4.59.27-9.26.19-13.75,1-1.79.32-4.65,2.85-4.45,3.93.33,1.87,2.42,4.39,4.26,4.85,4.2,1.06,8.7,1,13.07,1.47,3.22.35,6.42.8,9.62,1.21-46.79,1.09-93.52.59-140.09-4.67,8.45-.77,16.89-1.56,25.33-2.3,3.65-.31,7.31-.48,10.95-.83a13.82,13.82,0,0,0,2.83-.89,13,13,0,0,0-3.06-1.27c-14.3-1.95-28.7-3.45-42.92-5.87-9.06-1.54-17.75-5.14-26.81-6.57-17.12-2.71-17.4-1.46-34.59-3.74-3.41-.46-23.73-4.56-27.08-5.36,8.6-1,17.24-1.8,25.79-3.11,17.94-2.73,35.94-5.25,53.74-8.73,32.21-6.29,130.28-23.91,130.28-23.91M335.44,294.54V293c18.57,0,37.13,0,55.7-.06a13.22,13.22,0,0,0,6.16-1.26c1.58-.89,2.49-2.89,3.7-4.4-2-.14-4.08-.72-5.94-.32-2.14.46-4,2.52-6.09,2.63-24.49,1.31-49,2.38-73.49,3.51-1.54.07-3.1,0-4.64.13a4.54,4.54,0,0,0-1.47.65,5.4,5.4,0,0,0,1.68.6C319.18,294.55,327.31,294.54,335.44,294.54Zm42,8.8,3-1.23c-1-1.69-1.6-4-3.1-4.9s-3.9-.78-5.68-.31c-1.13.31-1.83,2.09-2.72,3.21a46,46,0,0,0,4.54,2.54A18.91,18.91,0,0,0,377.41,303.34Z" transform="translate(-106.55 -6.32)"/><path class="cls-7" d="M483.63,271.89c-5.39-.4-10.79-.67-16.16-1.28-1.21-.13-2.28-1.41-3.42-2.17,6.87-6.71,15.75-5.46,24.26-5.68,7.73.05,15.45.11,23.17.14,14.8.06,29.6-.13,44.38.31,4.18.12,8.3,2.06,12.44,3.19.25.07.43.38.65.57a16.5,16.5,0,0,1-1.66.29c-10.16.8-20.32,1.57-30.48,2.42a16,16,0,0,0-3.21,1c-6.72.37-13.45.91-20.18,1.06C503.5,271.92,493.56,271.84,483.63,271.89Z" transform="translate(-106.55 -6.32)"/><path class="cls-9" d="M475.43,303.1c-.15-7.44-1.58-8.64-9.1-8.91-18.09-.63-36.18-1.45-54.27-2.23a11.13,11.13,0,0,1-2.56-.75c.56-.67,1.09-1.35,1.68-2,3.61-3.8,7.95-5.27,13.41-5.17,15.43.28,30.86.16,46.28,0a65.46,65.46,0,0,0,8.52-1.14c3.77.59,7.52,1.35,11.31,1.73,6.08.62,12.24,1.73,18.28,1.34,15.49-1,30.93-2.76,46.38-4.21,1-.53,2.18-.86,2.85-1.63,4.44-5.09,8.74-6.19,14.92-3.8,3.48,1.35,1,3,.18,4.24-3.66,5.83-7.24,11.73-11.32,17.28-1.71,2.33-1.62,3,1.16,3.36,1.71.24,3.41.51,5.1.8,1,.17,2,.41,3,.62l-2.83,1.67c-3.24-.4-6.48-1-9.73-1.14-8.23-.29-16.47-.4-24.7-.45-3.61,0-3.79-1.74-2.73-4.33,2-2.71,4.2-4.65,8.26-3.46,1,.3,2.8-1.69,4.23-2.62-1.39-1.23-2.62-2.79-4.24-3.57-1-.47-2.59.36-3.93.43-10,.57-19.92,1.41-29.89,1.5-4.87,0-9.74-1.4-14.63-2.05-.61-.08-1.32.59-2,.91,2.74,1.54,5.38,4.14,8.24,4.39,5.88.51,11.87-.24,17.82-.47l10.42.66.08-.1c-1.12,1.12-2.13,3.07-3.39,3.24C506.69,299.38,491.06,301.21,475.43,303.1Z" transform="translate(-106.55 -6.32)"/><path class="cls-10" d="M531.3,298.44c-1.06,2.59-.88,4.31,2.73,4.33,8.23.05,16.47.16,24.7.45,3.25.11,6.49.74,9.73,1.14l5.89,2.34c-2.17.33-4.33.84-6.51,1-7.07.44-14.19.44-21.22,1.21-3.29.36-6.41,2.13-9.61,3.25-9.23.35-18.47.87-27.71,1-5,.06-10-.58-14.95-.91-3.3-3.2-7-3.52-11.65-2.84s-9.49-.29-14.25-.53c-3.79-.4-7.58-.73-11.34-1.24a10.43,10.43,0,0,1-2.82-1.28c1-.64,1.9-1.76,2.93-1.86,6.06-.58,12.14-.93,18.21-1.35,15.63-1.89,31.26-3.72,46.86-5.8,1.26-.17,2.27-2.12,3.39-3.24Z" transform="translate(-106.55 -6.32)"/><path class="cls-3" d="M555.36,281.82C539.91,283.27,524.47,285,509,286c-6,.39-12.2-.72-18.28-1.34-3.79-.38-7.54-1.14-11.31-1.73-2.48-5.07.52-8.2,4.24-11.07,9.93-.05,19.87,0,29.79-.18,6.73-.15,13.46-.69,20.18-1.06,3.53.8,7.09,1.51,10.59,2.4A17.75,17.75,0,0,1,555.36,281.82Z" transform="translate(-106.55 -6.32)"/><path class="cls-9" d="M585.26,293.33a3.48,3.48,0,0,0-2.15-.31,34.15,34.15,0,0,1-10.72-.6c2.32-4.13,4.61-7.47,9.52-8.9,4-1.17,8.28-.53,12.28-1.49a28,28,0,0,1,11.2.13,13,13,0,0,1,3.62,1.43c1.49.87.85,1.26.17,2.58s-1.55,3.89-3.32,4.35c-6.6,1.71-13.44,2.44-20.19,3.39A1,1,0,0,0,585.26,293.33Z" transform="translate(-106.55 -6.32)"/><path class="cls-10" d="M601.48,305.29a4.63,4.63,0,0,1-2.35-.61,2.21,2.21,0,0,1-.88-.94,2.55,2.55,0,0,1,.14-1.91c.84-2.06,2.7-3.39,4.42-4.76,1.87-1.49,5.91-5.75,8.63-4.62a5.52,5.52,0,0,1,1.69,1.28l5.41,5.32a4.43,4.43,0,0,1,1,1.28c1.05,2.38-4.67,2.52-6.2,2.82l-9,1.79A14.52,14.52,0,0,1,601.48,305.29Z" transform="translate(-106.55 -6.32)"/><path class="cls-10" d="M641.56,299.37c-2.4,2-3.65,3.86-5.12,4.05-1.1.13-2.49-1.87-3.75-2.92,1.12-1,2.12-2.47,3.39-2.71S638.91,298.53,641.56,299.37Z" transform="translate(-106.55 -6.32)"/><path class="cls-9" d="M468.45,308.83c4.76.24,9.63,1.2,14.25.53s8.35-.36,11.65,2.84c-10.81,5.69-22.24,6.76-34.15,4.26-2.24-1.46-4.54-2.88-.05-4.46C462.94,311,465.68,309.89,468.45,308.83Z" transform="translate(-106.55 -6.32)"/><path class="cls-9" d="M335.44,294.54c-8.13,0-16.26,0-24.39,0a5.4,5.4,0,0,1-1.68-.6,4.54,4.54,0,0,1,1.47-.65c1.54-.12,3.1-.06,4.64-.13,24.5-1.13,49-2.2,73.49-3.51,2.06-.11,3.95-2.17,6.09-2.63,1.86-.4,3.95.18,5.94.32-1.21,1.51-2.12,3.51-3.7,4.4a13.22,13.22,0,0,1-6.16,1.26c-18.57.09-37.13.06-55.7.06Z" transform="translate(-106.55 -6.32)"/><path class="cls-10" d="M377.41,303.34a18.91,18.91,0,0,1-4-.69,46,46,0,0,1-4.54-2.54c.89-1.12,1.59-2.9,2.72-3.21,1.78-.47,4.26-.57,5.68.31s2.1,3.21,3.1,4.9Z" transform="translate(-106.55 -6.32)"/><path class="cls-3" d="M531.3,298.44l-5.62-4.38-.08.1c-3.25-3.54-6.86-1.75-10.42-.66-5.95.23-11.94,1-17.82.47-2.86-.25-5.5-2.85-8.24-4.39.66-.32,1.37-1,2-.91,4.89.65,9.76,2.09,14.63,2.05,10-.09,19.93-.93,29.89-1.5,1.34-.07,2.94-.9,3.93-.43,1.62.78,2.85,2.34,4.24,3.57-1.43.93-3.19,2.92-4.23,2.62C535.5,293.79,533.33,295.73,531.3,298.44Z" transform="translate(-106.55 -6.32)"/><path class="cls-10" d="M515.18,293.5c3.56-1.09,7.17-2.88,10.42.66Z" transform="translate(-106.55 -6.32)"/></svg>