<svg viewBox="0 0 581 191" fill="none" xmlns="http://www.w3.org/2000/svg">
<g clip-path="url(#clip0)">
<path d="M340.45 121.73H-0.820007V183.52H340.45V121.73Z" fill="#CDA7C2"/>
<path d="M311.13 77.38H549.72L581.26 97.47V179.53L311.13 183.53V77.38Z" fill="#CDA7C2"/>
<path d="M415.66 89.21C409.778 89.1675 403.963 87.9622 398.548 85.6635C393.134 83.3648 388.228 80.0179 384.112 75.8157C379.996 71.6134 376.752 66.6387 374.566 61.1778C372.381 55.7169 371.296 49.8777 371.376 43.9961C371.456 38.1146 372.698 32.3069 375.031 26.9073C377.364 21.5077 380.742 16.6228 384.97 12.5337C389.199 8.44463 394.194 5.23212 399.668 3.08107C405.143 0.930026 410.989 -0.117087 416.87 -1.22776e-05C441.03 0.359988 460.69 20.49 460.61 44.78C460.576 50.6488 459.386 56.4534 457.109 61.8624C454.832 67.2715 451.511 72.1789 447.337 76.3046C443.163 80.4304 438.217 83.6935 432.782 85.9079C427.347 88.1222 421.529 89.2442 415.66 89.21Z" fill="#FEFDFD"/>
<path d="M370.36 121.25C364.99 122.35 359.66 123.78 354.23 124.5C325.99 128.22 297.73 133.8 269.46 137.36C249.61 139.86 229.71 143.05 209.89 145.77C196.77 147.56 183.76 147.13 170.67 149.13C167.12 149.68 163.43 149.41 159.81 149.52C136.87 146.64 113.95 143.59 90.98 140.98C83.9593 140.119 76.8688 139.982 69.82 140.57C46.24 142.82 22.72 145.57 -0.820007 148.16V107.88C0.269993 108.25 1.38999 108.54 2.42999 109C19.38 116.36 36.52 122.42 55.73 121.67C68.26 121.18 80.06 118.43 91.73 114.67C101.02 111.67 110.21 108.32 120.32 110.05C126.75 111.15 133.18 112.22 139.63 113.12C151.04 114.71 162.28 117.12 174.07 116.12C186.7 115.06 199.44 115.31 212.14 115.07C215.14 115.02 218.22 115.33 221.26 115.47C267.82 120.73 314.55 121.23 361.34 120.14L370.36 121.25Z" fill="#C2DDE3"/>
<path d="M-0.820007 55.29C11.57 55.05 23.97 54.67 36.37 54.6C144.69 53.9333 253.023 53.3067 361.37 52.72C367.76 52.72 374.14 52.58 380.53 52.51L380.78 54.03C372.27 54.25 363.39 53.03 356.53 59.71C338.53 60.15 320.53 59.84 302.67 61.21C269.86 63.72 237.72 70.55 205.51 76.84C187.72 80.32 169.72 82.84 151.77 85.57C143.22 86.87 134.58 87.66 125.98 88.68C121.49 88.03 116.98 87.1 112.5 86.79C92.92 85.44 73.33 83.97 53.72 83.17C42.2 82.7 30.67 82.94 19.78 78.64C12.84 75.89 6.05996 72.78 -0.790039 69.83L-0.820007 55.29Z" fill="#C2DDE3"/>
<path d="M-0.820007 69.83C6.02999 72.83 12.81 75.89 19.75 78.64C30.64 82.94 42.17 82.7 53.69 83.17C73.3 83.97 92.89 85.44 112.47 86.79C116.99 87.1 121.47 88.03 125.95 88.68C129.268 89.6343 132.632 90.4187 136.03 91.03C153.22 93.32 170.5 95.03 187.62 97.77C196.69 99.21 205.38 102.77 214.44 104.35C228.66 106.77 243.05 108.26 257.36 110.22C258.411 110.511 259.42 110.938 260.36 111.49C259.452 111.889 258.503 112.187 257.53 112.38C253.89 112.73 250.23 112.89 246.59 113.21C238.14 113.95 229.7 114.74 221.26 115.51C218.26 115.37 215.17 115.06 212.14 115.11C199.44 115.35 186.7 115.11 174.07 116.16C162.28 117.16 151.07 114.74 139.63 113.16C133.18 112.26 126.75 111.16 120.32 110.09C110.21 108.36 101.02 111.75 91.73 114.71C80.01 118.44 68.21 121.19 55.73 121.71C36.52 122.46 19.38 116.4 2.42999 109.04C1.42999 108.58 0.269993 108.29 -0.820007 107.92V69.83Z" fill="#628CB2"/>
<path d="M-0.820007 148.16C22.72 145.59 46.24 142.82 69.82 140.57C76.8688 139.982 83.9593 140.119 90.98 140.98C160.78 149.31 245.54 142.59 159.27 152.41C144.17 155.22 129.68 155.47 114.51 157.86C96.97 160.63 79.38 163.4 61.7 164.94C40.92 166.75 20.02 167.24 -0.820007 168.3V148.16Z" fill="#CDA7C2"/>
<path d="M380.75 54.03L380.5 52.51C381.65 52.38 467.85 51.95 509.81 51.88C512.5 55.21 530.64 56.1 534.01 58.59C546.96 68.19 549.67 67.22 564.87 73C567.97 74.18 570.15 88.52 573.08 90.13C559.86 92.7 542.83 95.19 529.57 97.58C507.07 101.63 484.75 104.58 462.21 108.39C449.91 110.49 437.55 112.3 425.21 114.19C424.74 114.26 424.21 113.78 423.67 113.56L429.46 103.4C432.66 102.27 435.78 100.51 439.07 100.15C446.07 99.37 453.21 99.38 460.28 98.94C462.47 98.81 464.62 98.3 466.79 97.94L460.91 95.62L463.74 93.94C462.74 93.74 461.74 93.5 460.74 93.33C459.05 93.04 457.35 92.77 455.65 92.53C452.86 92.14 452.77 91.53 454.48 89.17C458.57 83.61 462.15 77.72 465.81 71.89C466.61 70.61 469.1 69 465.63 67.65C459.44 65.26 455.15 66.35 450.7 71.45C450.03 72.22 448.82 72.54 447.86 73.08C446.702 70.928 445.112 69.0383 443.19 67.5292C441.268 66.0201 439.055 64.9242 436.69 64.31C433.18 63.42 429.63 62.71 426.1 61.91C427.13 61.468 428.202 61.1329 429.3 60.91C439.46 60.07 449.62 59.3 459.78 58.5C460.34 58.45 460.89 58.31 461.44 58.21C461.23 58.02 461.04 57.71 460.79 57.64C456.65 56.51 452.53 54.57 448.36 54.44C433.57 54.01 418.77 54.2 403.98 54.14C396.2 54.14 388.48 54.08 380.75 54.03ZM477.87 84.37L478.02 85.21C484.8 84.21 491.7 83.5 498.3 81.79C500.19 81.3 501.22 77.79 502.65 75.61C500.97 74.8 499.35 73.47 497.65 73.3C493.994 72.897 490.306 72.897 486.65 73.3C479.28 74.21 470.95 73.07 466.38 80.93C465.85 81.83 465.38 82.74 464.83 83.65C465.879 83.9799 466.957 84.2109 468.05 84.34C471.31 84.43 474.59 84.37 477.87 84.37ZM493.87 96.73C500.53 95.44 506.18 94.37 511.81 93.18C511.956 92.915 512.045 92.6219 512.069 92.3201C512.093 92.0183 512.052 91.7149 511.95 91.43C509.47 88.84 506.95 86.26 504.23 83.89C503.784 83.6577 503.288 83.5365 502.785 83.5365C502.282 83.5365 501.786 83.6577 501.34 83.89C498.193 85.9985 495.186 88.3101 492.34 90.81C491.25 91.81 490.21 93.88 490.59 95.03C490.97 96.18 493.28 96.43 493.92 96.73H493.87ZM533.96 90.63C531.3 89.8 529.76 88.81 528.47 89.06C527.18 89.31 526.2 90.81 525.08 91.76C526.34 92.82 527.73 94.82 528.83 94.68C530.36 94.5 531.6 92.62 534.01 90.62L533.96 90.63Z" fill="#CDA7C2"/>
<path d="M509.81 51.88L581.72 50.88C581.72 63.2 581.62 85.43 581.63 97.74L570.77 90.55" fill="#C2DDE3"/>
<path d="M429.46 103.4L423.67 113.56C413.52 115.4 403.39 117.36 393.2 119.01C389.05 119.67 384.78 119.63 380.56 119.92L375.98 120.92C375.612 121.017 375.238 121.091 374.86 121.14C374.495 121.061 374.116 121.079 373.76 121.19L372.52 121.14C372.195 121.035 371.845 121.035 371.52 121.14L370.36 121.21L361.36 120.14C358.16 119.73 354.96 119.27 351.75 118.93C347.38 118.46 342.88 118.52 338.67 117.46C336.83 117 334.75 114.46 334.41 112.61C334.21 111.52 337.08 109 338.86 108.68C343.36 107.88 348.02 107.96 352.62 107.68C364.53 110.18 375.96 109.1 386.76 103.42C391.76 103.75 396.76 104.42 401.76 104.33C410.99 104.27 420.22 103.75 429.46 103.4Z" fill="#FBFCCA"/>
<path d="M375.98 120.95L380.56 119.95L375.98 120.95Z" fill="#C2DDE3"/>
<path d="M371.52 121.18C371.845 121.075 372.195 121.075 372.52 121.18H371.52Z" fill="#C2DDE3"/>
<path d="M373.76 121.22C374.116 121.109 374.495 121.091 374.86 121.17L373.76 121.22Z" fill="#C2DDE3"/>
<path d="M382.82 52.51C382.82 52.51 370.69 62.76 376.08 63.16C372.35 66.03 369.35 69.16 371.83 74.23C369.021 74.7962 366.179 75.1771 363.32 75.37C347.89 75.49 332.46 75.61 317.04 75.37C311.57 75.27 307.23 76.73 303.63 80.53C303.03 81.16 302.5 81.85 301.94 82.53C302.759 82.885 303.619 83.137 304.5 83.28C322.59 84.07 340.68 84.88 358.77 85.52C366.3 85.79 367.77 86.99 367.88 94.43C361.8 94.85 355.72 95.2 349.66 95.78C348.66 95.88 347.71 97 346.73 97.64C347.605 98.1966 348.555 98.6274 349.55 98.92C353.32 99.43 357.11 99.76 360.89 100.16C358.13 101.22 355.39 102.35 352.59 103.33C348.11 104.91 350.41 106.33 352.65 107.79C348.05 108.06 343.39 107.98 338.89 108.79C337.11 109.11 334.24 111.63 334.44 112.72C334.78 114.58 336.86 117.11 338.7 117.57C342.91 118.63 347.41 118.57 351.78 119.04C354.99 119.38 358.19 119.84 361.39 120.25C314.6 121.34 267.87 120.84 221.31 115.58C229.75 114.81 238.19 114.02 246.64 113.28C250.28 112.96 253.94 112.8 257.58 112.45C258.553 112.257 259.502 111.959 260.41 111.56C259.47 111.008 258.461 110.581 257.41 110.29C243.1 108.29 228.71 106.84 214.49 104.42C205.43 102.87 196.74 99.28 187.67 97.84C170.55 95.14 170.27 96.39 153.08 94.1C149.67 93.65 129.36 89.55 126 88.75C134.6 87.75 143.24 86.94 151.79 85.64C169.79 82.91 187.79 80.39 205.53 76.91C237.74 70.62 335.81 53 335.81 53L382.82 52.51ZM227.88 85.8V84.29C246.45 84.29 265.02 84.29 283.59 84.24C285.712 84.3223 287.822 83.8899 289.74 82.98C291.32 82.09 292.23 80.09 293.44 78.58C291.44 78.44 289.36 77.86 287.5 78.26C285.37 78.72 283.5 80.78 281.41 80.89C256.92 82.19 232.41 83.27 207.93 84.4C206.38 84.47 204.82 84.4 203.28 84.52C202.757 84.6575 202.26 84.8805 201.81 85.18C202.335 85.4675 202.902 85.6701 203.49 85.78C211.62 85.82 219.75 85.8 227.88 85.8ZM269.88 94.61L272.88 93.38C271.88 91.69 271.28 89.38 269.78 88.48C268.28 87.58 265.88 87.7 264.11 88.17C262.98 88.47 262.28 90.26 261.39 91.38C262.851 92.3115 264.363 93.1595 265.92 93.92C267.202 94.2913 268.519 94.526 269.85 94.62L269.88 94.61Z" fill="#CDA7C2"/>
<path d="M376.11 63.16C370.72 62.76 365.31 62.49 359.95 61.88C358.74 61.75 357.66 60.46 356.53 59.71C363.39 53 372.27 54.25 380.78 54.03C388.51 54.03 396.23 54.14 403.96 54.17C418.75 54.23 433.55 54.04 448.34 54.47C452.51 54.6 456.63 56.54 460.77 57.67C461.02 57.74 461.21 58.05 461.42 58.24C460.87 58.34 460.32 58.48 459.76 58.53C449.6 59.33 439.44 60.1 429.28 60.94C428.182 61.1629 427.11 61.498 426.08 61.94C419.35 62.31 412.63 62.85 405.9 62.99C395.94 63.18 386.01 63.11 376.11 63.16Z" fill="#FBFCCA"/>
<path d="M367.88 94.37C367.72 86.93 366.3 85.73 358.77 85.46C340.68 84.82 322.59 84.01 304.5 83.22C303.619 83.077 302.759 82.825 301.94 82.47C302.5 81.81 303.03 81.12 303.63 80.47C307.23 76.67 311.57 75.21 317.04 75.31C332.46 75.59 347.89 75.47 363.32 75.31C366.179 75.1171 369.021 74.7362 371.83 74.17C375.6 74.76 379.35 75.51 383.14 75.9C389.23 76.52 395.39 77.63 401.42 77.24C416.91 76.24 432.35 74.48 447.81 73.03C448.81 72.49 449.98 72.17 450.65 71.4C455.1 66.3 459.39 65.21 465.58 67.6C469.05 68.95 466.58 70.6 465.76 71.84C462.1 77.67 458.52 83.56 454.43 89.12C452.72 91.45 452.81 92.12 455.6 92.48C457.3 92.72 459 92.99 460.69 93.28C461.69 93.45 462.69 93.69 463.69 93.89L460.91 95.62C457.66 95.22 454.42 94.62 451.17 94.48C442.94 94.19 434.71 94.08 426.48 94.03C422.86 94.03 422.69 92.29 423.74 89.7C425.74 86.99 427.94 85.05 432 86.24C433 86.54 434.8 84.55 436.23 83.62C434.84 82.39 433.62 80.83 431.99 80.05C430.99 79.58 429.4 80.41 428.06 80.48C418.06 81.05 408.14 81.89 398.17 81.98C393.3 81.98 388.43 80.57 383.54 79.93C382.94 79.84 382.23 80.52 381.54 80.84C384.28 82.38 386.92 84.98 389.79 85.23C395.66 85.74 401.65 84.99 407.6 84.76L418.02 85.42L418.11 85.32C416.98 86.44 415.97 88.38 414.71 88.55C399.11 90.62 383.5 92.47 367.88 94.37Z" fill="#F6BEBD"/>
<path d="M423.74 89.71C422.74 92.3 422.86 94.02 426.48 94.04C434.71 94.09 442.94 94.2 451.17 94.49C454.42 94.6 457.66 95.23 460.91 95.63L466.79 97.97C464.62 98.3 462.47 98.81 460.28 98.97C453.21 99.41 446.09 99.4 439.07 100.18C435.78 100.54 432.66 102.3 429.46 103.43C420.22 103.78 410.99 104.3 401.75 104.43C396.75 104.48 391.75 103.85 386.75 103.52C383.45 100.32 379.75 100 375.1 100.68C370.45 101.36 365.61 100.39 360.85 100.15C357.07 99.75 353.28 99.42 349.51 98.91C348.515 98.6175 347.565 98.1866 346.69 97.63C347.69 96.99 348.59 95.87 349.62 95.77C355.68 95.19 361.76 94.84 367.84 94.42C383.46 92.52 399.09 90.7 414.69 88.61C415.95 88.44 416.96 86.5 418.09 85.38L423.74 89.71Z" fill="#FBE0AD"/>
<path d="M447.81 73.09C432.35 74.54 416.91 76.27 401.42 77.3C395.42 77.69 389.23 76.58 383.14 75.96C379.35 75.57 375.6 74.82 371.83 74.23C369.35 69.15 372.35 66.03 376.08 63.16C386.01 63.11 395.94 63.16 405.87 62.97C412.6 62.83 419.32 62.29 426.05 61.92C429.58 62.72 433.13 63.43 436.64 64.32C439.005 64.9342 441.218 66.0301 443.14 67.5392C445.062 69.0483 446.652 70.938 447.81 73.09V73.09Z" fill="#FEFDFD"/>
<path d="M477.71 84.62C477.041 84.2905 476.285 84.1819 475.55 84.31C471.971 84.6714 468.357 84.469 464.84 83.71C467.16 79.58 469.44 76.24 474.35 74.81C478.35 73.64 482.63 74.28 486.64 73.32C490.341 72.608 494.147 72.6522 497.83 73.45C499.103 73.7364 500.325 74.2189 501.45 74.88C502.94 75.75 502.3 76.14 501.62 77.45C500.94 78.76 500.07 81.35 498.3 81.81C491.71 83.52 484.86 84.25 478.12 85.2C478.053 84.9656 477.909 84.761 477.71 84.62V84.62Z" fill="#F6BEBD"/>
<path d="M493.92 96.55C493.095 96.5679 492.282 96.3567 491.57 95.94C491.188 95.7276 490.881 95.4029 490.69 95.01C490.588 94.6974 490.549 94.3678 490.575 94.0401C490.6 93.7123 490.691 93.3929 490.84 93.1C491.68 91.04 493.53 89.71 495.25 88.34C497.13 86.85 501.16 82.59 503.88 83.72C504.52 84.0307 505.094 84.4619 505.57 84.99L510.99 90.32C511.397 90.6835 511.736 91.117 511.99 91.6C513.05 93.98 507.33 94.11 505.79 94.42L496.79 96.21C495.848 96.4242 494.886 96.5382 493.92 96.55V96.55Z" fill="#FBE0AD"/>
<path d="M534.01 90.62C531.6 92.62 530.36 94.49 528.88 94.67C527.78 94.81 526.39 92.81 525.13 91.75C526.25 90.8 527.25 89.29 528.52 89.05C529.79 88.81 531.35 89.8 534.01 90.62Z" fill="#FBE0AD"/>
<path d="M360.89 100.1C365.65 100.34 370.53 101.3 375.14 100.63C379.75 99.96 383.49 100.27 386.79 103.47C375.99 109.15 364.56 110.23 352.65 107.73C350.41 106.27 348.11 104.85 352.59 103.27C355.39 102.29 358.11 101.16 360.89 100.1Z" fill="#F6BEBD"/>
<path d="M227.88 85.8C219.75 85.8 211.62 85.8 203.49 85.8C202.902 85.6901 202.335 85.4875 201.81 85.2C202.26 84.9005 202.757 84.6776 203.28 84.54C204.82 84.43 206.38 84.54 207.93 84.42C232.42 83.29 256.93 82.21 281.41 80.91C283.48 80.8 285.41 78.74 287.5 78.28C289.36 77.88 291.5 78.46 293.44 78.6C292.23 80.11 291.32 82.11 289.74 83C287.822 83.91 285.712 84.3423 283.59 84.26C265.02 84.35 246.45 84.31 227.88 84.31V85.8Z" fill="#F6BEBD"/>
<path d="M269.85 94.62C268.496 94.5342 267.155 94.3029 265.85 93.93C264.293 93.1695 262.781 92.3215 261.32 91.39C262.21 90.27 262.91 88.48 264.04 88.18C265.81 87.71 268.3 87.61 269.71 88.49C271.12 89.37 271.82 91.7 272.81 93.39L269.85 94.62Z" fill="#FBE0AD"/>
<path d="M423.74 89.71L418.11 85.33L418.02 85.43C414.77 81.89 411.16 83.68 407.6 84.77C401.6 85 395.66 85.77 389.79 85.24C386.92 84.99 384.28 82.39 381.54 80.85C382.21 80.53 382.92 79.85 383.54 79.94C388.43 80.58 393.3 82.03 398.17 81.99C408.17 81.9 418.1 81.06 428.06 80.49C429.4 80.42 431 79.59 431.99 80.06C433.62 80.84 434.84 82.4 436.23 83.63C434.8 84.56 433.04 86.55 432 86.25C427.94 85.06 425.78 87 423.74 89.71Z" fill="#FEFDFD"/>
<path d="M407.62 84.77C411.18 83.68 414.79 81.89 418.04 85.43L407.62 84.77Z" fill="#FBE0AD"/>
<path d="M373.852 435.705C210.676 453.934 156.768 439.852 81.5341 440.137C89.5145 433.98 226.543 382.59 161.651 318.69C157.905 315 228.231 252.71 231.067 248.514C233.902 244.318 217.357 247.725 218.439 242.735C218.98 240.23 218.181 235.427 216.739 234.912C209.826 232.445 220.387 220.972 213.174 220.909C189.342 220.609 159.283 229.814 135.441 229.664C106.607 229.473 87.4389 234.852 57.5129 239.541C38.6707 241.224 17.7921 249.413 -1.06077 250.936L-1.37251 168.71C109.115 162.664 219.951 142.691 329.439 126.407C413.09 113.935 497.629 100.739 581.045 86.8972C582.208 145.632 580.67 204.458 580.893 263.207C580.897 264.128 581.25 399.587 581.174 400.518C575.332 398.117 543.051 396.658 537.13 394.378C532.361 392.553 527.581 390.529 522.595 389.517C517.478 388.566 512.275 388.16 507.073 388.304C500.63 388.329 494.067 388.354 487.81 389.679C472.425 393.041 457.458 398.334 441.931 400.986C440.072 401.273 429.533 421.427 373.852 435.705Z" fill="url(#paint0_linear)"/>
</g>
<defs>
<linearGradient id="paint0_linear" x1="292.498" y1="444.473" x2="289.334" y2="88.2935" gradientUnits="userSpaceOnUse">
<stop stop-color="#9F9BBB"/>
<stop offset="0.84" stop-color="#628CB2"/>
</linearGradient>
<clipPath id="clip0">
<rect width="583.81" height="505.09" fill="white" transform="translate(-1)"/>
</clipPath>
</defs>
</svg>
