<svg xmlns="http://www.w3.org/2000/svg" xmlns:xlink="http://www.w3.org/1999/xlink" viewBox="0 0 583.81 505.09"><defs><style>.cls-1{fill:#cda7c2;}.cls-2{fill:#fefdfd;}.cls-3{fill:#c2dde3;}.cls-4{fill:#628cb2;}.cls-5{fill:url(#linear-gradient);}.cls-6{fill:#fbfcca;}.cls-7{fill:#fe767d;}.cls-8{fill:#f6bebd;}.cls-9{fill:#fbe0ad;}.cls-10{fill:url(#linear-gradient-2);}</style><linearGradient id="linear-gradient" x1="571.56" y1="797.65" x2="571.56" y2="691.06" gradientUnits="userSpaceOnUse"><stop offset="0" stop-color="#9f9bbb"/><stop offset="1" stop-color="#628cb2"/></linearGradient><linearGradient id="linear-gradient-2" x1="812.65" y1="745.86" x2="810.84" y2="390.09" gradientUnits="userSpaceOnUse"><stop offset="0" stop-color="#9f9bbb"/><stop offset="0.84" stop-color="#628cb2"/></linearGradient></defs><title>simplified technica bg</title><g id="Layer_1" data-name="Layer 1"><rect class="cls-1" x="0.18" y="121.73" width="341.27" height="61.79"/><polygon class="cls-1" points="312.13 77.38 550.72 77.38 582.26 97.47 582.26 179.53 312.13 183.53 312.13 77.38"/><g id="Layer_4" data-name="Layer 4"><path class="cls-2" d="M935.55,390.59a44.61,44.61,0,1,1,1.21-89.21c24.16.36,43.82,20.49,43.74,44.78A44.69,44.69,0,0,1,935.55,390.59Z" transform="translate(-518.89 -301.38)"/></g><g id="Layer_6" data-name="Layer 6"><rect class="cls-3" x="0.33" y="324.83" width="581.92" height="180.19"/></g><path class="cls-3" d="M890.25,422.63c-5.37,1.1-10.7,2.53-16.13,3.25-28.24,3.72-56.5,9.3-84.77,12.86-19.85,2.5-39.75,5.69-59.57,8.41-13.12,1.79-26.13,1.36-39.22,3.36-3.55.55-7.24.28-10.86.39-22.94-2.88-45.86-5.93-68.83-8.54a103.26,103.26,0,0,0-21.16-.41c-23.58,2.25-47.1,5-70.64,7.59V409.26c1.09.37,2.21.66,3.25,1.12,16.95,7.36,34.09,13.42,53.3,12.67,12.53-.49,24.33-3.24,36-7,9.29-3,18.48-6.35,28.59-4.62,6.43,1.1,12.86,2.17,19.31,3.07,11.41,1.59,22.65,4,34.44,3,12.63-1.06,25.37-.81,38.07-1.05,3-.05,6.08.26,9.12.4,46.56,5.26,93.29,5.76,140.08,4.67Z" transform="translate(-518.89 -301.38)"/><path class="cls-3" d="M519.07,356.67c12.39-.24,24.79-.62,37.19-.69q162.48-1,325-1.88c6.39,0,12.77-.14,19.16-.21l.25,1.52c-8.51.22-17.39-1-24.25,5.68-18,.44-36,.13-53.86,1.5-32.81,2.51-64.95,9.34-97.16,15.63-17.79,3.48-35.79,6-53.74,8.73-8.55,1.3-17.19,2.09-25.79,3.11-4.49-.65-9-1.58-13.48-1.89-19.58-1.35-39.17-2.82-58.78-3.62-11.52-.47-23.05-.23-33.94-4.53-6.94-2.75-13.72-5.86-20.57-8.81Z" transform="translate(-518.89 -301.38)"/><path class="cls-4" d="M519.07,371.21c6.85,3,13.63,6.06,20.57,8.81,10.89,4.3,22.42,4.06,33.94,4.53,19.61.8,39.2,2.27,58.78,3.62,4.52.31,9,1.24,13.48,1.89a101.45,101.45,0,0,0,10.08,2.35c17.19,2.29,34.47,4,51.59,6.74,9.07,1.44,17.76,5,26.82,6.58,14.22,2.42,28.61,3.91,42.92,5.87a12.5,12.5,0,0,1,3,1.27,13.63,13.63,0,0,1-2.83.89c-3.64.35-7.3.51-10.94.83-8.45.74-16.89,1.53-25.33,2.3-3-.14-6.09-.45-9.12-.4-12.7.24-25.44,0-38.07,1.05-11.79,1-23-1.42-34.44-3-6.45-.9-12.88-2-19.31-3.07-10.11-1.73-19.3,1.66-28.59,4.62-11.72,3.73-23.52,6.48-36,7-19.21.75-36.35-5.31-53.3-12.67-1-.46-2.16-.75-3.25-1.12Z" transform="translate(-518.89 -301.38)"/><path class="cls-1" d="M519.07,449.54c23.54-2.57,47.06-5.34,70.64-7.59a103.26,103.26,0,0,1,21.16.41c69.8,8.33,154.56,1.61,68.29,11.43-15.1,2.81-29.59,3.06-44.76,5.45-17.54,2.77-35.13,5.54-52.81,7.08-20.78,1.81-41.68,2.3-62.52,3.36Z" transform="translate(-518.89 -301.38)"/><path class="cls-5" d="M519.07,760.9c15.58,0,31.19-2.12,46.73.5,20.06,3.39,40,17.82,58.44,45.07-33.58,0-67.62-.64-101.19,0-1.2,0-4.12,0-4.12,0s-.14-6.58.07-13.73C519.31,782.21,519.07,771.52,519.07,760.9Z" transform="translate(-518.89 -301.38)"/><path class="cls-1" d="M900.64,355.41l-.25-1.52c1.15-.13,87.35-.56,129.31-.63,2.69,3.33,20.83,4.22,24.2,6.71,12.95,9.6,15.66,8.63,30.86,14.41,3.1,1.18,5.28,15.52,8.21,17.13-13.22,2.57-30.25,5.06-43.51,7.45-22.5,4.05-44.82,7-67.36,10.81-12.3,2.1-24.66,3.91-37,5.8-.47.07-1-.41-1.54-.63l5.79-10.16c3.2-1.13,6.32-2.89,9.61-3.25,7-.78,14.14-.77,21.21-1.21,2.19-.13,4.34-.64,6.51-1L980.8,397l2.83-1.68c-1-.2-2-.44-3-.61-1.69-.29-3.39-.56-5.09-.8-2.79-.39-2.88-1-1.17-3.36,4.09-5.56,7.67-11.45,11.33-17.28.8-1.28,3.29-2.89-.18-4.24-6.19-2.39-10.48-1.3-14.93,3.8-.67.77-1.88,1.09-2.84,1.63a17.75,17.75,0,0,0-11.17-8.77c-3.51-.89-7.06-1.6-10.59-2.4a16.37,16.37,0,0,1,3.2-1c10.16-.84,20.32-1.61,30.48-2.41.56-.05,1.11-.19,1.66-.29-.21-.19-.4-.5-.65-.57-4.14-1.13-8.26-3.07-12.43-3.2-14.79-.43-29.59-.24-44.38-.3C916.09,355.52,908.37,355.46,900.64,355.41Zm97.12,30.34.15.84c6.78-1,13.68-1.71,20.28-3.42,1.89-.49,2.92-4,4.35-6.18-1.68-.81-3.3-2.14-5-2.31a50.2,50.2,0,0,0-11,0c-7.37.91-15.7-.23-20.27,7.63-.53.9-1,1.81-1.55,2.72a17.64,17.64,0,0,0,3.22.69C991.2,385.81,994.48,385.75,997.76,385.75Zm16,12.36c6.66-1.29,12.31-2.36,17.94-3.55a2.13,2.13,0,0,0,.14-1.75c-2.48-2.59-5-5.17-7.72-7.54a3.13,3.13,0,0,0-2.89,0,87.1,87.1,0,0,0-9,6.92c-1.09,1-2.13,3.07-1.75,4.22S1013.17,397.81,1013.81,398.11Zm40.09-6.1c-2.66-.83-4.2-1.82-5.49-1.57s-2.27,1.75-3.39,2.7c1.26,1.06,2.65,3.06,3.75,2.92C1050.25,395.88,1051.49,394,1053.9,392Z" transform="translate(-518.89 -301.38)"/><path class="cls-3" d="M1029.7,353.26l71.91-1c0,12.32-.1,34.55-.09,46.86l-10.86-7.19" transform="translate(-518.89 -301.38)"/><path class="cls-6" d="M949.35,404.78l-5.79,10.16c-10.15,1.84-20.28,3.8-30.47,5.45-4.15.66-8.42.62-12.64.91l-4.58,1a8.86,8.86,0,0,1-1.12.22,2.16,2.16,0,0,0-1.1.05l-1.24-.05a1.63,1.63,0,0,0-1,0l-1.16.07-9-1.07c-3.2-.41-6.4-.87-9.61-1.21-4.37-.47-8.87-.41-13.08-1.47-1.84-.46-3.92-3-4.26-4.85-.2-1.09,2.67-3.61,4.45-3.93,4.5-.8,9.16-.72,13.76-1,11.91,2.5,23.34,1.42,34.14-4.26,5,.33,10,1,15,.91C930.88,405.65,940.11,405.13,949.35,404.78Z" transform="translate(-518.89 -301.38)"/><path class="cls-3" d="M895.87,422.33l4.58-1Z" transform="translate(-518.89 -301.38)"/><path class="cls-3" d="M891.41,422.56a1.63,1.63,0,0,1,1,0Z" transform="translate(-518.89 -301.38)"/><path class="cls-3" d="M893.65,422.6a2.16,2.16,0,0,1,1.1-.05Z" transform="translate(-518.89 -301.38)"/><path class="cls-7" d="M691.6,352.06l-.8.21.33-.66Z" transform="translate(-518.89 -301.38)"/><path class="cls-1" d="M902.71,353.89s-12.13,10.25-6.74,10.65c-3.73,2.87-6.73,6-4.25,11.07a65.31,65.31,0,0,1-8.51,1.14c-15.43.12-30.86.24-46.28,0-5.47-.1-9.81,1.36-13.41,5.16-.6.63-1.13,1.32-1.69,2a10.78,10.78,0,0,0,2.56.75c18.09.79,36.18,1.6,54.27,2.24,7.53.27,9,1.47,9.11,8.91-6.08.42-12.16.77-18.22,1.35-1,.1-1.95,1.22-2.93,1.86a11.08,11.08,0,0,0,2.82,1.28c3.77.51,7.56.84,11.34,1.24-2.76,1.06-5.5,2.19-8.3,3.17-4.48,1.58-2.18,3,.06,4.46-4.6.27-9.26.19-13.76,1-1.78.32-4.65,2.84-4.45,3.93.34,1.86,2.42,4.39,4.26,4.85,4.21,1.06,8.71,1,13.08,1.47,3.21.34,6.41.8,9.61,1.21-46.79,1.09-93.52.59-140.08-4.67,8.44-.77,16.88-1.56,25.33-2.3,3.64-.32,7.3-.48,10.94-.83a13.63,13.63,0,0,0,2.83-.89,12.5,12.5,0,0,0-3-1.27c-14.31-2-28.7-3.45-42.92-5.87-9.06-1.55-17.75-5.14-26.82-6.58-17.12-2.7-17.4-1.45-34.59-3.74-3.41-.45-23.72-4.55-27.08-5.35,8.6-1,17.24-1.81,25.79-3.11,18-2.73,36-5.25,53.74-8.73,32.21-6.29,130.28-23.91,130.28-23.91M747.77,387.18v-1.51c18.57,0,37.14,0,55.71-.05a13.16,13.16,0,0,0,6.15-1.26c1.58-.89,2.49-2.89,3.7-4.4-2-.14-4.08-.72-5.94-.32-2.13.46-4,2.52-6.09,2.63-24.49,1.3-49,2.38-73.48,3.51-1.55.07-3.11,0-4.65.12a4.91,4.91,0,0,0-1.47.66,5.66,5.66,0,0,0,1.68.6C731.51,387.2,739.64,387.18,747.77,387.18Zm42,8.81,3-1.23c-1-1.69-1.6-4-3.1-4.9s-3.9-.78-5.67-.31c-1.13.3-1.83,2.09-2.72,3.21a45.88,45.88,0,0,0,4.53,2.54A18.91,18.91,0,0,0,789.74,396Z" transform="translate(-518.89 -301.38)"/><path class="cls-6" d="M896,364.54c-5.39-.4-10.8-.67-16.16-1.28-1.21-.13-2.29-1.42-3.42-2.17,6.86-6.71,15.74-5.46,24.25-5.68,7.73,0,15.45.11,23.18.14,14.79.06,29.59-.13,44.38.3,4.17.13,8.29,2.07,12.43,3.2.25.07.44.38.65.57-.55.1-1.1.24-1.66.29-10.16.8-20.32,1.57-30.48,2.41a16.37,16.37,0,0,0-3.2,1c-6.73.37-13.45.91-20.18,1.05C915.83,364.56,905.9,364.49,896,364.54Z" transform="translate(-518.89 -301.38)"/><path class="cls-8" d="M887.77,395.75c-.16-7.44-1.58-8.64-9.11-8.91-18.09-.64-36.18-1.45-54.27-2.24a10.78,10.78,0,0,1-2.56-.75c.56-.66,1.09-1.35,1.69-2,3.6-3.8,7.94-5.26,13.41-5.16,15.42.28,30.85.16,46.28,0a65.31,65.31,0,0,0,8.51-1.14c3.77.59,7.52,1.34,11.31,1.73,6.09.62,12.25,1.73,18.28,1.34,15.49-1,30.93-2.76,46.39-4.21,1-.54,2.17-.86,2.84-1.63,4.45-5.1,8.74-6.19,14.93-3.8,3.47,1.35,1,3,.18,4.24-3.66,5.83-7.24,11.72-11.33,17.28-1.71,2.33-1.62,3,1.17,3.36,1.7.24,3.4.51,5.09.8,1,.17,2,.41,3,.61L980.8,397c-3.25-.4-6.49-1-9.74-1.14-8.23-.29-16.46-.4-24.69-.45-3.62,0-3.79-1.74-2.74-4.33,2-2.71,4.2-4.65,8.26-3.46,1,.3,2.8-1.69,4.23-2.62-1.39-1.23-2.61-2.79-4.24-3.57-1-.47-2.59.36-3.93.43-10,.57-19.92,1.41-29.89,1.5-4.87,0-9.74-1.41-14.63-2.05-.6-.09-1.31.59-2,.91,2.74,1.54,5.38,4.14,8.25,4.39,5.87.51,11.86-.24,17.81-.47l10.42.66.09-.1c-1.13,1.12-2.14,3.06-3.4,3.23C919,392,903.39,393.85,887.77,395.75Z" transform="translate(-518.89 -301.38)"/><path class="cls-9" d="M943.63,391.09c-1,2.59-.88,4.31,2.74,4.33,8.23.05,16.46.16,24.69.45,3.25.11,6.49.74,9.74,1.14l5.88,2.34c-2.17.33-4.32.84-6.51,1-7.07.44-14.19.43-21.21,1.21-3.29.36-6.41,2.12-9.61,3.25-9.24.35-18.47.87-27.71,1-5,.05-10-.58-15-.91-3.3-3.2-7-3.52-11.65-2.84s-9.49-.29-14.25-.53c-3.78-.4-7.57-.73-11.34-1.24a11.08,11.08,0,0,1-2.82-1.28c1-.64,1.9-1.76,2.93-1.86,6.06-.58,12.14-.93,18.22-1.35,15.62-1.9,31.25-3.72,46.85-5.81,1.26-.17,2.27-2.11,3.4-3.23Z" transform="translate(-518.89 -301.38)"/><path class="cls-2" d="M967.7,374.47c-15.46,1.45-30.9,3.18-46.39,4.21-6,.39-12.19-.72-18.28-1.34-3.79-.39-7.54-1.14-11.31-1.73-2.48-5.08.52-8.2,4.25-11.07,9.93-.05,19.86,0,29.79-.19,6.73-.14,13.45-.68,20.18-1.05,3.53.8,7.08,1.51,10.59,2.4A17.75,17.75,0,0,1,967.7,374.47Z" transform="translate(-518.89 -301.38)"/><path class="cls-8" d="M997.6,386a3.52,3.52,0,0,0-2.16-.31,34.39,34.39,0,0,1-10.71-.6c2.32-4.13,4.6-7.47,9.51-8.9,4-1.17,8.28-.53,12.29-1.49a27.93,27.93,0,0,1,11.19.13,12.61,12.61,0,0,1,3.62,1.43c1.49.87.85,1.26.17,2.57s-1.55,3.9-3.32,4.36c-6.59,1.71-13.44,2.44-20.18,3.39A1.07,1.07,0,0,0,997.6,386Z" transform="translate(-518.89 -301.38)"/><path class="cls-9" d="M1013.81,397.93a4.46,4.46,0,0,1-2.35-.61,2.13,2.13,0,0,1-.88-.93,2.5,2.5,0,0,1,.15-1.91c.84-2.06,2.69-3.39,4.41-4.76,1.88-1.49,5.91-5.75,8.63-4.62a5.53,5.53,0,0,1,1.69,1.27l5.42,5.33a4.57,4.57,0,0,1,1,1.28c1.06,2.38-4.66,2.51-6.2,2.82l-9,1.79A13.7,13.7,0,0,1,1013.81,397.93Z" transform="translate(-518.89 -301.38)"/><path class="cls-9" d="M1053.9,392c-2.41,2-3.65,3.87-5.13,4.05-1.1.14-2.49-1.86-3.75-2.92,1.12-.95,2.12-2.46,3.39-2.7S1051.24,391.18,1053.9,392Z" transform="translate(-518.89 -301.38)"/><path class="cls-8" d="M880.78,401.48c4.76.24,9.64,1.2,14.25.53s8.35-.36,11.65,2.84c-10.8,5.68-22.23,6.76-34.14,4.26-2.24-1.46-4.54-2.88-.06-4.46C875.28,403.67,878,402.54,880.78,401.48Z" transform="translate(-518.89 -301.38)"/><path class="cls-8" d="M747.77,387.18c-8.13,0-16.26,0-24.39,0a5.66,5.66,0,0,1-1.68-.6,4.91,4.91,0,0,1,1.47-.66c1.54-.11,3.1,0,4.65-.12,24.49-1.13,49-2.21,73.48-3.51,2.07-.11,4-2.17,6.09-2.63,1.86-.4,4,.18,5.94.32-1.21,1.51-2.12,3.51-3.7,4.4a13.16,13.16,0,0,1-6.15,1.26c-18.57.09-37.14.05-55.71.05Z" transform="translate(-518.89 -301.38)"/><path class="cls-9" d="M789.74,396a18.91,18.91,0,0,1-4-.69,45.88,45.88,0,0,1-4.53-2.54c.89-1.12,1.59-2.91,2.72-3.21,1.77-.47,4.26-.57,5.67.31s2.11,3.21,3.1,4.9Z" transform="translate(-518.89 -301.38)"/><path class="cls-2" d="M943.63,391.09,938,386.71l-.09.1c-3.25-3.54-6.86-1.75-10.42-.66-6,.23-11.94,1-17.81.47-2.87-.25-5.51-2.85-8.25-4.39.67-.32,1.38-1,2-.91,4.89.64,9.76,2.09,14.63,2.05,10-.09,19.93-.93,29.89-1.5,1.34-.07,2.94-.9,3.93-.43,1.63.78,2.85,2.34,4.24,3.57-1.43.93-3.19,2.92-4.23,2.62C947.83,386.44,945.67,388.38,943.63,391.09Z" transform="translate(-518.89 -301.38)"/><path class="cls-9" d="M927.51,386.15c3.56-1.09,7.17-2.88,10.42.66Z" transform="translate(-518.89 -301.38)"/></g><g id="wave"><path class="cls-10" d="M894,737.41C730.83,755,677,740.73,601.8,740.73c8-6.12,145.16-56.93,80.54-121-3.73-3.7,66.8-65.65,69.65-69.83s-13.7-.84-12.6-5.82c.55-2.5-.23-7.3-1.67-7.82-6.9-2.49,3.7-13.91-3.51-14-23.82-.39-53.9,8.69-77.73,8.45-28.82-.3-48,5-77.93,9.57-18.84,1.61-39.74,9.71-58.59,11.16V469.31c110.46-5.62,221.32-25.15,330.82-41,83.66-12.14,168.21-25,251.64-38.51.94,58.67-.82,117.42-.82,176.1,0,.92-.16,136.22-.24,137.15-5.83-2.42-38.09-4-44-6.3-4.76-1.84-9.53-3.88-14.51-4.91a73.79,73.79,0,0,0-15.51-1.27c-6.44,0-13,0-19.26,1.3-15.39,3.3-30.37,8.53-45.9,11.12C960.32,703.27,949.71,723.36,894,737.41Z" transform="translate(-518.89 -301.38)"/></g><g id="Layer_11" data-name="Layer 11"><path class="cls-3" d="M519.5,546c0-1.29,42.56-11.28,47.59-12.83a317.62,317.62,0,0,1,50.78-10.87c34.71-4.71,69.86-4.9,104.85-5,5.13,0,118.44-13.82,123.52-14.49,19-2.52-24.13-.25-19.35,22.7,21,100.75-103.55,104.12-103.71,104.12-18.09,0-24.36-11.45-23-7.7,2.76,7.82,90.36,34.66,89.15,42.83-5,33.52-36.06,28.88-73.19,43.21-48.43,12.27-89.74,26.41-120.38,26.41-18.41-27.25-9.43-67.71-29.49-71.1-15.54-2.62-31.15-.51-46.73-.5Z" transform="translate(-518.89 -301.38)"/><path class="cls-3" d="M810.3,708.26c15.48-12.69,153.43-13.36,174.84-23.34,15.3-12.6,27.91-7.55,43.3-18.65,6.22-4.48,12.82-4.23,19.25-4.37a25,25,0,0,1,15.52,4.27c5,3.46,9.75,10.33,14.51,16.52,5.89,7.67,17.35-17.72,23.18-9.57q.12,17.39.26,34.77C1048,707.89,863.43,708.26,810.3,708.26Z" transform="translate(-518.89 -301.38)"/></g></svg>
