<svg width="580" height="335" viewBox="0 0 580 335" fill="none" xmlns="http://www.w3.org/2000/svg">
<g clip-path="url(#clip0)">
<path d="M340.45 -47.27H-0.820007V14.52H340.45V-47.27Z" fill="#CDA7C2"/>
<path d="M311.13 -91.62H549.72L581.26 -71.53V10.53L311.13 14.53V-91.62Z" fill="#CDA7C2"/>
<path d="M581.25 155.83H-0.670044V336.02H581.25V155.83Z" fill="#C2DDE3"/>
<path d="M373.852 266.705C210.676 284.934 156.768 270.852 81.5341 271.137C89.5145 264.98 226.543 213.59 161.651 149.69C157.905 146 228.231 83.7096 231.067 79.5139C233.902 75.3182 217.357 78.7249 218.439 73.7349C218.98 71.2299 218.181 66.4272 216.739 65.9121C209.826 63.4453 220.387 51.9717 213.174 51.909C189.342 51.6089 159.283 60.8136 135.441 60.6637C106.607 60.4727 87.4389 65.8516 57.5129 70.5405C38.6707 72.2239 17.7921 80.4126 -1.06076 81.9358L-1.3725 -0.290382C109.115 -6.33595 219.951 -26.3093 329.439 -42.5932C413.09 -55.0648 497.629 -68.2605 581.045 -82.1028C582.208 -23.3677 580.67 35.4578 580.893 94.2066C580.897 95.1277 581.25 230.587 581.174 231.518C575.332 229.117 543.051 227.658 537.13 225.378C532.361 223.553 527.581 221.529 522.595 220.517C517.478 219.566 512.275 219.16 507.073 219.304C500.63 219.329 494.067 219.354 487.81 220.679C472.425 224.041 457.458 229.334 441.931 231.986C440.072 232.273 429.533 252.427 373.852 266.705Z" fill="url(#paint0_linear)"/>
<path d="M-0.390015 75.62C-0.390015 74.33 42.17 64.34 47.2 62.79C63.8016 57.7866 80.785 54.1512 97.98 51.92C132.69 47.21 167.84 47.02 202.83 46.92C207.96 46.92 321.27 33.1 326.35 32.43C345.35 29.91 302.22 32.18 307 55.13C328 155.88 203.45 159.25 203.29 159.25C185.2 159.25 178.93 147.8 180.29 151.55C183.05 159.37 270.65 186.21 269.44 194.38C264.44 227.9 233.38 223.26 196.25 237.59C147.82 249.86 106.51 264 75.87 264C57.46 236.75 66.44 196.29 46.38 192.9C30.84 190.28 15.23 192.39 -0.350037 192.4L-0.390015 75.62Z" fill="#C2DDE3"/>
<path d="M290.41 237.88C305.89 225.19 443.84 224.52 465.25 214.54C480.55 201.94 493.16 206.99 508.55 195.89C514.77 191.41 521.37 191.66 527.8 191.52C533.303 191.193 538.759 192.695 543.32 195.79C548.32 199.25 553.07 206.12 557.83 212.31C563.72 219.98 575.18 194.59 581.01 202.74C581.09 214.333 581.177 225.923 581.27 237.51C528.11 237.51 343.54 237.88 290.41 237.88Z" fill="#C2DDE3"/>
</g>
<defs>
<linearGradient id="paint0_linear" x1="292.498" y1="275.473" x2="289.334" y2="-80.7065" gradientUnits="userSpaceOnUse">
<stop stop-color="#9F9BBB"/>
<stop offset="0.84" stop-color="#628CB2"/>
</linearGradient>
<clipPath id="clip0">
<rect width="580" height="335" fill="white"/>
</clipPath>
</defs>
</svg>
