<svg id="Layer_1" data-name="Layer 1" xmlns="http://www.w3.org/2000/svg" xmlns:xlink="http://www.w3.org/1999/xlink" viewBox="0 0 582.73 356.42"><defs><style>.cls-1{fill:url(#linear-gradient);}</style><linearGradient id="linear-gradient" x1="361.68" y1="527.59" x2="359.88" y2="171.81" gradientUnits="userSpaceOnUse"><stop offset="0" stop-color="#9f9bbb"/><stop offset="0.84" stop-color="#628cb2"/></linearGradient></defs><title>wave</title><path class="cls-1" d="M443.06,519.14c-163.19,17.55-217,3.32-292.22,3.32,8-6.13,145.16-56.93,80.54-121-3.74-3.71,66.8-65.65,69.64-69.84s-13.69-.83-12.59-5.82c.54-2.49-.23-7.29-1.67-7.81-6.9-2.49,3.7-13.91-3.51-14-23.83-.38-53.9,8.7-77.73,8.45-28.83-.29-48,5-77.94,9.58C108.75,323.6,87.85,331.7,69,333.15V251c110.45-5.63,221.32-25.15,330.82-41,83.66-12.14,168.21-25,251.63-38.52.94,58.68-.81,117.42-.81,176.11,0,.92-.16,136.22-.24,137.15-5.83-2.42-38.09-4-44-6.3-4.76-1.85-9.54-3.89-14.51-4.92a74.5,74.5,0,0,0-15.52-1.26c-6.43,0-13,0-19.25,1.3-15.4,3.3-30.37,8.53-45.9,11.12C509.35,485,498.75,505.09,443.06,519.14Z" transform="translate(-69 -171.48)"/></svg>