<svg id="Layer_1" data-name="Layer 1" xmlns="http://www.w3.org/2000/svg" viewBox="0 0 581.66 232.38"><defs><style>.cls-1{fill:#c2dde3;}</style></defs><title>static_wave</title><path class="cls-1" d="M68.79,282.8c0-1.29,42.57-11.28,47.59-12.83a318,318,0,0,1,50.79-10.87c34.71-4.71,69.86-4.9,104.85-5.05,5.13,0,118.43-13.82,123.51-14.49,19-2.51-24.13-.25-19.35,22.7,21,100.75-103.54,104.12-103.71,104.12-18.08,0-24.36-11.45-23-7.7,2.76,7.83,90.37,34.66,89.15,42.83-5,33.52-36.06,28.88-73.18,43.21C217,457,175.65,471.13,145,471.13c-18.42-27.25-9.43-67.71-29.49-71.1-15.54-2.62-31.16-.51-46.74-.5Z" transform="translate(-68.79 -238.75)"/><path class="cls-1" d="M359.6,445.09C375.08,432.4,513,431.73,534.44,421.75c15.29-12.59,27.9-7.55,43.3-18.65,6.21-4.48,12.82-4.23,19.25-4.37A25,25,0,0,1,612.5,403c5,3.46,9.76,10.33,14.52,16.53,5.89,7.66,17.34-17.72,23.17-9.58q.13,17.39.26,34.77C597.33,444.72,412.72,445.09,359.6,445.09Z" transform="translate(-68.79 -238.75)"/></svg>