<svg xmlns="http://www.w3.org/2000/svg" viewBox="0 0 499 499"><defs><style>.cls-1{fill:#48a1a8;}.cls-2,.cls-3,.cls-4,.cls-5{fill:none;}.cls-2,.cls-3,.cls-5{stroke:#f2f2f2;}.cls-2,.cls-4,.cls-5{stroke-linecap:round;stroke-linejoin:round;}.cls-2,.cls-3,.cls-4{stroke-width:5px;}.cls-3{stroke-miterlimit:10;}.cls-4{stroke:aqua;}.cls-5{stroke-width:2px;}.cls-6{fill:#f2f2f2;}</style></defs><title>waves</title><g id="Layer_7" data-name="Layer 7"><circle class="cls-1" cx="249.5" cy="249.5" r="249.5"/></g><g id="Layer_2" data-name="Layer 2"><path class="cls-2" d="M411.16,627.11c3.38-1,6.78-2.21,10.34-3.61,20.93-8.2,35.7-20,42-25a228.08,228.08,0,0,0,22-20c7.59-7.69,9.72-10.77,27-30,13-14.45,15-16.29,17-18,8.12-6.92,16.28-13.88,29-17,4.28-1,17.64-4.14,32,2,3.89,1.66,11.54,5,17,13,7.79,11.43,6.49,26.29,4,27-1.5.43-2.5-4.52-8-7-5.9-2.66-11.75-.11-12,0-4.72,2.14-6.76,6.34-8,9-3.83,8.2-3.34,18.71,1,27,6.09,11.62,17.5,15.93,23,18,4.32,1.63,16.83,6.13,39,1a149.5,149.5,0,0,0,35.37-13.45c3.08-1.64,2.54-1.48,4.63-2.55,17.13-8.78,33.7-9,42-9a109.32,109.32,0,0,1,41,8" transform="translate(-293.5 -240.5)"/><path class="cls-2" d="M330.5,616.5c10.48-2.13,25.64-5.2,41-16a127.79,127.79,0,0,0,29-29c2.79-4.08,8.06-12.44,18-19a34.08,34.08,0,0,1,11-5c3.25-.79,10.45-2.54,18,1,1,.48,10.25,5,12,14,.88,4.55-.25,9.65-2,10s-2.76-4.9-7-6a8.46,8.46,0,0,0-9,4c-2.12,3.74-.17,7.66,0,8,1.59,3.08,4.63,4.16,7,5a20.79,20.79,0,0,0,9,1c10.7-1,24.1-6.45,27-8" transform="translate(-293.5 -240.5)"/><path class="cls-3" d="M616.5,581.5" transform="translate(-293.5 -240.5)"/><path class="cls-4" d="M325.5,406.5" transform="translate(-293.5 -240.5)"/><path class="cls-3" d="M486.51,578.14a85.49,85.49,0,1,1,107.78,17.61" transform="translate(-293.5 -240.5)"/></g><g id="Layer_5" data-name="Layer 5"><path class="cls-5" d="M621.37,489.76a76.59,76.59,0,0,1,6.44,44.09" transform="translate(-293.5 -240.5)"/><path class="cls-5" d="M364,613a108.47,108.47,0,0,0,35-29" transform="translate(-293.5 -240.5)"/><path class="cls-5" d="M402,580c.62-1,1.29-2,2-3,1-1.43,2-2.77,3-4" transform="translate(-293.5 -240.5)"/><path class="cls-5" d="M426,629a196,196,0,0,0,26-14,215.26,215.26,0,0,0,18-13,236.86,236.86,0,0,0,20-18c2.92-2.94,4.85-5,22-25,12.43-14.48,15.22-17.81,21-23,6.33-5.69,10.87-9.71,18-13a56.11,56.11,0,0,1,25-5" transform="translate(-293.5 -240.5)"/><path class="cls-5" d="M581,519a38.08,38.08,0,0,1,7,2,36.54,36.54,0,0,1,6,3,25.19,25.19,0,0,1,4,3,22.5,22.5,0,0,1,4,5" transform="translate(-293.5 -240.5)"/><path class="cls-5" d="M604,536a18.61,18.61,0,0,1,1,2,19.12,19.12,0,0,1,1,3" transform="translate(-293.5 -240.5)"/><path class="cls-5" d="M703.18,587.76c2.77-.64,5.72-1.24,8.82-1.76,2.42-.41,4.75-.73,7-1" transform="translate(-293.5 -240.5)"/><path class="cls-5" d="M691,592.52c2.53-1.26,4-2,5.58-2.63" transform="translate(-293.5 -240.5)"/><path class="cls-5" d="M610,610a76.1,76.1,0,0,0,11,2,78.11,78.11,0,0,0,16,0,86,86,0,0,0,15-3,128.33,128.33,0,0,0,17-6c5.07-2.13,9-4.09,17-8,2-1,3.66-1.82,5-2.48" transform="translate(-293.5 -240.5)"/><path class="cls-6" d="M613.84,562.62a1.5,1.5,0,0,0,0-3,1.5,1.5,0,0,0,0,3Z" transform="translate(-293.5 -240.5)"/><path class="cls-6" d="M606,560.63a1.5,1.5,0,0,0,0-3,1.5,1.5,0,0,0,0,3Z" transform="translate(-293.5 -240.5)"/><path class="cls-6" d="M597.92,558.68a1.5,1.5,0,0,0,0-3,1.5,1.5,0,0,0,0,3Z" transform="translate(-293.5 -240.5)"/><path class="cls-6" d="M589.42,566.54a1.5,1.5,0,0,0,0-3,1.5,1.5,0,0,0,0,3Z" transform="translate(-293.5 -240.5)"/><path class="cls-6" d="M596.65,566.22a1.5,1.5,0,0,0,0-3,1.5,1.5,0,0,0,0,3Z" transform="translate(-293.5 -240.5)"/><path class="cls-6" d="M606.13,568.77a1.5,1.5,0,0,0,0-3,1.5,1.5,0,0,0,0,3Z" transform="translate(-293.5 -240.5)"/><path class="cls-6" d="M596.14,573.25a1.5,1.5,0,0,0,0-3,1.5,1.5,0,0,0,0,3Z" transform="translate(-293.5 -240.5)"/><path class="cls-6" d="M448.44,574.55a1.5,1.5,0,0,0,0-3,1.5,1.5,0,0,0,0,3Z" transform="translate(-293.5 -240.5)"/><path class="cls-6" d="M449.37,580.46a1.5,1.5,0,0,0,0-3,1.5,1.5,0,0,0,0,3Z" transform="translate(-293.5 -240.5)"/><path class="cls-6" d="M461.5,579.53a1.5,1.5,0,0,0,0-3,1.5,1.5,0,0,0,0,3Z" transform="translate(-293.5 -240.5)"/><path class="cls-6" d="M454.66,578a1.5,1.5,0,0,0,0-3,1.5,1.5,0,0,0,0,3Z" transform="translate(-293.5 -240.5)"/><path class="cls-6" d="M392.68,568.77a1.5,1.5,0,0,0,0-3,1.5,1.5,0,0,0,0,3Z" transform="translate(-293.5 -240.5)"/><path class="cls-6" d="M402.08,558a1.5,1.5,0,0,0,0-3,1.5,1.5,0,0,0,0,3Z" transform="translate(-293.5 -240.5)"/><path class="cls-6" d="M396.51,552.39a1.5,1.5,0,0,0,0-3,1.5,1.5,0,0,0,0,3Z" transform="translate(-293.5 -240.5)"/><path class="cls-6" d="M398.6,561.8a1.5,1.5,0,0,0,0-3,1.5,1.5,0,0,0,0,3Z" transform="translate(-293.5 -240.5)"/><path class="cls-6" d="M414.28,548.21a1.5,1.5,0,0,0,0-3,1.5,1.5,0,0,0,0,3Z" transform="translate(-293.5 -240.5)"/><path class="cls-6" d="M408,547.52a1.5,1.5,0,0,0,0-3,1.5,1.5,0,0,0,0,3Z" transform="translate(-293.5 -240.5)"/><path class="cls-6" d="M409.75,554.14a1.5,1.5,0,0,0,0-3,1.5,1.5,0,0,0,0,3Z" transform="translate(-293.5 -240.5)"/><path class="cls-6" d="M384.32,570.86a1.5,1.5,0,0,0,0-3,1.5,1.5,0,0,0,0,3Z" transform="translate(-293.5 -240.5)"/><path class="cls-6" d="M387.11,577.82a1.5,1.5,0,0,0,0-3,1.5,1.5,0,0,0,0,3Z" transform="translate(-293.5 -240.5)"/><path class="cls-6" d="M500.31,551.35a1.5,1.5,0,0,0,0-3,1.5,1.5,0,0,0,0,3Z" transform="translate(-293.5 -240.5)"/><path class="cls-6" d="M505.54,543.69a1.5,1.5,0,0,0,0-3,1.5,1.5,0,0,0,0,3Z" transform="translate(-293.5 -240.5)"/><path class="cls-6" d="M515.29,537.42a1.5,1.5,0,0,0,0-3,1.5,1.5,0,0,0,0,3Z" transform="translate(-293.5 -240.5)"/><path class="cls-6" d="M498.57,538.81a1.5,1.5,0,0,0,0-3,1.5,1.5,0,0,0,0,3Z" transform="translate(-293.5 -240.5)"/><path class="cls-6" d="M506.58,535a1.5,1.5,0,0,0,0-3,1.5,1.5,0,0,0,0,3Z" transform="translate(-293.5 -240.5)"/><path class="cls-6" d="M527.14,527.66a1.5,1.5,0,0,0,0-3,1.5,1.5,0,0,0,0,3Z" transform="translate(-293.5 -240.5)"/><path class="cls-6" d="M510.42,525.22a1.5,1.5,0,0,0,0-3,1.5,1.5,0,0,0,0,3Z" transform="translate(-293.5 -240.5)"/><path class="cls-6" d="M516.34,529.06a1.5,1.5,0,0,0,0-3,1.5,1.5,0,0,0,0,3Z" transform="translate(-293.5 -240.5)"/><path class="cls-6" d="M529.57,517.21a1.5,1.5,0,0,0,0-3,1.5,1.5,0,0,0,0,3Z" transform="translate(-293.5 -240.5)"/><path class="cls-6" d="M540.37,516.52a1.5,1.5,0,0,0,0-3,1.5,1.5,0,0,0,0,3Z" transform="translate(-293.5 -240.5)"/><path class="cls-6" d="M521.21,523.13a1.5,1.5,0,0,0,0-3,1.5,1.5,0,0,0,0,3Z" transform="translate(-293.5 -240.5)"/><path class="cls-6" d="M551.17,507.46a1.5,1.5,0,0,0,0-3,1.5,1.5,0,0,0,0,3Z" transform="translate(-293.5 -240.5)"/><path class="cls-6" d="M540.72,507.81a1.5,1.5,0,0,0,0-3,1.5,1.5,0,0,0,0,3Z" transform="translate(-293.5 -240.5)"/><path class="cls-6" d="M548,513.38a1.5,1.5,0,0,0,0-3,1.5,1.5,0,0,0,0,3Z" transform="translate(-293.5 -240.5)"/><path class="cls-6" d="M649.89,596.84a1.5,1.5,0,0,0,0-3,1.5,1.5,0,0,0,0,3Z" transform="translate(-293.5 -240.5)"/><path class="cls-6" d="M656.07,590.66a1.5,1.5,0,0,0,0-3,1.5,1.5,0,0,0,0,3Z" transform="translate(-293.5 -240.5)"/><path class="cls-6" d="M664.52,592.94a1.5,1.5,0,0,0,0-3,1.5,1.5,0,0,0,0,3Z" transform="translate(-293.5 -240.5)"/><path class="cls-6" d="M673.29,586.76a1.5,1.5,0,0,0,0-3,1.5,1.5,0,0,0,0,3Z" transform="translate(-293.5 -240.5)"/><path class="cls-6" d="M683,579.29a1.5,1.5,0,0,0,0-3,1.5,1.5,0,0,0,0,3Z" transform="translate(-293.5 -240.5)"/><path class="cls-6" d="M674.27,575.06a1.5,1.5,0,0,0,0-3,1.5,1.5,0,0,0,0,3Z" transform="translate(-293.5 -240.5)"/><path class="cls-6" d="M689.87,572.79a1.5,1.5,0,0,0,0-3,1.5,1.5,0,0,0,0,3Z" transform="translate(-293.5 -240.5)"/><path class="cls-6" d="M638.19,599.11a1.5,1.5,0,0,0,0-3,1.5,1.5,0,0,0,0,3Z" transform="translate(-293.5 -240.5)"/><path class="cls-6" d="M642.09,589.69a1.5,1.5,0,0,0,0-3,1.5,1.5,0,0,0,0,3Z" transform="translate(-293.5 -240.5)"/><path class="cls-6" d="M665.82,579.29a1.5,1.5,0,0,0,0-3,1.5,1.5,0,0,0,0,3Z" transform="translate(-293.5 -240.5)"/><path class="cls-6" d="M663.54,585.46a1.5,1.5,0,0,0,0-3,1.5,1.5,0,0,0,0,3Z" transform="translate(-293.5 -240.5)"/><path class="cls-5" d="M428.42,520.26c1.55-2.34,3.61-4.75,5.55-4.43,2.69.44,3.32,5.8,5.41,5.77s2.5-5.23,5.14-5.77c2-.41,4.19,2,5.9,4.43" transform="translate(-293.5 -240.5)"/></g></svg>