<svg width="1010" height="238" viewBox="0 0 1010 238" fill="none" xmlns="http://www.w3.org/2000/svg">
<g clip-path="url(#clip0)">
<path d="M716 193.304C712.62 192.304 709.22 191.094 705.66 189.694C684.73 181.494 669.96 169.694 663.66 164.694C655.899 158.513 648.551 151.832 641.66 144.694C634.07 137.004 631.94 133.924 614.66 114.694C601.66 100.244 599.66 98.4039 597.66 96.6939C589.54 89.7739 581.38 82.8139 568.66 79.6939C564.38 78.6939 551.02 75.5539 536.66 81.6939C532.77 83.3539 525.12 86.6939 519.66 94.6939C511.87 106.124 513.17 120.984 515.66 121.694C517.16 122.124 518.16 117.174 523.66 114.694C529.56 112.034 535.41 114.584 535.66 114.694C540.38 116.834 542.42 121.034 543.66 123.694C547.49 131.894 547 142.404 542.66 150.694C536.57 162.314 525.16 166.624 519.66 168.694C515.34 170.324 502.83 174.824 480.66 169.694C468.348 166.727 456.463 162.207 445.29 156.244C442.21 154.604 442.75 154.764 440.66 153.694C423.53 144.914 406.96 144.694 398.66 144.694C384.606 144.7 370.685 147.417 357.66 152.694" stroke="#F2F2F2" stroke-width="5" stroke-linecap="round" stroke-linejoin="round"/>
</g>
<g clip-path="url(#clip1)">
<path d="M913 193.304C909.62 192.304 906.22 191.094 902.66 189.694C881.73 181.494 866.96 169.694 860.66 164.694C852.899 158.513 845.551 151.832 838.66 144.694C831.07 137.004 828.94 133.924 811.66 114.694C798.66 100.244 796.66 98.4039 794.66 96.6939C786.54 89.7739 778.38 82.8139 765.66 79.6939C761.38 78.6939 748.02 75.5539 733.66 81.6939C729.77 83.3539 722.12 86.6939 716.66 94.6939C708.87 106.124 710.17 120.984 712.66 121.694C714.16 122.124 715.16 117.174 720.66 114.694C726.56 112.034 732.41 114.584 732.66 114.694C737.38 116.834 739.42 121.034 740.66 123.694C744.49 131.894 744 142.404 739.66 150.694C733.57 162.314 722.16 166.624 716.66 168.694C712.34 170.324 699.83 174.824 677.66 169.694C665.348 166.727 653.463 162.207 642.29 156.244C639.21 154.604 639.75 154.764 637.66 153.694C620.53 144.914 603.96 144.694 595.66 144.694C581.606 144.7 567.685 147.417 554.66 152.694" stroke="#F2F2F2" stroke-width="5" stroke-linecap="round" stroke-linejoin="round"/>
</g>
<g clip-path="url(#clip2)">
<path d="M280 193.304C283.38 192.304 286.78 191.094 290.34 189.694C311.27 181.494 326.04 169.694 332.34 164.694C340.101 158.513 347.449 151.832 354.34 144.694C361.93 137.004 364.06 133.924 381.34 114.694C394.34 100.244 396.34 98.4039 398.34 96.6939C406.46 89.7739 414.62 82.8139 427.34 79.6939C431.62 78.6939 444.98 75.5539 459.34 81.6939C463.23 83.3539 470.88 86.6939 476.34 94.6939C484.13 106.124 482.83 120.984 480.34 121.694C478.84 122.124 477.84 117.174 472.34 114.694C466.44 112.034 460.59 114.584 460.34 114.694C455.62 116.834 453.58 121.034 452.34 123.694C448.51 131.894 449 142.404 453.34 150.694C459.43 162.314 470.84 166.624 476.34 168.694C480.66 170.324 493.17 174.824 515.34 169.694C527.652 166.727 539.537 162.207 550.71 156.244C553.79 154.604 553.25 154.764 555.34 153.694C572.47 144.914 589.04 144.694 597.34 144.694C611.394 144.7 625.315 147.417 638.34 152.694" stroke="#F2F2F2" stroke-width="5" stroke-linecap="round" stroke-linejoin="round"/>
</g>
<g clip-path="url(#clip3)">
<path d="M674 193.304C677.38 192.304 680.78 191.094 684.34 189.694C705.27 181.494 720.04 169.694 726.34 164.694C734.101 158.513 741.449 151.832 748.34 144.694C755.93 137.004 758.06 133.924 775.34 114.694C788.34 100.244 790.34 98.4039 792.34 96.6939C800.46 89.7739 808.62 82.8139 821.34 79.6939C825.62 78.6939 838.98 75.5539 853.34 81.6939C857.23 83.3539 864.88 86.6939 870.34 94.6939C878.13 106.124 876.83 120.984 874.34 121.694C872.84 122.124 871.84 117.174 866.34 114.694C860.44 112.034 854.59 114.584 854.34 114.694C849.62 116.834 847.58 121.034 846.34 123.694C842.51 131.894 843 142.404 847.34 150.694C853.43 162.314 864.84 166.624 870.34 168.694C874.66 170.324 887.17 174.824 909.34 169.694C921.652 166.727 933.537 162.207 944.71 156.244C947.79 154.604 947.25 154.764 949.34 153.694C966.47 144.914 983.04 144.694 991.34 144.694C1005.39 144.7 1019.31 147.417 1032.34 152.694" stroke="#F2F2F2" stroke-width="5" stroke-linecap="round" stroke-linejoin="round"/>
</g>
<g clip-path="url(#clip4)">
<path d="M477 193.304C480.38 192.304 483.78 191.094 487.34 189.694C508.27 181.494 523.04 169.694 529.34 164.694C537.101 158.513 544.449 151.832 551.34 144.694C558.93 137.004 561.06 133.924 578.34 114.694C591.34 100.244 593.34 98.4039 595.34 96.6939C603.46 89.7739 611.62 82.8139 624.34 79.6939C628.62 78.6939 641.98 75.5539 656.34 81.6939C660.23 83.3539 667.88 86.6939 673.34 94.6939C681.13 106.124 679.83 120.984 677.34 121.694C675.84 122.124 674.84 117.174 669.34 114.694C663.44 112.034 657.59 114.584 657.34 114.694C652.62 116.834 650.58 121.034 649.34 123.694C645.51 131.894 646 142.404 650.34 150.694C656.43 162.314 667.84 166.624 673.34 168.694C677.66 170.324 690.17 174.824 712.34 169.694C724.652 166.727 736.537 162.207 747.71 156.244C750.79 154.604 750.25 154.764 752.34 153.694C769.47 144.914 786.04 144.694 794.34 144.694C808.394 144.7 822.315 147.417 835.34 152.694" stroke="#F2F2F2" stroke-width="5" stroke-linecap="round" stroke-linejoin="round"/>
</g>
<g clip-path="url(#clip5)">
<path d="M1110 193.304C1106.62 192.304 1103.22 191.094 1099.66 189.694C1078.73 181.494 1063.96 169.694 1057.66 164.694C1049.9 158.513 1042.55 151.832 1035.66 144.694C1028.07 137.004 1025.94 133.924 1008.66 114.694C995.66 100.244 993.66 98.4039 991.66 96.6939C983.54 89.7739 975.38 82.8139 962.66 79.6939C958.38 78.6939 945.02 75.5539 930.66 81.6939C926.77 83.3539 919.12 86.6939 913.66 94.6939C905.87 106.124 907.17 120.984 909.66 121.694C911.16 122.124 912.16 117.174 917.66 114.694C923.56 112.034 929.41 114.584 929.66 114.694C934.38 116.834 936.42 121.034 937.66 123.694C941.49 131.894 941 142.404 936.66 150.694C930.57 162.314 919.16 166.624 913.66 168.694C909.34 170.324 896.83 174.824 874.66 169.694C862.348 166.727 850.463 162.207 839.29 156.244C836.21 154.604 836.75 154.764 834.66 153.694C817.53 144.914 800.96 144.694 792.66 144.694C778.606 144.7 764.685 147.417 751.66 152.694" stroke="#F2F2F2" stroke-width="5" stroke-linecap="round" stroke-linejoin="round"/>
</g>
<path d="M80.66 193.61C84.04 192.61 87.44 191.4 91 190C111.93 181.8 126.7 170 133 165C140.761 158.819 148.109 152.138 155 145C162.59 137.31 164.72 134.23 182 115C195 100.55 197 98.7101 199 97.0001C207.12 90.0801 215.28 83.1201 228 80.0001C232.28 79.0001 245.64 75.8601 260 82.0001C263.89 83.6601 271.54 87.0001 277 95.0001C284.79 106.43 283.49 121.29 281 122C279.5 122.43 278.5 117.48 273 115C267.1 112.34 261.25 114.89 261 115C256.28 117.14 254.24 121.34 253 124C249.17 132.2 249.66 142.71 254 151C260.09 162.62 271.5 166.93 277 169C281.32 170.63 293.83 175.13 316 170C328.312 167.033 340.197 162.513 351.37 156.55C354.45 154.91 353.91 155.07 356 154C373.13 145.22 389.7 145 398 145C412.054 145.007 425.975 147.723 439 153" stroke="#F2F2F2" stroke-width="5" stroke-linecap="round" stroke-linejoin="round"/>
<path d="M0 183C10.48 180.87 25.64 177.8 41 167C52.1649 158.958 61.9577 149.165 70 138C72.79 133.92 78.06 125.56 88 119C91.3396 116.692 95.0648 114.998 99 114C102.25 113.21 109.45 111.46 117 115C118 115.48 127.25 120 129 129C129.88 133.55 128.75 138.65 127 139C125.25 139.35 124.24 134.1 120 133C118.27 132.644 116.472 132.838 114.858 133.555C113.244 134.273 111.895 135.477 111 137C108.88 140.74 110.83 144.66 111 145C112.59 148.08 115.63 149.16 118 150C120.89 150.991 123.963 151.332 127 151C137.7 150 151.1 144.55 154 143" stroke="#F2F2F2" stroke-width="5" stroke-linecap="round" stroke-linejoin="round"/>
<path d="M156.01 144.64C144.469 131.375 137.299 114.874 135.477 97.3857C133.655 79.8975 137.27 62.2729 145.828 46.9137C154.387 31.5545 167.473 19.2078 183.304 11.5562C199.135 3.9046 216.939 1.32034 234.292 4.15558C251.645 6.99081 267.701 15.1076 280.273 27.3999C292.845 39.6921 301.322 55.5619 304.547 72.8464C307.772 90.1309 305.589 107.989 298.295 123.988C291.002 139.987 278.953 153.348 263.79 162.25" stroke="#F2F2F2" stroke-width="5" stroke-miterlimit="10"/>
<path d="M290.87 56.26C297.339 69.9937 299.58 85.3399 297.31 100.35" stroke="#F2F2F2" stroke-width="2" stroke-linecap="round" stroke-linejoin="round"/>
<path d="M33.5 179.5C47.0838 172.414 59.0124 162.53 68.5 150.5" stroke="#F2F2F2" stroke-width="2" stroke-linecap="round" stroke-linejoin="round"/>
<path d="M71.5 146.5C72.12 145.5 72.79 144.5 73.5 143.5C74.5 142.07 75.5 140.73 76.5 139.5" stroke="#F2F2F2" stroke-width="2" stroke-linecap="round" stroke-linejoin="round"/>
<path d="M95.5 195.5C104.506 191.494 113.198 186.814 121.5 181.5C127.72 177.479 133.728 173.14 139.5 168.5C146.502 162.884 153.18 156.874 159.5 150.5C162.42 147.56 164.35 145.5 181.5 125.5C193.93 111.02 196.72 107.69 202.5 102.5C208.83 96.81 213.37 92.79 220.5 89.5C228.339 85.9371 236.893 84.2262 245.5 84.5" stroke="#F2F2F2" stroke-width="2" stroke-linecap="round" stroke-linejoin="round"/>
<path d="M250.5 85.5C252.892 85.9416 255.236 86.6113 257.5 87.5C259.588 88.3139 261.596 89.3181 263.5 90.5C264.93 91.3649 266.269 92.3698 267.5 93.5C269.065 94.9675 270.412 96.6512 271.5 98.5" stroke="#F2F2F2" stroke-width="2" stroke-linecap="round" stroke-linejoin="round"/>
<path d="M273.5 102.5C273.873 103.146 274.207 103.814 274.5 104.5C274.916 105.471 275.25 106.474 275.5 107.5" stroke="#F2F2F2" stroke-width="2" stroke-linecap="round" stroke-linejoin="round"/>
<path d="M372.68 154.26C375.45 153.62 378.4 153.02 381.5 152.5C383.92 152.09 386.25 151.77 388.5 151.5" stroke="#F2F2F2" stroke-width="2" stroke-linecap="round" stroke-linejoin="round"/>
<path d="M360.5 159.02C363.03 157.76 364.5 157.02 366.08 156.39" stroke="#F2F2F2" stroke-width="2" stroke-linecap="round" stroke-linejoin="round"/>
<path d="M279.5 176.5C283.113 177.435 286.789 178.104 290.5 178.5C295.819 179.048 301.181 179.048 306.5 178.5C311.579 177.948 316.599 176.944 321.5 175.5C327.3 173.901 332.981 171.896 338.5 169.5C343.57 167.37 347.5 165.41 355.5 161.5C357.5 160.5 359.16 159.68 360.5 159.02" stroke="#F2F2F2" stroke-width="2" stroke-linecap="round" stroke-linejoin="round"/>
<path d="M283.34 129.12C283.738 129.12 284.119 128.962 284.401 128.681C284.682 128.399 284.84 128.018 284.84 127.62C284.84 127.222 284.682 126.841 284.401 126.559C284.119 126.278 283.738 126.12 283.34 126.12C282.942 126.12 282.561 126.278 282.279 126.559C281.998 126.841 281.84 127.222 281.84 127.62C281.84 128.018 281.998 128.399 282.279 128.681C282.561 128.962 282.942 129.12 283.34 129.12Z" fill="#F2F2F2"/>
<path d="M275.5 127.13C275.898 127.13 276.279 126.972 276.561 126.691C276.842 126.409 277 126.028 277 125.63C277 125.232 276.842 124.851 276.561 124.569C276.279 124.288 275.898 124.13 275.5 124.13C275.102 124.13 274.721 124.288 274.439 124.569C274.158 124.851 274 125.232 274 125.63C274 126.028 274.158 126.409 274.439 126.691C274.721 126.972 275.102 127.13 275.5 127.13Z" fill="#F2F2F2"/>
<path d="M267.42 125.18C267.818 125.18 268.199 125.022 268.481 124.741C268.762 124.459 268.92 124.078 268.92 123.68C268.92 123.282 268.762 122.901 268.481 122.619C268.199 122.338 267.818 122.18 267.42 122.18C267.022 122.18 266.641 122.338 266.359 122.619C266.078 122.901 265.92 123.282 265.92 123.68C265.92 124.078 266.078 124.459 266.359 124.741C266.641 125.022 267.022 125.18 267.42 125.18V125.18Z" fill="#F2F2F2"/>
<path d="M258.92 133.04C259.318 133.04 259.699 132.882 259.981 132.601C260.262 132.319 260.42 131.938 260.42 131.54C260.42 131.142 260.262 130.761 259.981 130.479C259.699 130.198 259.318 130.04 258.92 130.04C258.522 130.04 258.141 130.198 257.859 130.479C257.578 130.761 257.42 131.142 257.42 131.54C257.42 131.938 257.578 132.319 257.859 132.601C258.141 132.882 258.522 133.04 258.92 133.04V133.04Z" fill="#F2F2F2"/>
<path d="M266.15 132.72C266.548 132.72 266.929 132.562 267.211 132.281C267.492 131.999 267.65 131.618 267.65 131.22C267.65 130.822 267.492 130.441 267.211 130.159C266.929 129.878 266.548 129.72 266.15 129.72C265.752 129.72 265.371 129.878 265.089 130.159C264.808 130.441 264.65 130.822 264.65 131.22C264.65 131.618 264.808 131.999 265.089 132.281C265.371 132.562 265.752 132.72 266.15 132.72Z" fill="#F2F2F2"/>
<path d="M275.63 135.27C276.028 135.27 276.409 135.112 276.691 134.831C276.972 134.549 277.13 134.168 277.13 133.77C277.13 133.372 276.972 132.991 276.691 132.709C276.409 132.428 276.028 132.27 275.63 132.27C275.232 132.27 274.851 132.428 274.569 132.709C274.288 132.991 274.13 133.372 274.13 133.77C274.13 134.168 274.288 134.549 274.569 134.831C274.851 135.112 275.232 135.27 275.63 135.27Z" fill="#F2F2F2"/>
<path d="M265.64 139.75C266.038 139.75 266.419 139.592 266.701 139.311C266.982 139.029 267.14 138.648 267.14 138.25C267.14 137.852 266.982 137.471 266.701 137.189C266.419 136.908 266.038 136.75 265.64 136.75C265.242 136.75 264.861 136.908 264.579 137.189C264.298 137.471 264.14 137.852 264.14 138.25C264.14 138.648 264.298 139.029 264.579 139.311C264.861 139.592 265.242 139.75 265.64 139.75V139.75Z" fill="#F2F2F2"/>
<path d="M117.94 141.05C118.338 141.05 118.719 140.892 119.001 140.611C119.282 140.329 119.44 139.948 119.44 139.55C119.44 139.152 119.282 138.771 119.001 138.489C118.719 138.208 118.338 138.05 117.94 138.05C117.542 138.05 117.161 138.208 116.879 138.489C116.598 138.771 116.44 139.152 116.44 139.55C116.44 139.948 116.598 140.329 116.879 140.611C117.161 140.892 117.542 141.05 117.94 141.05V141.05Z" fill="#F2F2F2"/>
<path d="M118.87 146.96C119.268 146.96 119.649 146.802 119.931 146.521C120.212 146.239 120.37 145.858 120.37 145.46C120.37 145.062 120.212 144.681 119.931 144.399C119.649 144.118 119.268 143.96 118.87 143.96C118.472 143.96 118.091 144.118 117.809 144.399C117.528 144.681 117.37 145.062 117.37 145.46C117.37 145.858 117.528 146.239 117.809 146.521C118.091 146.802 118.472 146.96 118.87 146.96Z" fill="#F2F2F2"/>
<path d="M131 146.03C131.398 146.03 131.779 145.872 132.061 145.591C132.342 145.309 132.5 144.928 132.5 144.53C132.5 144.132 132.342 143.751 132.061 143.469C131.779 143.188 131.398 143.03 131 143.03C130.602 143.03 130.221 143.188 129.939 143.469C129.658 143.751 129.5 144.132 129.5 144.53C129.5 144.928 129.658 145.309 129.939 145.591C130.221 145.872 130.602 146.03 131 146.03V146.03Z" fill="#F2F2F2"/>
<path d="M124.16 144.5C124.558 144.5 124.939 144.342 125.221 144.061C125.502 143.779 125.66 143.398 125.66 143C125.66 142.602 125.502 142.221 125.221 141.939C124.939 141.658 124.558 141.5 124.16 141.5C123.762 141.5 123.381 141.658 123.099 141.939C122.818 142.221 122.66 142.602 122.66 143C122.66 143.398 122.818 143.779 123.099 144.061C123.381 144.342 123.762 144.5 124.16 144.5Z" fill="#F2F2F2"/>
<path d="M62.18 135.27C62.5778 135.27 62.9594 135.112 63.2407 134.831C63.522 134.549 63.68 134.168 63.68 133.77C63.68 133.372 63.522 132.991 63.2407 132.709C62.9594 132.428 62.5778 132.27 62.18 132.27C61.7822 132.27 61.4007 132.428 61.1194 132.709C60.838 132.991 60.68 133.372 60.68 133.77C60.68 134.168 60.838 134.549 61.1194 134.831C61.4007 135.112 61.7822 135.27 62.18 135.27V135.27Z" fill="#F2F2F2"/>
<path d="M71.58 124.5C71.9778 124.5 72.3593 124.342 72.6406 124.061C72.9219 123.779 73.08 123.398 73.08 123C73.08 122.602 72.9219 122.221 72.6406 121.939C72.3593 121.658 71.9778 121.5 71.58 121.5C71.1821 121.5 70.8006 121.658 70.5193 121.939C70.238 122.221 70.08 122.602 70.08 123C70.08 123.398 70.238 123.779 70.5193 124.061C70.8006 124.342 71.1821 124.5 71.58 124.5V124.5Z" fill="#F2F2F2"/>
<path d="M66.01 118.89C66.4078 118.89 66.7893 118.732 67.0706 118.451C67.352 118.169 67.51 117.788 67.51 117.39C67.51 116.992 67.352 116.611 67.0706 116.329C66.7893 116.048 66.4078 115.89 66.01 115.89C65.6122 115.89 65.2306 116.048 64.9493 116.329C64.668 116.611 64.51 116.992 64.51 117.39C64.51 117.788 64.668 118.169 64.9493 118.451C65.2306 118.732 65.6122 118.89 66.01 118.89Z" fill="#F2F2F2"/>
<path d="M68.1 128.3C68.4978 128.3 68.8793 128.142 69.1606 127.861C69.4419 127.579 69.6 127.198 69.6 126.8C69.6 126.402 69.4419 126.021 69.1606 125.739C68.8793 125.458 68.4978 125.3 68.1 125.3C67.7022 125.3 67.3206 125.458 67.0393 125.739C66.758 126.021 66.6 126.402 66.6 126.8C66.6 127.198 66.758 127.579 67.0393 127.861C67.3206 128.142 67.7022 128.3 68.1 128.3Z" fill="#F2F2F2"/>
<path d="M83.78 114.71C84.1779 114.71 84.5594 114.552 84.8407 114.271C85.122 113.989 85.28 113.608 85.28 113.21C85.28 112.812 85.122 112.431 84.8407 112.149C84.5594 111.868 84.1779 111.71 83.78 111.71C83.3822 111.71 83.0007 111.868 82.7194 112.149C82.4381 112.431 82.28 112.812 82.28 113.21C82.28 113.608 82.4381 113.989 82.7194 114.271C83.0007 114.552 83.3822 114.71 83.78 114.71V114.71Z" fill="#F2F2F2"/>
<path d="M77.5 114.02C77.8978 114.02 78.2794 113.862 78.5607 113.581C78.842 113.299 79 112.918 79 112.52C79 112.122 78.842 111.741 78.5607 111.459C78.2794 111.178 77.8978 111.02 77.5 111.02C77.1022 111.02 76.7206 111.178 76.4393 111.459C76.158 111.741 76 112.122 76 112.52C76 112.918 76.158 113.299 76.4393 113.581C76.7206 113.862 77.1022 114.02 77.5 114.02Z" fill="#F2F2F2"/>
<path d="M79.25 120.64C79.6478 120.64 80.0294 120.482 80.3107 120.201C80.592 119.919 80.75 119.538 80.75 119.14C80.75 118.742 80.592 118.361 80.3107 118.079C80.0294 117.798 79.6478 117.64 79.25 117.64C78.8522 117.64 78.4706 117.798 78.1893 118.079C77.908 118.361 77.75 118.742 77.75 119.14C77.75 119.538 77.908 119.919 78.1893 120.201C78.4706 120.482 78.8522 120.64 79.25 120.64V120.64Z" fill="#F2F2F2"/>
<path d="M53.82 137.36C54.2178 137.36 54.5993 137.202 54.8806 136.921C55.162 136.639 55.32 136.258 55.32 135.86C55.32 135.462 55.162 135.081 54.8806 134.799C54.5993 134.518 54.2178 134.36 53.82 134.36C53.4222 134.36 53.0406 134.518 52.7593 134.799C52.478 135.081 52.32 135.462 52.32 135.86C52.32 136.258 52.478 136.639 52.7593 136.921C53.0406 137.202 53.4222 137.36 53.82 137.36V137.36Z" fill="#F2F2F2"/>
<path d="M56.61 144.32C57.0078 144.32 57.3893 144.162 57.6707 143.881C57.952 143.599 58.11 143.218 58.11 142.82C58.11 142.422 57.952 142.041 57.6707 141.759C57.3893 141.478 57.0078 141.32 56.61 141.32C56.2122 141.32 55.8307 141.478 55.5493 141.759C55.268 142.041 55.11 142.422 55.11 142.82C55.11 143.218 55.268 143.599 55.5493 143.881C55.8307 144.162 56.2122 144.32 56.61 144.32Z" fill="#F2F2F2"/>
<path d="M169.81 117.85C170.208 117.85 170.589 117.692 170.871 117.411C171.152 117.129 171.31 116.748 171.31 116.35C171.31 115.952 171.152 115.571 170.871 115.289C170.589 115.008 170.208 114.85 169.81 114.85C169.412 114.85 169.031 115.008 168.749 115.289C168.468 115.571 168.31 115.952 168.31 116.35C168.31 116.748 168.468 117.129 168.749 117.411C169.031 117.692 169.412 117.85 169.81 117.85V117.85Z" fill="#F2F2F2"/>
<path d="M175.04 110.19C175.438 110.19 175.819 110.032 176.101 109.751C176.382 109.469 176.54 109.088 176.54 108.69C176.54 108.292 176.382 107.911 176.101 107.629C175.819 107.348 175.438 107.19 175.04 107.19C174.642 107.19 174.261 107.348 173.979 107.629C173.698 107.911 173.54 108.292 173.54 108.69C173.54 109.088 173.698 109.469 173.979 109.751C174.261 110.032 174.642 110.19 175.04 110.19V110.19Z" fill="#F2F2F2"/>
<path d="M184.79 103.92C185.188 103.92 185.569 103.762 185.851 103.481C186.132 103.199 186.29 102.818 186.29 102.42C186.29 102.022 186.132 101.641 185.851 101.359C185.569 101.078 185.188 100.92 184.79 100.92C184.392 100.92 184.011 101.078 183.729 101.359C183.448 101.641 183.29 102.022 183.29 102.42C183.29 102.818 183.448 103.199 183.729 103.481C184.011 103.762 184.392 103.92 184.79 103.92Z" fill="#F2F2F2"/>
<path d="M168.07 105.31C168.468 105.31 168.849 105.152 169.131 104.871C169.412 104.589 169.57 104.208 169.57 103.81C169.57 103.412 169.412 103.031 169.131 102.749C168.849 102.468 168.468 102.31 168.07 102.31C167.672 102.31 167.291 102.468 167.009 102.749C166.728 103.031 166.57 103.412 166.57 103.81C166.57 104.208 166.728 104.589 167.009 104.871C167.291 105.152 167.672 105.31 168.07 105.31Z" fill="#F2F2F2"/>
<path d="M176.08 101.5C176.478 101.5 176.859 101.342 177.141 101.061C177.422 100.779 177.58 100.398 177.58 100C177.58 99.6022 177.422 99.2206 177.141 98.9393C176.859 98.658 176.478 98.5 176.08 98.5C175.682 98.5 175.301 98.658 175.019 98.9393C174.738 99.2206 174.58 99.6022 174.58 100C174.58 100.398 174.738 100.779 175.019 101.061C175.301 101.342 175.682 101.5 176.08 101.5V101.5Z" fill="#F2F2F2"/>
<path d="M196.64 94.16C197.038 94.16 197.419 94.0019 197.701 93.7206C197.982 93.4393 198.14 93.0578 198.14 92.66C198.14 92.2621 197.982 91.8807 197.701 91.5994C197.419 91.3181 197.038 91.16 196.64 91.16C196.242 91.16 195.861 91.3181 195.579 91.5994C195.298 91.8807 195.14 92.2621 195.14 92.66C195.14 93.0578 195.298 93.4393 195.579 93.7206C195.861 94.0019 196.242 94.16 196.64 94.16V94.16Z" fill="#F2F2F2"/>
<path d="M179.92 91.72C180.318 91.72 180.699 91.5619 180.981 91.2806C181.262 90.9993 181.42 90.6178 181.42 90.22C181.42 89.8221 181.262 89.4407 180.981 89.1594C180.699 88.8781 180.318 88.72 179.92 88.72C179.522 88.72 179.141 88.8781 178.859 89.1594C178.578 89.4407 178.42 89.8221 178.42 90.22C178.42 90.6178 178.578 90.9993 178.859 91.2806C179.141 91.5619 179.522 91.72 179.92 91.72V91.72Z" fill="#F2F2F2"/>
<path d="M185.84 95.56C186.238 95.56 186.619 95.402 186.901 95.1207C187.182 94.8394 187.34 94.4578 187.34 94.06C187.34 93.6622 187.182 93.2806 186.901 92.9993C186.619 92.718 186.238 92.56 185.84 92.56C185.442 92.56 185.061 92.718 184.779 92.9993C184.498 93.2806 184.34 93.6622 184.34 94.06C184.34 94.4578 184.498 94.8394 184.779 95.1207C185.061 95.402 185.442 95.56 185.84 95.56Z" fill="#F2F2F2"/>
<path d="M199.07 83.71C199.468 83.71 199.849 83.5519 200.131 83.2706C200.412 82.9893 200.57 82.6078 200.57 82.21C200.57 81.8122 200.412 81.4307 200.131 81.1494C199.849 80.868 199.468 80.71 199.07 80.71C198.672 80.71 198.291 80.868 198.009 81.1494C197.728 81.4307 197.57 81.8122 197.57 82.21C197.57 82.6078 197.728 82.9893 198.009 83.2706C198.291 83.5519 198.672 83.71 199.07 83.71Z" fill="#F2F2F2"/>
<path d="M209.87 83.02C210.268 83.02 210.649 82.862 210.931 82.5807C211.212 82.2994 211.37 81.9178 211.37 81.52C211.37 81.1222 211.212 80.7407 210.931 80.4594C210.649 80.178 210.268 80.02 209.87 80.02C209.472 80.02 209.091 80.178 208.809 80.4594C208.528 80.7407 208.37 81.1222 208.37 81.52C208.37 81.9178 208.528 82.2994 208.809 82.5807C209.091 82.862 209.472 83.02 209.87 83.02Z" fill="#F2F2F2"/>
<path d="M190.71 89.63C191.108 89.63 191.489 89.472 191.771 89.1907C192.052 88.9094 192.21 88.5278 192.21 88.13C192.21 87.7322 192.052 87.3506 191.771 87.0693C191.489 86.788 191.108 86.63 190.71 86.63C190.312 86.63 189.931 86.788 189.649 87.0693C189.368 87.3506 189.21 87.7322 189.21 88.13C189.21 88.5278 189.368 88.9094 189.649 89.1907C189.931 89.472 190.312 89.63 190.71 89.63Z" fill="#F2F2F2"/>
<path d="M220.67 73.96C221.068 73.96 221.449 73.8019 221.731 73.5206C222.012 73.2393 222.17 72.8578 222.17 72.46C222.17 72.0621 222.012 71.6806 221.731 71.3993C221.449 71.118 221.068 70.96 220.67 70.96C220.272 70.96 219.891 71.118 219.609 71.3993C219.328 71.6806 219.17 72.0621 219.17 72.46C219.17 72.8578 219.328 73.2393 219.609 73.5206C219.891 73.8019 220.272 73.96 220.67 73.96V73.96Z" fill="#F2F2F2"/>
<path d="M210.22 74.31C210.618 74.31 210.999 74.152 211.281 73.8707C211.562 73.5894 211.72 73.2078 211.72 72.81C211.72 72.4122 211.562 72.0306 211.281 71.7493C210.999 71.468 210.618 71.31 210.22 71.31C209.822 71.31 209.441 71.468 209.159 71.7493C208.878 72.0306 208.72 72.4122 208.72 72.81C208.72 73.2078 208.878 73.5894 209.159 73.8707C209.441 74.152 209.822 74.31 210.22 74.31V74.31Z" fill="#F2F2F2"/>
<path d="M217.5 79.88C217.898 79.88 218.279 79.722 218.561 79.4407C218.842 79.1594 219 78.7778 219 78.38C219 77.9822 218.842 77.6006 218.561 77.3193C218.279 77.038 217.898 76.88 217.5 76.88C217.102 76.88 216.721 77.038 216.439 77.3193C216.158 77.6006 216 77.9822 216 78.38C216 78.7778 216.158 79.1594 216.439 79.4407C216.721 79.722 217.102 79.88 217.5 79.88Z" fill="#F2F2F2"/>
<path d="M319.39 163.34C319.788 163.34 320.169 163.182 320.451 162.901C320.732 162.619 320.89 162.238 320.89 161.84C320.89 161.442 320.732 161.061 320.451 160.779C320.169 160.498 319.788 160.34 319.39 160.34C318.992 160.34 318.611 160.498 318.329 160.779C318.048 161.061 317.89 161.442 317.89 161.84C317.89 162.238 318.048 162.619 318.329 162.901C318.611 163.182 318.992 163.34 319.39 163.34V163.34Z" fill="#F2F2F2"/>
<path d="M325.57 157.16C325.968 157.16 326.349 157.002 326.631 156.721C326.912 156.439 327.07 156.058 327.07 155.66C327.07 155.262 326.912 154.881 326.631 154.599C326.349 154.318 325.968 154.16 325.57 154.16C325.172 154.16 324.791 154.318 324.509 154.599C324.228 154.881 324.07 155.262 324.07 155.66C324.07 156.058 324.228 156.439 324.509 156.721C324.791 157.002 325.172 157.16 325.57 157.16V157.16Z" fill="#F2F2F2"/>
<path d="M334.02 159.44C334.418 159.44 334.799 159.282 335.081 159.001C335.362 158.719 335.52 158.338 335.52 157.94C335.52 157.542 335.362 157.161 335.081 156.879C334.799 156.598 334.418 156.44 334.02 156.44C333.622 156.44 333.241 156.598 332.959 156.879C332.678 157.161 332.52 157.542 332.52 157.94C332.52 158.338 332.678 158.719 332.959 159.001C333.241 159.282 333.622 159.44 334.02 159.44Z" fill="#F2F2F2"/>
<path d="M342.79 153.26C343.188 153.26 343.569 153.102 343.851 152.821C344.132 152.539 344.29 152.158 344.29 151.76C344.29 151.362 344.132 150.981 343.851 150.699C343.569 150.418 343.188 150.26 342.79 150.26C342.392 150.26 342.011 150.418 341.729 150.699C341.448 150.981 341.29 151.362 341.29 151.76C341.29 152.158 341.448 152.539 341.729 152.821C342.011 153.102 342.392 153.26 342.79 153.26Z" fill="#F2F2F2"/>
<path d="M352.5 145.79C352.898 145.79 353.279 145.632 353.561 145.351C353.842 145.069 354 144.688 354 144.29C354 143.892 353.842 143.511 353.561 143.229C353.279 142.948 352.898 142.79 352.5 142.79C352.102 142.79 351.721 142.948 351.439 143.229C351.158 143.511 351 143.892 351 144.29C351 144.688 351.158 145.069 351.439 145.351C351.721 145.632 352.102 145.79 352.5 145.79Z" fill="#F2F2F2"/>
<path d="M343.77 141.56C344.168 141.56 344.549 141.402 344.831 141.121C345.112 140.839 345.27 140.458 345.27 140.06C345.27 139.662 345.112 139.281 344.831 138.999C344.549 138.718 344.168 138.56 343.77 138.56C343.372 138.56 342.991 138.718 342.709 138.999C342.428 139.281 342.27 139.662 342.27 140.06C342.27 140.458 342.428 140.839 342.709 141.121C342.991 141.402 343.372 141.56 343.77 141.56Z" fill="#F2F2F2"/>
<path d="M359.37 139.29C359.768 139.29 360.149 139.132 360.431 138.851C360.712 138.569 360.87 138.188 360.87 137.79C360.87 137.392 360.712 137.011 360.431 136.729C360.149 136.448 359.768 136.29 359.37 136.29C358.972 136.29 358.591 136.448 358.309 136.729C358.028 137.011 357.87 137.392 357.87 137.79C357.87 138.188 358.028 138.569 358.309 138.851C358.591 139.132 358.972 139.29 359.37 139.29V139.29Z" fill="#F2F2F2"/>
<path d="M307.69 165.61C308.088 165.61 308.469 165.452 308.751 165.171C309.032 164.889 309.19 164.508 309.19 164.11C309.19 163.712 309.032 163.331 308.751 163.049C308.469 162.768 308.088 162.61 307.69 162.61C307.292 162.61 306.911 162.768 306.629 163.049C306.348 163.331 306.19 163.712 306.19 164.11C306.19 164.508 306.348 164.889 306.629 165.171C306.911 165.452 307.292 165.61 307.69 165.61V165.61Z" fill="#F2F2F2"/>
<path d="M311.59 156.19C311.988 156.19 312.369 156.032 312.651 155.751C312.932 155.469 313.09 155.088 313.09 154.69C313.09 154.292 312.932 153.911 312.651 153.629C312.369 153.348 311.988 153.19 311.59 153.19C311.192 153.19 310.811 153.348 310.529 153.629C310.248 153.911 310.09 154.292 310.09 154.69C310.09 155.088 310.248 155.469 310.529 155.751C310.811 156.032 311.192 156.19 311.59 156.19Z" fill="#F2F2F2"/>
<path d="M335.32 145.79C335.718 145.79 336.099 145.632 336.381 145.351C336.662 145.069 336.82 144.688 336.82 144.29C336.82 143.892 336.662 143.511 336.381 143.229C336.099 142.948 335.718 142.79 335.32 142.79C334.922 142.79 334.541 142.948 334.259 143.229C333.978 143.511 333.82 143.892 333.82 144.29C333.82 144.688 333.978 145.069 334.259 145.351C334.541 145.632 334.922 145.79 335.32 145.79V145.79Z" fill="#F2F2F2"/>
<path d="M333.04 151.96C333.438 151.96 333.819 151.802 334.101 151.521C334.382 151.239 334.54 150.858 334.54 150.46C334.54 150.062 334.382 149.681 334.101 149.399C333.819 149.118 333.438 148.96 333.04 148.96C332.642 148.96 332.261 149.118 331.979 149.399C331.698 149.681 331.54 150.062 331.54 150.46C331.54 150.858 331.698 151.239 331.979 151.521C332.261 151.802 332.642 151.96 333.04 151.96Z" fill="#F2F2F2"/>
<path d="M97.92 86.76C99.47 84.42 101.53 82.01 103.47 82.33C106.16 82.77 106.79 88.13 108.88 88.1C110.97 88.07 111.38 82.87 114.02 82.33C116.02 81.92 118.21 84.33 119.92 86.76" stroke="#F2F2F2" stroke-width="2" stroke-linecap="round" stroke-linejoin="round"/>
<defs>
<clipPath id="clip0">
<rect width="140" height="52" fill="white" transform="matrix(-1 0 0 1 520 132)"/>
</clipPath>
<clipPath id="clip1">
<rect width="140" height="52" fill="white" transform="matrix(-1 0 0 1 717 132)"/>
</clipPath>
<clipPath id="clip2">
<rect width="140" height="52" fill="white" transform="translate(476 132)"/>
</clipPath>
<clipPath id="clip3">
<rect width="140" height="52" fill="white" transform="translate(870 132)"/>
</clipPath>
<clipPath id="clip4">
<rect width="140" height="52" fill="white" transform="translate(673 132)"/>
</clipPath>
<clipPath id="clip5">
<rect width="140" height="52" fill="white" transform="matrix(-1 0 0 1 914 132)"/>
</clipPath>
</defs>
</svg>
