<svg xmlns="http://www.w3.org/2000/svg" viewBox="0 0 499 499"><defs><style>.cls-1{fill:#a88aa8;}.cls-2,.cls-3,.cls-4{fill:none;stroke:#fff;}.cls-2{stroke-miterlimit:10;}.cls-2,.cls-3{stroke-width:5px;}.cls-3,.cls-4{stroke-linecap:round;stroke-linejoin:round;}.cls-4{stroke-width:2px;}.cls-5{fill:#fff;}</style></defs><title>mountian</title><g id="Layer_7" data-name="Layer 7"><circle class="cls-1" cx="249.5" cy="249.5" r="249.5"/></g><g id="Layer_1" data-name="Layer 1"><path class="cls-2" d="M470.72,591.07a85.51,85.51,0,1,1,126,12.95,83.71,83.71,0,0,1-8,6.35" transform="translate(-300.5 -274.5)"/></g><g id="Layer_3" data-name="Layer 3"><path class="cls-2" d="M397.5,683.5a26.69,26.69,0,0,1,4-10c5.74-8.55,11.91-6.09,18-14,3.13-4.07,8.54-13.85,9-21,.06-.87.16-3.55,2-5,1.47-1.16,3.16-.83,5-1,3.38-.32,5.64-2.2,9-5,6.63-5.52,10.15-14.1,16-23,.62-.94,4.75-6,13-16,12.31-15,14.06-16.69,17-22,4.2-7.58,6.31-11.37,7-13,2.24-5.26,2.89-8.33,6-10s5.25-.19,8-2,1.1-5,4-8c1.55-1.57,2.14-.94,6-3,5.56-3,6.89-5.66,9-5,.78.24,1.13.77,3,4,2,3.46,3,5.2,4,7a70.76,70.76,0,0,0,6,9c4.6,5.82,6.58,6,7,9,.54,3.81-2.33,5.82-1,8s4.34.84,7,3,1.3,4.74,3,9c1.82,4.54,6.88,8,17,15a23.6,23.6,0,0,1,5,4,22.43,22.43,0,0,1,5,11,102,102,0,0,0,8,22c4.85,9.8,7,6.82,14,19,4.2,7.32,5.41,11.87,11,17a35.76,35.76,0,0,0,9,6" transform="translate(-300.5 -274.5)"/><path class="cls-3" d="M597.5,630.5c1-1.3,7-4,12-6,2.43-1,8.36-6.45,11-7,5.39-1.12,10.29-1.21,12-3,2.72-2.85,3.81-2.2,6-3s4-2.53,6-1c3,2.28,5,9.41,5,11,0,4.29,0,6,0,10,0,4.91,9,10.88,10,8,1.87-5.21,25,14.4,29,18a49.24,49.24,0,0,0,19,4c7.41,0,11.85-1.75,18-3a78.68,78.68,0,0,1,30,0" transform="translate(-300.5 -274.5)"/><path class="cls-3" d="M343.5,657.5a28.64,28.64,0,0,0,8-6c2.58-2.79,3-4.4,6-7,2.85-2.43,3.28-1.67,6-4,4.21-3.61,4-6.16,7-7,2.69-.76,5.3.63,6,1,3.44,1.83,2.67,4.2,6,6,2.45,1.33,3.29.28,7,2,2.68,1.24,2.66,2,4,2,2.49,0,3-2.55,7-4,2.09-.76,2.22-.16,4-1,2.46-1.16,2.41-2.42,5-4,2.17-1.32,2.33-.52,5-2s3-2.46,5-3a8.53,8.53,0,0,1,4,0c2.47.47,7,.79,16,0" transform="translate(-300.5 -274.5)"/></g><g id="Layer_5" data-name="Layer 5"><path class="cls-4" d="M507.16,469.67a76.62,76.62,0,0,1,44.14-6.05" transform="translate(-300.5 -274.5)"/><path class="cls-4" d="M363,649a47.88,47.88,0,0,0-5,5c-2.87,3.37-2.94,4.52-5,6a11.78,11.78,0,0,1-5,2" transform="translate(-300.5 -274.5)"/><path class="cls-4" d="M460,618c1.68-2.44,4.08-5.88,7-10,3.91-5.5,5.86-8.25,8-11,2.4-3.09,2.61-3.15,10-12,6.25-7.48,7.07-8.61,8-10a95.59,95.59,0,0,0,6-11" transform="translate(-300.5 -274.5)"/><path class="cls-4" d="M519,538a30.41,30.41,0,0,0,11-6" transform="translate(-300.5 -274.5)"/><path class="cls-4" d="M405,681a13.3,13.3,0,0,1,3-6c2.51-2.78,4.78-2.6,9-5a30,30,0,0,0,9-8c2.16-2.85,3.14-5.27,5-10a90.08,90.08,0,0,0,4-13" transform="translate(-300.5 -274.5)"/><path class="cls-4" d="M444,636a60.1,60.1,0,0,0,13-13" transform="translate(-300.5 -274.5)"/><path class="cls-4" d="M606,633a33.24,33.24,0,0,0,7-3c4.53-2.6,5-4.35,9-6" transform="translate(-300.5 -274.5)"/><path class="cls-4" d="M498,553c4.53-2.21,6.78-1.82,8-1,2.63,1.77,2,6.6,4,7,1.44.29,2.22-2.16,4-2,2.19.2,2.21,4,5,5,2.16.77,3-1.2,6-1,3.15.22,5.52,1.94,8,4,5.31,4.4,5.2,7.71,8,8s3.87-3.06,8-4c3.4-.77,6.66.6,9,2" transform="translate(-300.5 -274.5)"/><path class="cls-4" d="M364,640c-.17,2.33-.05,4.56,1,5,1.38.58,3.1-2.48,5-2,2.35.6,2.35,5.93,4,6,.7,0,1.3-.91,2-2,1.22-1.91,1.12-2.88,2-4a5.9,5.9,0,0,1,4-2" transform="translate(-300.5 -274.5)"/><path class="cls-4" d="M623,617c-.22,2.49.39,3.52,1,4,1.19.93,2.64,0,4,1s.65,2.47,1.76,3.14c1.61,1,3.87-2,6.24-1.14.57.21.72.48,2,2,2.7,3.21,4.07,4.82,5,5,2.36.47,5-3.43,6-5" transform="translate(-300.5 -274.5)"/><path class="cls-4" d="M629,581c1.55-2.35,3.6-4.76,5.55-4.44,2.68.45,3.32,5.81,5.4,5.77s2.51-5.23,5.14-5.77c2-.4,4.2,2,5.91,4.44" transform="translate(-300.5 -274.5)"/></g><g id="Layer_8" data-name="Layer 8"><path class="cls-5" d="M437.51,618.29a1.5,1.5,0,0,0,0-3,1.5,1.5,0,0,0,0,3Z" transform="translate(-300.5 -274.5)"/><path class="cls-5" d="M444,612.83a1.5,1.5,0,0,0,0-3,1.5,1.5,0,0,0,0,3Z" transform="translate(-300.5 -274.5)"/><path class="cls-5" d="M440,605.89a1.5,1.5,0,0,0,0-3,1.5,1.5,0,0,0,0,3Z" transform="translate(-300.5 -274.5)"/><path class="cls-5" d="M449.41,602.41a1.5,1.5,0,0,0,0-3,1.5,1.5,0,0,0,0,3Z" transform="translate(-300.5 -274.5)"/><path class="cls-5" d="M430.07,613.33a1.5,1.5,0,0,0,0-3,1.5,1.5,0,0,0,0,3Z" transform="translate(-300.5 -274.5)"/><path class="cls-5" d="M428.08,622.75a1.5,1.5,0,0,0,0-3,1.5,1.5,0,0,0,0,3Z" transform="translate(-300.5 -274.5)"/><path class="cls-5" d="M633,608.86a1.5,1.5,0,0,0,0-3,1.5,1.5,0,0,0,0,3Z" transform="translate(-300.5 -274.5)"/><path class="cls-5" d="M388.89,630.19a1.5,1.5,0,0,0,0-3,1.5,1.5,0,0,0,0,3Z" transform="translate(-300.5 -274.5)"/><path class="cls-5" d="M395.84,635.65a1.5,1.5,0,0,0,0-3,1.5,1.5,0,0,0,0,3Z" transform="translate(-300.5 -274.5)"/><path class="cls-5" d="M648.35,605.89a1.5,1.5,0,0,0,0-3,1.5,1.5,0,0,0,0,3Z" transform="translate(-300.5 -274.5)"/><path class="cls-5" d="M655.79,613.82a1.5,1.5,0,0,0,0-3,1.5,1.5,0,0,0,0,3Z" transform="translate(-300.5 -274.5)"/><path class="cls-5" d="M666.21,611.34a1.5,1.5,0,0,0,0-3,1.5,1.5,0,0,0,0,3Z" transform="translate(-300.5 -274.5)"/><path class="cls-5" d="M664.72,623.25a1.5,1.5,0,0,0,0-3,1.5,1.5,0,0,0,0,3Z" transform="translate(-300.5 -274.5)"/><path class="cls-5" d="M656.28,623.74a1.5,1.5,0,0,0,0-3,1.5,1.5,0,0,0,0,3Z" transform="translate(-300.5 -274.5)"/><path class="cls-5" d="M658.27,630.19a1.5,1.5,0,0,0,0-3,1.5,1.5,0,0,0,0,3Z" transform="translate(-300.5 -274.5)"/><path class="cls-5" d="M380.73,626.47a1.5,1.5,0,0,0,0-3,1.5,1.5,0,0,0,0,3Z" transform="translate(-300.5 -274.5)"/><path class="cls-5" d="M386.52,618.51a1.5,1.5,0,0,0,0-3,1.5,1.5,0,0,0,0,3Z" transform="translate(-300.5 -274.5)"/><path class="cls-5" d="M369.88,622.13a1.5,1.5,0,0,0,0-3,1.5,1.5,0,0,0,0,3Z" transform="translate(-300.5 -274.5)"/><path class="cls-5" d="M361.92,630.81a1.5,1.5,0,0,0,0-3,1.5,1.5,0,0,0,0,3Z" transform="translate(-300.5 -274.5)"/><path class="cls-5" d="M667.19,632.26a1.5,1.5,0,0,0,0-3,1.5,1.5,0,0,0,0,3Z" transform="translate(-300.5 -274.5)"/><path class="cls-5" d="M742.42,647.45a1.5,1.5,0,0,0,0-3,1.5,1.5,0,0,0,0,3Z" transform="translate(-300.5 -274.5)"/><path class="cls-5" d="M739.53,640.22a1.5,1.5,0,0,0,0-3,1.5,1.5,0,0,0,0,3Z" transform="translate(-300.5 -274.5)"/><path class="cls-5" d="M754.32,644.11a1.5,1.5,0,0,0,0-3,1.5,1.5,0,0,0,0,3Z" transform="translate(-300.5 -274.5)"/><path class="cls-5" d="M750.9,652.17a1.5,1.5,0,0,0,0-3,1.5,1.5,0,0,0,0,3Z" transform="translate(-300.5 -274.5)"/><path class="cls-5" d="M504.54,533.63a1.5,1.5,0,0,0,0-3,1.5,1.5,0,0,0,0,3Z" transform="translate(-300.5 -274.5)"/><path class="cls-5" d="M498.55,538.72a1.5,1.5,0,0,0,0-3,1.5,1.5,0,0,0,0,3Z" transform="translate(-300.5 -274.5)"/><path class="cls-5" d="M526.66,521a1.5,1.5,0,0,0,0-3,1.5,1.5,0,0,0,0,3Z" transform="translate(-300.5 -274.5)"/><path class="cls-5" d="M519.69,520.58a1.5,1.5,0,0,0,0-3,1.5,1.5,0,0,0,0,3Z" transform="translate(-300.5 -274.5)"/><path class="cls-5" d="M517.68,527.63a1.5,1.5,0,0,0,0-3,1.5,1.5,0,0,0,0,3Z" transform="translate(-300.5 -274.5)"/><path class="cls-5" d="M509,525.62a1.5,1.5,0,0,0,0-3,1.5,1.5,0,0,0,0,3Z" transform="translate(-300.5 -274.5)"/><path class="cls-5" d="M493.18,546.73a1.5,1.5,0,0,0,0-3,1.5,1.5,0,0,0,0,3Z" transform="translate(-300.5 -274.5)"/><path class="cls-5" d="M486.71,553.2a1.5,1.5,0,0,0,0-3,1.5,1.5,0,0,0,0,3Z" transform="translate(-300.5 -274.5)"/><path class="cls-5" d="M490.52,536.08a1.5,1.5,0,0,0,0-3,1.5,1.5,0,0,0,0,3Z" transform="translate(-300.5 -274.5)"/></g></svg>