<svg xmlns="http://www.w3.org/2000/svg" viewBox="0 0 500 499"><defs><style>.cls-1{fill:#ea668e;}.cls-2,.cls-3,.cls-5{fill:none;stroke:#fff;}.cls-2{stroke-miterlimit:10;}.cls-2,.cls-5{stroke-width:5px;}.cls-3,.cls-5{stroke-linecap:round;stroke-linejoin:round;}.cls-3{stroke-width:2px;}.cls-4{fill:#fff;}</style></defs><title>city</title><g id="Layer_8" data-name="Layer 8"><circle class="cls-1" cx="250" cy="249.5" r="249.5"/></g><g id="Layer_4" data-name="Layer 4"><path class="cls-2" d="M622.9,589.45a85.53,85.53,0,0,1-63.84,40.32" transform="translate(-290 -352.5)"/><path class="cls-2" d="M536.6,629.2a85.51,85.51,0,1,1,98.27-94.88" transform="translate(-290 -352.5)"/><path class="cls-3" d="M527.07,619a76.53,76.53,0,0,1-36.77-25.16" transform="translate(-290 -352.5)"/></g><g id="Layer_5" data-name="Layer 5"><path class="cls-4" d="M779.19,609a1.5,1.5,0,0,0,0-3,1.5,1.5,0,0,0,0,3Z" transform="translate(-290 -352.5)"/><path class="cls-4" d="M771.27,603.73a1.5,1.5,0,0,0,0-3,1.5,1.5,0,0,0,0,3Z" transform="translate(-290 -352.5)"/><path class="cls-4" d="M782.71,599.33a1.5,1.5,0,0,0,0-3,1.5,1.5,0,0,0,0,3Z" transform="translate(-290 -352.5)"/><line class="cls-5" x1="350.76" y1="173.07" x2="350.76" y2="180.42"/><path class="cls-5" d="M292.5,628.5s0-.49,9.43-.49V617.13h8V628h10.69V613.79h4.68V605.1h4v-16h5.35v16h16v8.69h4.67V628h6.16v31.74h16V548.48h5.22V535.59h14v-14.7h11.36v14.7h5.35v12.89H425.7V695.84h26.07V674.79H459v-9.54h25.4v9.54H505.9v21.05h8.55V640.52h2v-6.68h6.68v6.68h4.68v55.32h10V612.45h4V605.1h7.36v7.35h8.68v83.39h12v-52h5.35V633.17h11.36v10.69h12.7v52h23.53v-150h3.9c0-.17,0-.34,0-.52,0-6.82,6.28-12.36,14-12.36s14,5.54,14,12.36c0,.18,0,.35,0,.52h3.51v84.54h12V507h13.9V497.5h18V507h5.48v188.8h36.09V637.36h8.55V625.15h9.36V613.79h6.68v11.36H787.5" transform="translate(-290 -352.5)"/><polyline class="cls-3" points="95.58 205.98 95.58 307.25 95.58 317.25"/><line class="cls-3" x1="169.77" y1="332.29" x2="169.77" y2="343.34"/><line class="cls-3" x1="287.92" y1="301.36" x2="287.92" y2="343.34"/><line class="cls-3" x1="340.86" y1="203.3" x2="340.86" y2="343.34"/><line class="cls-3" x1="388.31" y1="164.54" x2="388.31" y2="277.84"/><path class="cls-4" d="M343.56,594.16a1.5,1.5,0,0,0,0-3,1.5,1.5,0,0,0,0,3Z" transform="translate(-290 -352.5)"/><path class="cls-4" d="M345.12,583.08a1.5,1.5,0,0,0,0-3,1.5,1.5,0,0,0,0,3Z" transform="translate(-290 -352.5)"/><path class="cls-4" d="M359,581.64a1.5,1.5,0,0,0,0-3,1.5,1.5,0,0,0,0,3Z" transform="translate(-290 -352.5)"/><path class="cls-4" d="M355.16,591.4a1.5,1.5,0,0,0,0-3,1.5,1.5,0,0,0,0,3Z" transform="translate(-290 -352.5)"/><path class="cls-4" d="M320,590.52a1.5,1.5,0,0,0,0-3,1.5,1.5,0,0,0,0,3Z" transform="translate(-290 -352.5)"/><path class="cls-4" d="M435.26,528a1.5,1.5,0,0,0,0-3,1.5,1.5,0,0,0,0,3Z" transform="translate(-290 -352.5)"/><path class="cls-4" d="M423.34,524.63a1.5,1.5,0,0,0,0-3,1.5,1.5,0,0,0,0,3Z" transform="translate(-290 -352.5)"/><path class="cls-4" d="M658.84,527.15a1.5,1.5,0,0,0,0-3,1.5,1.5,0,0,0,0,3Z" transform="translate(-290 -352.5)"/><path class="cls-4" d="M653.68,520a1.5,1.5,0,0,0,0-3,1.5,1.5,0,0,0,0,3Z" transform="translate(-290 -352.5)"/><path class="cls-4" d="M648,527.27a1.5,1.5,0,0,0,0-3,1.5,1.5,0,0,0,0,3Z" transform="translate(-290 -352.5)"/><path class="cls-4" d="M663.24,513.94a1.5,1.5,0,0,0,0-3,1.5,1.5,0,0,0,0,3Z" transform="translate(-290 -352.5)"/><path class="cls-4" d="M662.8,505.42a1.5,1.5,0,0,0,0-3,1.5,1.5,0,0,0,0,3Z" transform="translate(-290 -352.5)"/><path class="cls-4" d="M594.3,635.85a1.5,1.5,0,0,0,0-3,1.5,1.5,0,0,0,0,3Z" transform="translate(-290 -352.5)"/><path class="cls-4" d="M599.3,628.05a1.5,1.5,0,0,0,0-3,1.5,1.5,0,0,0,0,3Z" transform="translate(-290 -352.5)"/><path class="cls-4" d="M607,639.29a1.5,1.5,0,0,0,0-3,1.5,1.5,0,0,0,0,3Z" transform="translate(-290 -352.5)"/><path class="cls-4" d="M489,659.18a1.5,1.5,0,0,0,0-3,1.5,1.5,0,0,0,0,3Z" transform="translate(-290 -352.5)"/><path class="cls-4" d="M496.4,664.18a1.5,1.5,0,0,0,0-3,1.5,1.5,0,0,0,0,3Z" transform="translate(-290 -352.5)"/><path class="cls-4" d="M503.92,666.22a1.5,1.5,0,0,0,0-3,1.5,1.5,0,0,0,0,3Z" transform="translate(-290 -352.5)"/><path class="cls-4" d="M501.24,653.14a1.5,1.5,0,0,0,0-3,1.5,1.5,0,0,0,0,3Z" transform="translate(-290 -352.5)"/><path class="cls-4" d="M475.75,657.42a1.5,1.5,0,0,0,0-3,1.5,1.5,0,0,0,0,3Z" transform="translate(-290 -352.5)"/><path class="cls-4" d="M428.3,537a1.5,1.5,0,0,0,0-3,1.5,1.5,0,0,0,0,3Z" transform="translate(-290 -352.5)"/><path class="cls-4" d="M415.26,513.3a1.5,1.5,0,0,0,0-3,1.5,1.5,0,0,0,0,3Z" transform="translate(-290 -352.5)"/><path class="cls-4" d="M401.7,513.3a1.5,1.5,0,0,0,0-3,1.5,1.5,0,0,0,0,3Z" transform="translate(-290 -352.5)"/></g></svg>