<?xml version="1.0" encoding="utf-8"?>
<!-- Generator: Adobe Illustrator 24.0.3, SVG Export Plug-In . SVG Version: 6.00 Build 0)  -->
<svg version="1.1" id="Layer_1" xmlns="http://www.w3.org/2000/svg" xmlns:xlink="http://www.w3.org/1999/xlink" x="0px" y="0px"
	 viewBox="0 0 500 499" style="enable-background:new 0 0 500 499;" xml:space="preserve">
<style type="text/css">
	.st0{fill:#EBA2A0;}
	.st1{fill:none;stroke:#FFFFFF;stroke-width:5;stroke-miterlimit:10;}
	.st2{fill:none;stroke:#FFFFFF;stroke-width:2;stroke-linecap:round;stroke-linejoin:round;}
	.st3{fill:#FFFFFF;}
	.st4{fill:none;stroke:#FFFFFF;stroke-width:5;stroke-linecap:round;stroke-linejoin:round;}
</style>
<title>city</title>
<g id="Layer_8">
	<circle class="st0" cx="250" cy="249.5" r="249.5"/>
</g>
<g id="Layer_4">
	<path class="st1" d="M332.9,237c-13.9,22.6-37.5,37.5-63.8,40.3"/>
	<path class="st1" d="M246.6,276.7c-46.6-7.4-78.5-51.2-71.1-97.9c7.4-46.6,51.2-78.5,97.9-71.1c37.7,6,66.8,36.2,71.5,74"/>
	<path class="st2" d="M237.1,266.5c-14.5-4.6-27.3-13.3-36.8-25.2"/>
</g>
<g id="Layer_5">
	<path class="st3" d="M489.2,256.5c0.8,0,1.5-0.7,1.5-1.5s-0.7-1.5-1.5-1.5s-1.5,0.7-1.5,1.5S488.4,256.5,489.2,256.5z"/>
	<path class="st3" d="M481.3,251.2c0.8,0,1.5-0.7,1.5-1.5s-0.7-1.5-1.5-1.5s-1.5,0.7-1.5,1.5S480.4,251.2,481.3,251.2z"/>
	<path class="st3" d="M492.7,246.8c0.8,0,1.5-0.7,1.5-1.5s-0.7-1.5-1.5-1.5s-1.5,0.7-1.5,1.5S491.9,246.8,492.7,246.8z"/>
	<line class="st4" x1="350.8" y1="173.1" x2="350.8" y2="180.4"/>
	<path class="st4" d="M2.5,276c0,0,0-0.5,9.4-0.5v-10.9h8v10.9h10.7v-14.2h4.7v-8.7h4v-16h5.4v16h16v8.7h4.7v14.2h6.2v31.7h16V196
		h5.2v-12.9h14v-14.7h11.4v14.7h5.4V196h12.3v147.4h26.1v-21.1h7.2v-9.5h25.4v9.5h21.5v21h8.6V288h2v-6.7h6.7v6.7h4.7v55.3h10V260h4
		v-7.4h7.4v7.3h8.7v83.4h12v-52h5.3v-10.7h11.4v10.7h12.7v52h23.5v-150h3.9c0-0.2,0-0.3,0-0.5c0-6.8,6.3-12.4,14-12.4
		s14,5.5,14,12.4c0,0.2,0,0.3,0,0.5h3.5v84.5h12V154.5h13.9V145h18v9.5h5.5v188.8h36.1v-58.4h8.5v-12.2h9.4v-11.4h6.7v11.4h19.2"/>
	<polyline class="st2" points="95.6,206 95.6,307.2 95.6,317.2 	"/>
	<line class="st2" x1="169.8" y1="332.3" x2="169.8" y2="343.3"/>
	<line class="st2" x1="287.9" y1="301.4" x2="287.9" y2="343.3"/>
	<line class="st2" x1="340.9" y1="203.3" x2="340.9" y2="343.3"/>
	<line class="st2" x1="388.3" y1="164.5" x2="388.3" y2="277.8"/>
	<path class="st3" d="M53.6,241.7c0.8,0,1.5-0.7,1.5-1.5s-0.7-1.5-1.5-1.5s-1.5,0.7-1.5,1.5S52.7,241.7,53.6,241.7z"/>
	<path class="st3" d="M55.1,230.6c0.8,0,1.5-0.7,1.5-1.5s-0.7-1.5-1.5-1.5s-1.5,0.7-1.5,1.5S54.3,230.6,55.1,230.6z"/>
	<path class="st3" d="M69,229.1c0.8,0,1.5-0.7,1.5-1.5s-0.7-1.5-1.5-1.5s-1.5,0.7-1.5,1.5S68.2,229.1,69,229.1z"/>
	<path class="st3" d="M65.2,238.9c0.8,0,1.5-0.7,1.5-1.5s-0.7-1.5-1.5-1.5s-1.5,0.7-1.5,1.5S64.3,238.9,65.2,238.9z"/>
	<path class="st3" d="M30,238c0.8,0,1.5-0.7,1.5-1.5S30.8,235,30,235s-1.5,0.7-1.5,1.5S29.2,238,30,238z"/>
	<path class="st3" d="M145.3,175.5c0.8,0,1.5-0.7,1.5-1.5s-0.7-1.5-1.5-1.5l0,0c-0.8,0-1.5,0.7-1.5,1.5S144.4,175.5,145.3,175.5z"/>
	<path class="st3" d="M133.3,172.1c0.8,0,1.5-0.7,1.5-1.5s-0.7-1.5-1.5-1.5s-1.5,0.7-1.5,1.5S132.5,172.1,133.3,172.1z"/>
	<path class="st3" d="M368.8,174.7c0.8,0,1.5-0.7,1.5-1.5s-0.7-1.5-1.5-1.5s-1.5,0.7-1.5,1.5S368,174.7,368.8,174.7z"/>
	<path class="st3" d="M363.7,167.5c0.8,0,1.5-0.7,1.5-1.5s-0.7-1.5-1.5-1.5s-1.5,0.7-1.5,1.5S362.9,167.5,363.7,167.5z"/>
	<path class="st3" d="M358,174.8c0.8,0,1.5-0.7,1.5-1.5s-0.7-1.5-1.5-1.5s-1.5,0.7-1.5,1.5S357.2,174.8,358,174.8z"/>
	<path class="st3" d="M373.2,161.4c0.8,0,1.5-0.7,1.5-1.5s-0.7-1.5-1.5-1.5s-1.5,0.7-1.5,1.5S372.4,161.4,373.2,161.4z"/>
	<path class="st3" d="M372.8,152.9c0.8,0,1.5-0.7,1.5-1.5s-0.7-1.5-1.5-1.5s-1.5,0.7-1.5,1.5S372,152.9,372.8,152.9z"/>
	<path class="st3" d="M304.3,283.3c0.8,0,1.5-0.7,1.5-1.5s-0.7-1.5-1.5-1.5s-1.5,0.7-1.5,1.5S303.5,283.3,304.3,283.3z"/>
	<path class="st3" d="M309.3,275.5c0.8,0,1.5-0.7,1.5-1.5s-0.7-1.5-1.5-1.5s-1.5,0.7-1.5,1.5S308.5,275.5,309.3,275.5z"/>
	<path class="st3" d="M317,286.8c0.8,0,1.5-0.7,1.5-1.5s-0.7-1.5-1.5-1.5s-1.5,0.7-1.5,1.5S316.2,286.8,317,286.8z"/>
	<path class="st3" d="M199,306.7c0.8,0,1.5-0.7,1.5-1.5s-0.7-1.5-1.5-1.5s-1.5,0.7-1.5,1.5S198.2,306.7,199,306.7z"/>
	<path class="st3" d="M206.4,311.7c0.8,0,1.5-0.7,1.5-1.5s-0.7-1.5-1.5-1.5l0,0c-0.8,0-1.5,0.7-1.5,1.5S205.6,311.7,206.4,311.7z"/>
	<path class="st3" d="M213.9,313.7c0.8,0,1.5-0.7,1.5-1.5s-0.7-1.5-1.5-1.5s-1.5,0.7-1.5,1.5S213.1,313.7,213.9,313.7L213.9,313.7z"
		/>
	<path class="st3" d="M211.2,300.6c0.8,0,1.5-0.7,1.5-1.5s-0.7-1.5-1.5-1.5s-1.5,0.7-1.5,1.5S210.4,300.6,211.2,300.6z"/>
	<path class="st3" d="M185.8,304.9c0.8,0,1.5-0.7,1.5-1.5s-0.7-1.5-1.5-1.5s-1.5,0.7-1.5,1.5S184.9,304.9,185.8,304.9z"/>
	<path class="st3" d="M138.3,184.5c0.8,0,1.5-0.7,1.5-1.5s-0.7-1.5-1.5-1.5s-1.5,0.7-1.5,1.5S137.5,184.5,138.3,184.5z"/>
	<path class="st3" d="M125.3,160.8c0.8,0,1.5-0.7,1.5-1.5s-0.7-1.5-1.5-1.5s-1.5,0.7-1.5,1.5S124.4,160.8,125.3,160.8z"/>
	<path class="st3" d="M111.7,160.8c0.8,0,1.5-0.7,1.5-1.5s-0.7-1.5-1.5-1.5s-1.5,0.7-1.5,1.5S110.9,160.8,111.7,160.8z"/>
</g>
</svg>
