<svg xmlns="http://www.w3.org/2000/svg" viewBox="0 0 499 499"><defs><style>.cls-1{fill:#ea668e;}.cls-2,.cls-3,.cls-4{fill:none;stroke:#fff;}.cls-2{stroke-miterlimit:10;}.cls-2,.cls-3{stroke-width:5px;}.cls-3,.cls-4{stroke-linecap:round;stroke-linejoin:round;}.cls-4{stroke-width:2px;}.cls-5{fill:#fff;}</style></defs><title>cloud</title><g id="Layer_8" data-name="Layer 8"><circle class="cls-1" cx="249.5" cy="249.5" r="249.5"/></g><g id="Layer_4" data-name="Layer 4"><path class="cls-2" d="M621.46,525.32c0,.89,0,1.78,0,2.68a85.5,85.5,0,0,1-84.71,85.5H536" transform="translate(-261.5 -287.5)"/><path class="cls-2" d="M466,577.08a85.5,85.5,0,1,1,155.48-51.76" transform="translate(-261.5 -287.5)"/></g><g id="Layer_6" data-name="Layer 6"><path class="cls-3" d="M418.5,583.5a19,19,0,0,0,6,.37,7.3,7.3,0,0,0,2-.37c2.24-.72,1.83-1.45,5-3,1.78-.87,5.08-2.48,9-2,2.48.31,2.2,1.08,4,1,2.78-.12,3.78-2,8-3,3.83-.9,5.41-.27,12,0,10.69.43,9.94-1.09,14,0,5.65,1.52,6,4.18,13,6a24.94,24.94,0,0,0,8,1c6.3-.33,7.12-3.1,12-3,4,.08,3.8,1.93,11,4a73.48,73.48,0,0,0,11,2c7.32,1,8.52.64,11,2,3.22,1.77,6.8,5.47,6,8-1,3.3-8.55,1.47-11,6-1.45,2.68.62,4.35-1,8-1,2.32-2.39,2.83-6,6-6.31,5.54-5.27,6.72-8,8-6.19,2.9-10.9-3.61-16-1-5.7,2.91-2.2,11.48-8,15-5.64,3.42-15.6-.66-23,0s-6.86,2.17-11,2c-8.16-.34-9.95-6.21-16-5-3.35.67-3.44,2.6-9,4a37.32,37.32,0,0,1-7,1c-4.4.2-4.61-.59-7,0-3.53.86-3.84,2.85-7,3a13.12,13.12,0,0,1-5-1,25.86,25.86,0,0,1-6-3c-4.85-3.16-5.42-5.07-7-5.75a3.52,3.52,0,0,0-1-.25c-2.67-.41-6.22-2.14-8-3-4.82-2.32-7.23-3.49-9-4-6.13-1.78-7.78.16-11-2-3.41-2.29-4.59-6.51-5-8-.89-3.24-.22-4.44-.5-6.26a7.66,7.66,0,0,0-.5-1.74,9.54,9.54,0,0,0-2-3c-3-3.2-3.39-2.93-4-4-1.35-2.36-.55-5.85,1-8,.84-1.17,2.9-2.11,7-4a74.22,74.22,0,0,1,8-3c7.07-2.88,9.67,3.15,19,2C405.47,587.4,413.77,582.42,418.5,583.5Z" transform="translate(-261.5 -287.5)"/><path class="cls-4" d="M385.11,592.73a24.3,24.3,0,0,0,9.06,1.92h0a22.85,22.85,0,0,0,2.82-.18,64.11,64.11,0,0,0,12.36-3.16c3-1,5.92-2,7.68-2a2.94,2.94,0,0,1,.58,0,19.48,19.48,0,0,0,4.54.54c.58,0,1.18,0,1.86-.05l.67,0a10.79,10.79,0,0,0,3-.55,9.45,9.45,0,0,0,3.49-1.92,8.47,8.47,0,0,1,2.05-1.3,13.28,13.28,0,0,1,5.79-1.68,7.61,7.61,0,0,1,1,.06,2.44,2.44,0,0,1,1,.27,6.92,6.92,0,0,0,3.24.77h.43a11.47,11.47,0,0,0,5.25-1.69,12.67,12.67,0,0,1,3.49-1.42,12.26,12.26,0,0,1,2.92-.36c.84,0,1.82.08,3.05.17s2.88.21,4.95.3" transform="translate(-261.5 -287.5)"/><path class="cls-4" d="M371.17,596.13a50.71,50.71,0,0,1,6.15-2.34c.68-.22,1.21-.39,1.69-.59" transform="translate(-261.5 -287.5)"/><path class="cls-4" d="M371.17,593.13" transform="translate(-261.5 -287.5)"/><path class="cls-3" d="M365.7,595.9" transform="translate(-261.5 -287.5)"/><path class="cls-3" d="M614.5,489.5h0c1.48-.42,2.83-.73,4.06-1,4.1-.8,6.12-1.34,7.94-1,4.25.72,4,4.27,8,5,3.28.6,3.87-1.75,9-2,2.94-.14,2.93.62,8,1a56.94,56.94,0,0,0,8,0c7-.39,6.84-1.38,10-1,2.75.33,2.74,1.07,10,4,4.8,1.94,7.2,2.91,9,3,5.3.26,6.34-2.66,11-2,2.31.33,1.63,1,8,4,6.53,3.09,7.8,2.67,10,5,1.48,1.56,1.92,2.83,4,4,1.86,1,3,.85,4,2a5.29,5.29,0,0,1,1,5c-1.41,3.62-7.9,1.77-18,6-4.91,2.06-4.17,2.82-8,4-7.25,2.23-14,.72-17,0-6.54-1.55-6.36-3.23-12-4a32.12,32.12,0,0,0-13,1c-7.08,2.08-7.11,4.88-12,5s-5.52-2.49-11-2c-2.93.26-4,1.12-7.46,1.1a20.84,20.84,0,0,1-6.54-1.1" transform="translate(-261.5 -287.5)"/><path class="cls-4" d="M707,515.81a52.58,52.58,0,0,1,12.47-3.37" transform="translate(-261.5 -287.5)"/><path class="cls-4" d="M626.49,520.52c.52.05,1,.08,1.57.08h.09a12.65,12.65,0,0,0,3.4-.46,23,23,0,0,1,3.6-.62,15.76,15.76,0,0,1,1.64-.08,15.55,15.55,0,0,1,6.28,1.33,7.51,7.51,0,0,0,3.12.73h.21c1.43,0,1.91-.34,3.31-1.26a26.59,26.59,0,0,1,7.66-3.58,36.59,36.59,0,0,1,10.1-1.43,33.32,33.32,0,0,1,4.57.31,20.35,20.35,0,0,1,7.08,2.17,22.34,22.34,0,0,0,5.3,1.9,34.23,34.23,0,0,0,8,1.06,23.49,23.49,0,0,0,6.91-1" transform="translate(-261.5 -287.5)"/><path class="cls-3" d="M328.5,493.5c1.06-.8,2.38-1.2,5-2s4.1-.84,7-2a30.86,30.86,0,0,0,2.82-1.3c2.34-1.24,3.69-2.4,6.18-3.7a11.31,11.31,0,0,1,2.52-1.13,13.22,13.22,0,0,1,7.48.13c6,1.58,6.85,3.88,11,5s5.43-.54,11-1c.54,0,13.09-1.29,23,6,5.42,4,5.7,7.5,11,9,3.75,1.06,5.34-.39,14,0,5.48.25,8.24.41,9,2,1.19,2.49-2.54,7.65-7,10-3.15,1.66-4.62.84-9,3-3.64,1.8-3.13,2.62-6,4-4.3,2.06-11.19,3.14-16,0-1.8-1.17-2.66-2.62-5-3s-4,.8-7,2c-2.09.83-7.24,2.87-12,2-5-.91-4.82-4-10-5-4.05-.75-4.35,1.14-10,1s-6.15-2-12-2a34.64,34.64,0,0,0-8,1c-7.21,1.57-6.88,3.31-10,3-4.28-.42-8.86-4-12-4a7.47,7.47,0,0,0-1.75.21c-1.6.4-1.93.92-3,1.15-2.07.45-4-1.13-4.29-1.36a5.87,5.87,0,0,1-2-3,6.81,6.81,0,0,1,1-5c2.48-4.56,7.64-5.91,8-6,4.8-1.18,6,1.49,9,0C325,500.75,324.82,496.28,328.5,493.5Z" transform="translate(-261.5 -287.5)"/><path class="cls-4" d="M324.3,508.07c3-1.49,4.24-4,5.27-6a8.86,8.86,0,0,1,2.34-3.34,17,17,0,0,1,3.76-1.36c.93-.29,1.68-.46,2.47-.65a28.09,28.09,0,0,0,4.84-1.47,31.59,31.59,0,0,0,3.22-1.48c1.28-.68,2.27-1.32,3.23-1.94a33.64,33.64,0,0,1,2.92-1.74l.11-.06.1-.06a7.27,7.27,0,0,1,1.64-.73,7.07,7.07,0,0,1,2.12-.32" transform="translate(-261.5 -287.5)"/><path class="cls-4" d="M309,512.41c1.66-3,5.41-4,5.45-4a6,6,0,0,1,1.44-.19" transform="translate(-261.5 -287.5)"/><path class="cls-4" d="M441.18,464.83c1.55-2.35,3.6-4.76,5.54-4.44,2.69.44,3.33,5.8,5.41,5.77s2.5-5.23,5.14-5.77c2-.41,4.2,2,5.91,4.44" transform="translate(-261.5 -287.5)"/></g><g id="Layer_7" data-name="Layer 7"><path class="cls-4" d="M458,539a76.51,76.51,0,0,1,7-44" transform="translate(-261.5 -287.5)"/><path class="cls-5" d="M423,574.78a1.5,1.5,0,0,0,0-3,1.5,1.5,0,0,0,0,3Z" transform="translate(-261.5 -287.5)"/><path class="cls-5" d="M423.48,564.62a1.5,1.5,0,0,0,0-3,1.5,1.5,0,0,0,0,3Z" transform="translate(-261.5 -287.5)"/><path class="cls-5" d="M440.74,572.74a1.5,1.5,0,0,0,0-3,1.5,1.5,0,0,0,0,3Z" transform="translate(-261.5 -287.5)"/><path class="cls-5" d="M448.86,566.14a1.5,1.5,0,0,0,0-3,1.5,1.5,0,0,0,0,3Z" transform="translate(-261.5 -287.5)"/><path class="cls-5" d="M440.74,562.08a1.5,1.5,0,0,0,0-3,1.5,1.5,0,0,0,0,3Z" transform="translate(-261.5 -287.5)"/><path class="cls-5" d="M431.6,568.68a1.5,1.5,0,0,0,0-3,1.5,1.5,0,0,0,0,3Z" transform="translate(-261.5 -287.5)"/><path class="cls-5" d="M408.25,579.85a1.5,1.5,0,0,0,0-3,1.5,1.5,0,0,0,0,3Z" transform="translate(-261.5 -287.5)"/><path class="cls-5" d="M414.34,569.19a1.5,1.5,0,0,0,0-3,1.5,1.5,0,0,0,0,3Z" transform="translate(-261.5 -287.5)"/><path class="cls-5" d="M434.2,489.46a1.5,1.5,0,0,0,0-3,1.5,1.5,0,0,0,0,3Z" transform="translate(-261.5 -287.5)"/><path class="cls-5" d="M423,482.36a1.5,1.5,0,0,0,0-3,1.5,1.5,0,0,0,0,3Z" transform="translate(-261.5 -287.5)"/><path class="cls-5" d="M423.48,491.52a1.5,1.5,0,0,0,0-3,1.5,1.5,0,0,0,0,3Z" transform="translate(-261.5 -287.5)"/><path class="cls-5" d="M446.8,486.3a1.5,1.5,0,0,0,0-3,1.5,1.5,0,0,0,0,3Z" transform="translate(-261.5 -287.5)"/><path class="cls-5" d="M454.92,480.39a1.5,1.5,0,0,0,0-3,1.5,1.5,0,0,0,0,3Z" transform="translate(-261.5 -287.5)"/><path class="cls-5" d="M443.19,498.21a1.5,1.5,0,0,0,0-3,1.5,1.5,0,0,0,0,3Z" transform="translate(-261.5 -287.5)"/><path class="cls-5" d="M400.13,480.86a1.5,1.5,0,0,0,0-3,1.5,1.5,0,0,0,0,3Z" transform="translate(-261.5 -287.5)"/><path class="cls-5" d="M410.28,485.93a1.5,1.5,0,0,0,0-3,1.5,1.5,0,0,0,0,3Z" transform="translate(-261.5 -287.5)"/><path class="cls-5" d="M643.66,535.81a1.5,1.5,0,0,0,0-3,1.5,1.5,0,0,0,0,3Z" transform="translate(-261.5 -287.5)"/><path class="cls-5" d="M628.58,542a1.5,1.5,0,0,0,0-3,1.5,1.5,0,0,0,0,3Z" transform="translate(-261.5 -287.5)"/><path class="cls-5" d="M637.69,538.47a1.5,1.5,0,0,0,0-3,1.5,1.5,0,0,0,0,3Z" transform="translate(-261.5 -287.5)"/><path class="cls-5" d="M648.47,542.84a1.5,1.5,0,0,0,0-3,1.5,1.5,0,0,0,0,3Z" transform="translate(-261.5 -287.5)"/><path class="cls-5" d="M661.61,543.93a1.5,1.5,0,0,0,0-3,1.5,1.5,0,0,0,0,3Z" transform="translate(-261.5 -287.5)"/><path class="cls-5" d="M643.81,550.88a1.5,1.5,0,0,0,0-3,1.5,1.5,0,0,0,0,3Z" transform="translate(-261.5 -287.5)"/><path class="cls-5" d="M627.53,534.18a1.5,1.5,0,0,0,0-3,1.5,1.5,0,0,0,0,3Z" transform="translate(-261.5 -287.5)"/><path class="cls-5" d="M662.59,529.18a1.5,1.5,0,0,0,0-3,1.5,1.5,0,0,0,0,3Z" transform="translate(-261.5 -287.5)"/><path class="cls-5" d="M651.72,534.08a1.5,1.5,0,0,0,0-3,1.5,1.5,0,0,0,0,3Z" transform="translate(-261.5 -287.5)"/><path class="cls-5" d="M634.56,546.54a1.5,1.5,0,0,0,0-3,1.5,1.5,0,0,0,0,3Z" transform="translate(-261.5 -287.5)"/></g></svg>