<?xml version="1.0" encoding="utf-8"?>
<!-- Generator: Adobe Illustrator 24.0.3, SVG Export Plug-In . SVG Version: 6.00 Build 0)  -->
<svg version="1.1" id="Layer_1" xmlns="http://www.w3.org/2000/svg" xmlns:xlink="http://www.w3.org/1999/xlink" x="0px" y="0px"
	 viewBox="0 0 499 499" style="enable-background:new 0 0 499 499;" xml:space="preserve">
<style type="text/css">
	.st0{fill:#E8688F;}
	.st1{fill:none;stroke:#FFFFFF;stroke-width:5;stroke-miterlimit:10;}
	.st2{fill:none;stroke:#FFFFFF;stroke-width:5;stroke-linecap:round;stroke-linejoin:round;}
	.st3{fill:none;stroke:#FFFFFF;stroke-width:2;stroke-linecap:round;stroke-linejoin:round;}
	.st4{fill:#FFFFFF;}
</style>
<title>cloud</title>
<g id="Layer_8">
	<circle class="st0" cx="249.5" cy="249.5" r="249.5"/>
</g>
<g id="Layer_4">
	<path class="st1" d="M360,237.8c0,0.9,0,1.8,0,2.7c0,46.9-37.8,85.1-84.7,85.5h-0.8"/>
	<path class="st1" d="M204.5,289.6c-27.1-38.7-17.7-92,21-119.1c38.7-27.1,92-17.7,119.1,21c9.5,13.6,14.9,29.7,15.4,46.4"/>
</g>
<g id="Layer_6">
	<path class="st2" d="M157,296c2,0.4,4,0.6,6,0.4c0.7,0,1.4-0.2,2-0.4c2.2-0.7,1.8-1.5,5-3c1.8-0.9,5.1-2.5,9-2c2.5,0.3,2.2,1.1,4,1
		c2.8-0.1,3.8-2,8-3c3.8-0.9,5.4-0.3,12,0c10.7,0.4,9.9-1.1,14,0c5.6,1.5,6,4.2,13,6c2.6,0.8,5.3,1.1,8,1c6.3-0.3,7.1-3.1,12-3
		c4,0.1,3.8,1.9,11,4c3.6,0.9,7.3,1.6,11,2c7.3,1,8.5,0.6,11,2c3.2,1.8,6.8,5.5,6,8c-1,3.3-8.5,1.5-11,6c-1.5,2.7,0.6,4.3-1,8
		c-1,2.3-2.4,2.8-6,6c-6.3,5.5-5.3,6.7-8,8c-6.2,2.9-10.9-3.6-16-1c-5.7,2.9-2.2,11.5-8,15c-5.6,3.4-15.6-0.7-23,0s-6.9,2.2-11,2
		c-8.2-0.3-10-6.2-16-5c-3.4,0.7-3.4,2.6-9,4c-2.3,0.6-4.6,0.9-7,1c-4.4,0.2-4.6-0.6-7,0c-3.5,0.9-3.8,2.8-7,3c-1.7,0-3.4-0.3-5-1
		c-2.1-0.7-4.1-1.7-6-3c-4.9-3.2-5.4-5.1-7-5.8c-0.3-0.1-0.7-0.2-1-0.2c-2.7-0.4-6.2-2.1-8-3c-4.8-2.3-7.2-3.5-9-4
		c-6.1-1.8-7.8,0.2-11-2c-3.4-2.3-4.6-6.5-5-8c-0.9-3.2-0.2-4.4-0.5-6.3c-0.1-0.6-0.3-1.2-0.5-1.7c-0.5-1.1-1.1-2.1-2-3
		c-3-3.2-3.4-2.9-4-4c-1.4-2.4-0.5-5.8,1-8c0.8-1.2,2.9-2.1,7-4c2.6-1.2,5.3-2.2,8-3c7.1-2.9,9.7,3.2,19,2
		C144,299.9,152.3,294.9,157,296z"/>
	<path class="st3" d="M123.6,305.2c2.9,1.2,5.9,1.9,9.1,1.9l0,0c0.9,0,1.9-0.1,2.8-0.2c4.2-0.6,8.4-1.7,12.4-3.2c3-1,5.9-2,7.7-2
		c0.2,0,0.4,0,0.6,0c1.5,0.4,3,0.5,4.5,0.5c0.6,0,1.2,0,1.9,0h0.7c1,0,2-0.2,3-0.5c1.3-0.4,2.5-1,3.5-1.9c0.6-0.5,1.3-1,2-1.3
		c1.8-1,3.8-1.6,5.8-1.7c0.3,0,0.7,0,1,0.1c0.3,0,0.7,0.1,1,0.3c1,0.5,2.1,0.8,3.2,0.8h0.4c1.9-0.1,3.7-0.7,5.2-1.7
		c1.1-0.6,2.3-1.1,3.5-1.4c1-0.2,1.9-0.4,2.9-0.4c0.8,0,1.8,0.1,3,0.2s2.9,0.2,5,0.3"/>
	<path class="st3" d="M109.7,308.6c2-0.9,4.1-1.7,6.1-2.3c0.7-0.2,1.2-0.4,1.7-0.6"/>
	<path class="st3" d="M109.7,305.6"/>
	<path class="st2" d="M104.2,308.4"/>
	<path class="st2" d="M353,202L353,202c1.5-0.4,2.8-0.7,4.1-1c4.1-0.8,6.1-1.3,7.9-1c4.2,0.7,4,4.3,8,5c3.3,0.6,3.9-1.8,9-2
		c2.9-0.1,2.9,0.6,8,1c2.7,0.2,5.3,0.2,8,0c7-0.4,6.8-1.4,10-1c2.8,0.3,2.7,1.1,10,4c4.8,1.9,7.2,2.9,9,3c5.3,0.3,6.3-2.7,11-2
		c2.3,0.3,1.6,1,8,4c6.5,3.1,7.8,2.7,10,5c1.5,1.6,1.9,2.8,4,4c1.9,1,3,0.9,4,2c1.2,1.4,1.5,3.3,1,5c-1.4,3.6-7.9,1.8-18,6
		c-4.9,2.1-4.2,2.8-8,4c-7.2,2.2-14,0.7-17,0c-6.5-1.5-6.4-3.2-12-4c-4.4-0.6-8.8-0.2-13,1c-7.1,2.1-7.1,4.9-12,5s-5.5-2.5-11-2
		c-2.9,0.3-4,1.1-7.5,1.1c-2.2,0-4.4-0.4-6.5-1.1"/>
	<path class="st3" d="M445.5,228.3c4-1.6,8.2-2.8,12.5-3.4"/>
	<path class="st3" d="M365,233c0.5,0,1,0.1,1.6,0.1h0.1c1.1,0,2.3-0.2,3.4-0.5c1.2-0.3,2.4-0.5,3.6-0.6c0.5-0.1,1.1-0.1,1.6-0.1
		c2.2,0,4.3,0.5,6.3,1.3c1,0.5,2,0.7,3.1,0.7h0.2c1.4,0,1.9-0.3,3.3-1.3c2.3-1.6,4.9-2.8,7.7-3.6c3.3-0.9,6.7-1.4,10.1-1.4
		c1.5,0,3.1,0.1,4.6,0.3c2.5,0.3,4.9,1,7.1,2.2c1.7,0.9,3.5,1.5,5.3,1.9c2.6,0.7,5.3,1,8,1.1c2.3,0,4.7-0.3,6.9-1"/>
	<path class="st2" d="M67,206c1.1-0.8,2.4-1.2,5-2s4.1-0.8,7-2c1-0.4,1.9-0.8,2.8-1.3c2.3-1.2,3.7-2.4,6.2-3.7
		c0.8-0.5,1.6-0.9,2.5-1.1c2.5-0.7,5.1-0.6,7.5,0.1c6,1.6,6.9,3.9,11,5s5.4-0.5,11-1c0.5,0,13.1-1.3,23,6c5.4,4,5.7,7.5,11,9
		c3.8,1.1,5.3-0.4,14,0c5.5,0.2,8.2,0.4,9,2c1.2,2.5-2.5,7.7-7,10c-3.1,1.7-4.6,0.8-9,3c-3.6,1.8-3.1,2.6-6,4
		c-4.3,2.1-11.2,3.1-16,0c-1.8-1.2-2.7-2.6-5-3s-4,0.8-7,2c-2.1,0.8-7.2,2.9-12,2c-5-0.9-4.8-4-10-5c-4-0.8-4.4,1.1-10,1
		s-6.1-2-12-2c-2.7,0-5.4,0.4-8,1c-7.2,1.6-6.9,3.3-10,3c-4.3-0.4-8.9-4-12-4c-0.6,0-1.2,0.1-1.8,0.2c-1.6,0.4-1.9,0.9-3,1.2
		c-2.1,0.5-4-1.1-4.3-1.4c-1-0.8-1.7-1.8-2-3c-0.3-1.7,0-3.5,1-5c2.5-4.6,7.6-5.9,8-6c4.8-1.2,6,1.5,9,0
		C63.5,213.2,63.3,208.8,67,206z"/>
	<path class="st3" d="M62.8,220.6c3-1.5,4.2-4,5.3-6c0.5-1.3,1.3-2.4,2.3-3.3c1.2-0.6,2.5-1.1,3.8-1.4c0.9-0.3,1.7-0.5,2.5-0.6
		c1.7-0.3,3.3-0.8,4.8-1.5c1.1-0.4,2.2-0.9,3.2-1.5c1.3-0.7,2.3-1.3,3.2-1.9c0.9-0.6,1.9-1.2,2.9-1.7l0.1-0.1l0.1-0.1
		c0.5-0.3,1.1-0.6,1.6-0.7c0.7-0.2,1.4-0.3,2.1-0.3"/>
	<path class="st3" d="M47.5,224.9c1.7-3,5.4-4,5.5-4c0.5-0.1,1-0.2,1.4-0.2"/>
	<path class="st3" d="M179.7,177.3c1.5-2.4,3.6-4.8,5.5-4.4c2.7,0.4,3.3,5.8,5.4,5.8s2.5-5.2,5.1-5.8c2-0.4,4.2,2,5.9,4.4"/>
</g>
<g id="Layer_7">
	<path class="st3" d="M196.5,251.5c-2.1-15,0.4-30.4,7-44"/>
	<path class="st4" d="M161.5,287.3c0.8,0,1.5-0.7,1.5-1.5s-0.7-1.5-1.5-1.5s-1.5,0.7-1.5,1.5S160.7,287.3,161.5,287.3z"/>
	<path class="st4" d="M162,277.1c0.8,0,1.5-0.7,1.5-1.5s-0.7-1.5-1.5-1.5s-1.5,0.7-1.5,1.5S161.2,277.1,162,277.1z"/>
	<path class="st4" d="M179.2,285.2c0.8,0,1.5-0.7,1.5-1.5s-0.7-1.5-1.5-1.5s-1.5,0.7-1.5,1.5S178.4,285.2,179.2,285.2z"/>
	<path class="st4" d="M187.4,278.6c0.8,0,1.5-0.7,1.5-1.5s-0.7-1.5-1.5-1.5s-1.5,0.7-1.5,1.5S186.5,278.6,187.4,278.6z"/>
	<path class="st4" d="M179.2,274.6c0.8,0,1.5-0.7,1.5-1.5s-0.7-1.5-1.5-1.5s-1.5,0.7-1.5,1.5S178.4,274.6,179.2,274.6z"/>
	<path class="st4" d="M170.1,281.2c0.8,0,1.5-0.7,1.5-1.5s-0.7-1.5-1.5-1.5s-1.5,0.7-1.5,1.5S169.3,281.2,170.1,281.2z"/>
	<path class="st4" d="M146.8,292.3c0.8,0,1.5-0.7,1.5-1.5s-0.7-1.5-1.5-1.5s-1.5,0.7-1.5,1.5S145.9,292.3,146.8,292.3z"/>
	<path class="st4" d="M152.8,281.7c0.8,0,1.5-0.7,1.5-1.5s-0.7-1.5-1.5-1.5s-1.5,0.7-1.5,1.5S152,281.7,152.8,281.7z"/>
	<path class="st4" d="M172.7,202c0.8,0,1.5-0.7,1.5-1.5s-0.7-1.5-1.5-1.5s-1.5,0.7-1.5,1.5S171.9,202,172.7,202z"/>
	<path class="st4" d="M161.5,194.9c0.8,0,1.5-0.7,1.5-1.5s-0.7-1.5-1.5-1.5s-1.5,0.7-1.5,1.5S160.7,194.9,161.5,194.9z"/>
	<path class="st4" d="M162,204c0.8,0,1.5-0.7,1.5-1.5s-0.7-1.5-1.5-1.5s-1.5,0.7-1.5,1.5S161.2,204,162,204z"/>
	<path class="st4" d="M185.3,198.8c0.8,0,1.5-0.7,1.5-1.5s-0.7-1.5-1.5-1.5s-1.5,0.7-1.5,1.5S184.5,198.8,185.3,198.8z"/>
	<path class="st4" d="M193.4,192.9c0.8,0,1.5-0.7,1.5-1.5s-0.7-1.5-1.5-1.5s-1.5,0.7-1.5,1.5S192.6,192.9,193.4,192.9z"/>
	<path class="st4" d="M181.7,210.7c0.8,0,1.5-0.7,1.5-1.5s-0.7-1.5-1.5-1.5s-1.5,0.7-1.5,1.5S180.9,210.7,181.7,210.7z"/>
	<path class="st4" d="M138.6,193.4c0.8,0,1.5-0.7,1.5-1.5s-0.7-1.5-1.5-1.5s-1.5,0.7-1.5,1.5S137.8,193.4,138.6,193.4z"/>
	<path class="st4" d="M148.8,198.4c0.8,0,1.5-0.7,1.5-1.5s-0.7-1.5-1.5-1.5s-1.5,0.7-1.5,1.5S148,198.4,148.8,198.4z"/>
	<path class="st4" d="M382.2,248.3c0.8,0,1.5-0.7,1.5-1.5s-0.7-1.5-1.5-1.5s-1.5,0.7-1.5,1.5S381.3,248.3,382.2,248.3z"/>
	<path class="st4" d="M367.1,254.5c0.8,0,1.5-0.7,1.5-1.5s-0.7-1.5-1.5-1.5s-1.5,0.7-1.5,1.5S366.3,254.5,367.1,254.5z"/>
	<path class="st4" d="M376.2,251c0.8,0,1.5-0.7,1.5-1.5s-0.7-1.5-1.5-1.5s-1.5,0.7-1.5,1.5S375.4,251,376.2,251z"/>
	<path class="st4" d="M387,255.3c0.8,0,1.5-0.7,1.5-1.5s-0.7-1.5-1.5-1.5s-1.5,0.7-1.5,1.5S386.1,255.3,387,255.3z"/>
	<path class="st4" d="M400.1,256.4c0.8,0,1.5-0.7,1.5-1.5s-0.7-1.5-1.5-1.5s-1.5,0.7-1.5,1.5S399.3,256.4,400.1,256.4z"/>
	<path class="st4" d="M382.3,263.4c0.8,0,1.5-0.7,1.5-1.5s-0.7-1.5-1.5-1.5s-1.5,0.7-1.5,1.5S381.5,263.4,382.3,263.4z"/>
	<path class="st4" d="M366,246.7c0.8,0,1.5-0.7,1.5-1.5s-0.7-1.5-1.5-1.5s-1.5,0.7-1.5,1.5S365.2,246.7,366,246.7z"/>
	<path class="st4" d="M401.1,241.7c0.8,0,1.5-0.7,1.5-1.5s-0.7-1.5-1.5-1.5s-1.5,0.7-1.5,1.5S400.3,241.7,401.1,241.7z"/>
	<path class="st4" d="M390.2,246.6c0.8,0,1.5-0.7,1.5-1.5s-0.7-1.5-1.5-1.5s-1.5,0.7-1.5,1.5S389.4,246.6,390.2,246.6z"/>
	<path class="st4" d="M373.1,259c0.8,0,1.5-0.7,1.5-1.5s-0.7-1.5-1.5-1.5s-1.5,0.7-1.5,1.5S372.2,259,373.1,259z"/>
</g>
</svg>
