<svg width="422" height="166" viewBox="0 0 422 166" fill="none" xmlns="http://www.w3.org/2000/svg">
<path d="M418.64 165C421.855 151.634 421.655 137.673 418.057 124.405C414.459 111.137 407.58 98.9872 398.052 89.0764C388.525 79.1656 376.657 71.8121 363.54 67.6937C350.424 63.5752 336.483 62.8243 323 65.51C315.339 47.489 302.816 31.954 286.833 20.6416C270.849 9.32924 252.034 2.68535 232.491 1.45269C212.948 0.220034 193.447 4.44718 176.168 13.6616C158.89 22.876 144.515 36.7145 134.65 53.63C118.494 44.5645 99.9243 40.7326 81.4995 42.6625C63.0747 44.5924 45.702 52.1891 31.7753 64.4057C17.8486 76.6222 8.05352 92.8573 3.73987 110.874C-0.573782 128.89 0.806324 147.801 7.69001 165H418.64Z" fill="white" stroke="white" stroke-width="2" stroke-miterlimit="10"/>
</svg>
