<svg width="422" height="166" viewBox="0 0 422 166" fill="none" xmlns="http://www.w3.org/2000/svg">
<path d="M3.27203 164.757C0.0565689 151.391 0.257016 137.43 3.85489 124.162C7.45276 110.893 14.3323 98.744 23.8596 88.8331C33.387 78.9223 45.2555 71.5689 58.3716 67.4504C71.4877 63.332 85.4294 62.581 98.912 65.2667C106.573 47.2457 119.096 31.7107 135.079 20.3983C151.063 9.08595 169.878 2.44207 189.421 1.20941C208.964 -0.0232516 228.465 4.20389 245.744 13.4183C263.022 22.6327 277.397 36.4712 287.262 53.3867C303.418 44.3212 321.988 40.4893 340.413 42.4192C358.837 44.3491 376.21 51.9458 390.137 64.1624C404.063 76.3789 413.859 92.614 418.172 110.63C422.486 128.647 421.106 147.558 414.222 164.757H3.27203Z" fill="white" stroke="white" stroke-width="2" stroke-miterlimit="10"/>
</svg>
